<svg data-v-0dd9719b="" version="1.0" xmlns="http://www.w3.org/2000/svg" width="100%" height="100%" viewBox="0 0 340.000000 250.000000" preserveAspectRatio="xMidYMid meet" color-interpolation-filters="sRGB" style="margin: auto;">   <g data-v-0dd9719b="" class="iconmbgsvg" transform="translate(87.30000305175781,60.60127258300781)"><g fill="#000" hollow-target="text"><g mask="url(#84d8463e-1094-48aa-9700-1986cb57d3b3)"><g><rect fill="#000" fill-opacity="0" stroke-width="2" x="0" y="0" width="128.8" height="128.797424051519" class="image-rect"></rect> <svg x="0" y="0" width="128.8" height="128.797424051519" filtersec="colorsb5284486277" class="image-svg-svg primary" style="overflow: visible;"><svg fill="#000000" xmlns="http://www.w3.org/2000/svg" xmlns:xlink="http://www.w3.org/1999/xlink" version="1.1" x="0px" y="0px" viewBox="20.152000427246094 20.89900016784668 58.69599914550781 58.69499969482422" enable-background="new 0 0 100 100" xml:space="preserve"><g><path d="M49.5,79.594c-16.183,0-29.348-13.166-29.348-29.348S33.317,20.899,49.5,20.899s29.348,13.166,29.348,29.348   S65.683,79.594,49.5,79.594z M49.5,22.899c-15.079,0-27.348,12.268-27.348,27.348S34.421,77.594,49.5,77.594   s27.348-12.268,27.348-27.348S64.579,22.899,49.5,22.899z"></path></g></svg></svg> <!----></g><rect v-gra="id" width="140.8000030517578" height="140.79745483398438" transform="translate(-6, -6)" style="pointer-events:none;" fill="url(#Z9vrANxl57h0HsndIiIak)"></rect></g> <g transform="translate(61.400001525878906,34.91972732543945)"><g data-gra="path-name" fill-rule="" class="tp-name" transform="translate(0,0)"><g transform="scale(1)"><g><path d="M17.68-24.89L17.68-24.89 17.68-34.19Q17.68-35.36 17.29-35.72 16.9-36.08 15.73-36.08L15.73-36.08 9.23-36.08 9.23-23.01 15.73-23.01Q16.9-23.01 17.29-23.37 17.68-23.73 17.68-24.89ZM17.68-6.5L17.68-6.5 17.68-16.51Q17.68-17.68 17.29-18.04 16.9-18.39 15.73-18.39L15.73-18.39 9.23-18.39 9.23-4.62 15.73-4.62Q16.9-4.62 17.29-4.97 17.68-5.33 17.68-6.5ZM3.38 0L3.38-40.69 17.48-40.69Q23.6-40.69 23.6-34.97L23.6-34.97 23.6-24.64Q23.6-21.19 21-20.61L21-20.61Q23.6-19.96 23.6-16.84L23.6-16.84 23.6-5.72Q23.6 0 17.48 0L17.48 0 3.38 0ZM35.3-43.48L35.3 0 29.45 0 29.45-43.48 35.3-43.48ZM52.84-29.19L52.84-31.72 58.7-31.72 58.7 0 52.84 0 52.84-2.54Q52 0 48.81 0L48.81 0 46.48 0Q40.63 0 40.63-5.72L40.63-5.72 40.63-25.94Q40.63-31.72 46.48-31.72L46.48-31.72 48.81-31.72Q52-31.72 52.84-29.19L52.84-29.19ZM48.42-4.75L48.42-4.75 50.7-4.75Q51.87-4.75 52.36-5.27 52.84-5.79 52.84-7.02L52.84-7.02 52.84-24.7Q52.84-25.94 52.36-26.46 51.87-26.98 50.7-26.98L50.7-26.98 48.42-26.98Q47.26-26.98 46.87-26.62 46.48-26.26 46.48-25.09L46.48-25.09 46.48-6.63Q46.48-5.46 46.87-5.1 47.26-4.75 48.42-4.75ZM82.36-25.94L82.36-21.71 76.57-21.71 76.57-25.09Q76.57-26.26 76.18-26.62 75.79-26.98 74.62-26.98L74.62-26.98 71.83-26.98Q70.66-26.98 70.27-26.62 69.88-26.26 69.88-25.09L69.88-25.09 69.88-6.63Q69.88-5.46 70.27-5.1 70.66-4.75 71.83-4.75L71.83-4.75 74.62-4.75Q75.79-4.75 76.18-5.1 76.57-5.46 76.57-6.63L76.57-6.63 76.57-10.01 82.36-10.01 82.36-5.72Q82.36 0 76.25 0L76.25 0 70.07 0Q64.03 0 64.03-5.72L64.03-5.72 64.03-25.94Q64.03-31.72 70.07-31.72L70.07-31.72 76.25-31.72Q82.36-31.72 82.36-25.94L82.36-25.94ZM101.14-31.72L107.38-31.72 100.1-16.57 107.38 0 101.14 0 94.12-16.57 101.14-31.72ZM93.08 0L87.23 0 87.23-43.48 93.08-43.48 93.08 0Z" transform="translate(-3.380000114440918, 43.47999954223633)"></path></g> <!----> <!----> <!----> <!----> <!----> <!----> <!----></g></g> <g data-gra="path-slogan" fill-rule="" class="tp-slogan" fill="#000" transform="translate(41.679999351501465,45.47999954223633)"><!----> <!----> <g transform="scale(1, 1)"><g transform="scale(1)"><path d="M0.46-0.93L1.01-1.57Q1.40-1.17 1.92-0.92Q2.44-0.67 3.00-0.67L3.00-0.67Q3.72-0.67 4.11-1.00Q4.51-1.32 4.51-1.85L4.51-1.85Q4.51-2.12 4.42-2.32Q4.32-2.51 4.16-2.65Q4.00-2.78 3.78-2.89Q3.56-3.00 3.31-3.12L3.31-3.12L2.28-3.57Q2.02-3.68 1.76-3.84Q1.50-3.99 1.29-4.21Q1.08-4.43 0.95-4.74Q0.81-5.04 0.81-5.43L0.81-5.43Q0.81-5.84 0.98-6.19Q1.16-6.54 1.46-6.80Q1.76-7.06 2.17-7.20Q2.58-7.35 3.08-7.35L3.08-7.35Q3.73-7.35 4.28-7.10Q4.83-6.85 5.21-6.46L5.21-6.46L4.72-5.86Q4.39-6.18 3.99-6.36Q3.59-6.54 3.08-6.54L3.08-6.54Q2.47-6.54 2.11-6.26Q1.74-5.98 1.74-5.49L1.74-5.49Q1.74-5.22 1.84-5.04Q1.95-4.86 2.12-4.72Q2.30-4.59 2.51-4.48Q2.72-4.38 2.94-4.29L2.94-4.29L3.96-3.85Q4.27-3.72 4.54-3.55Q4.82-3.38 5.02-3.15Q5.21-2.93 5.33-2.62Q5.44-2.32 5.44-1.92L5.44-1.92Q5.44-1.50 5.27-1.12Q5.10-0.75 4.79-0.47Q4.47-0.19 4.01-0.03Q3.56 0.13 2.99 0.13L2.99 0.13Q2.23 0.13 1.58-0.15Q0.93-0.44 0.46-0.93L0.46-0.93ZM7.83-2.98L7.83-7.22L8.74-7.22L8.74-2.96Q8.74-2.31 8.88-1.87Q9.01-1.43 9.23-1.17Q9.46-0.90 9.77-0.79Q10.07-0.67 10.43-0.67L10.43-0.67Q10.79-0.67 11.10-0.79Q11.41-0.90 11.64-1.17Q11.87-1.43 12-1.87Q12.13-2.31 12.13-2.96L12.13-2.96L12.13-7.22L13.01-7.22L13.01-2.98Q13.01-2.11 12.81-1.52Q12.62-0.92 12.27-0.56Q11.92-0.19 11.45-0.03Q10.98 0.13 10.43 0.13L10.43 0.13Q9.88 0.13 9.40-0.03Q8.92-0.19 8.57-0.56Q8.23-0.92 8.03-1.52Q7.83-2.11 7.83-2.98L7.83-2.98ZM15.96 0L15.96-7.22L16.91-7.22L19.51-2.68L20.29-1.19L20.34-1.19Q20.30-1.74 20.27-2.33Q20.23-2.92 20.23-3.49L20.23-3.49L20.23-7.22L21.10-7.22L21.10 0L20.15 0L17.53-4.54L16.75-6.03L16.71-6.03Q16.75-5.48 16.79-4.91Q16.83-4.34 16.83-3.77L16.83-3.77L16.83 0L15.96 0Z" transform="translate(-0.46199999999999997, 7.348)"></path></g></g></g></g></g></g><mask id="b65827f6-f29f-4e35-b7d1-79620406c2a7"><g fill="white"><g><rect fill-opacity="1" stroke-width="2" x="0" y="0" width="128.8" height="128.797424051519" class="image-rect"></rect> <svg x="0" y="0" width="128.8" height="128.797424051519" filtersec="colorsb5284486277" class="image-svg-svg primary" style="overflow: visible;"><svg xmlns="http://www.w3.org/2000/svg" xmlns:xlink="http://www.w3.org/1999/xlink" version="1.1" x="0px" y="0px" viewBox="20.152000427246094 20.89900016784668 58.69599914550781 58.69499969482422" enable-background="new 0 0 100 100" xml:space="preserve"><g><path d="M49.5,79.594c-16.183,0-29.348-13.166-29.348-29.348S33.317,20.899,49.5,20.899s29.348,13.166,29.348,29.348   S65.683,79.594,49.5,79.594z M49.5,22.899c-15.079,0-27.348,12.268-27.348,27.348S34.421,77.594,49.5,77.594   s27.348-12.268,27.348-27.348S64.579,22.899,49.5,22.899z"></path></g></svg></svg> </g></g> <g transform="translate(61.400001525878906,34.91972732543945)" fill="black" stroke="black" stroke-width="6" stroke-linejoin="round"><g data-gra="path-name" fill-rule="" class="tp-name" transform="translate(0,0)"><g transform="scale(1)"><g><path d="M17.68-24.89L17.68-24.89 17.68-34.19Q17.68-35.36 17.29-35.72 16.9-36.08 15.73-36.08L15.73-36.08 9.23-36.08 9.23-23.01 15.73-23.01Q16.9-23.01 17.29-23.37 17.68-23.73 17.68-24.89ZM17.68-6.5L17.68-6.5 17.68-16.51Q17.68-17.68 17.29-18.04 16.9-18.39 15.73-18.39L15.73-18.39 9.23-18.39 9.23-4.62 15.73-4.62Q16.9-4.62 17.29-4.97 17.68-5.33 17.68-6.5ZM3.38 0L3.38-40.69 17.48-40.69Q23.6-40.69 23.6-34.97L23.6-34.97 23.6-24.64Q23.6-21.19 21-20.61L21-20.61Q23.6-19.96 23.6-16.84L23.6-16.84 23.6-5.72Q23.6 0 17.48 0L17.48 0 3.38 0ZM35.3-43.48L35.3 0 29.45 0 29.45-43.48 35.3-43.48ZM52.84-29.19L52.84-31.72 58.7-31.72 58.7 0 52.84 0 52.84-2.54Q52 0 48.81 0L48.81 0 46.48 0Q40.63 0 40.63-5.72L40.63-5.72 40.63-25.94Q40.63-31.72 46.48-31.72L46.48-31.72 48.81-31.72Q52-31.72 52.84-29.19L52.84-29.19ZM48.42-4.75L48.42-4.75 50.7-4.75Q51.87-4.75 52.36-5.27 52.84-5.79 52.84-7.02L52.84-7.02 52.84-24.7Q52.84-25.94 52.36-26.46 51.87-26.98 50.7-26.98L50.7-26.98 48.42-26.98Q47.26-26.98 46.87-26.62 46.48-26.26 46.48-25.09L46.48-25.09 46.48-6.63Q46.48-5.46 46.87-5.1 47.26-4.75 48.42-4.75ZM82.36-25.94L82.36-21.71 76.57-21.71 76.57-25.09Q76.57-26.26 76.18-26.62 75.79-26.98 74.62-26.98L74.62-26.98 71.83-26.98Q70.66-26.98 70.27-26.62 69.88-26.26 69.88-25.09L69.88-25.09 69.88-6.63Q69.88-5.46 70.27-5.1 70.66-4.75 71.83-4.75L71.83-4.75 74.62-4.75Q75.79-4.75 76.18-5.1 76.57-5.46 76.57-6.63L76.57-6.63 76.57-10.01 82.36-10.01 82.36-5.72Q82.36 0 76.25 0L76.25 0 70.07 0Q64.03 0 64.03-5.72L64.03-5.72 64.03-25.94Q64.03-31.72 70.07-31.72L70.07-31.72 76.25-31.72Q82.36-31.72 82.36-25.94L82.36-25.94ZM101.14-31.72L107.38-31.72 100.1-16.57 107.38 0 101.14 0 94.12-16.57 101.14-31.72ZM93.08 0L87.23 0 87.23-43.48 93.08-43.48 93.08 0Z" transform="translate(-3.380000114440918, 43.47999954223633)"></path></g>       </g></g> <g data-gra="path-slogan" fill-rule="" class="tp-slogan" transform="translate(41.679999351501465,45.47999954223633)" fill="white">  <g transform="scale(1, 1)"><g transform="scale(1)"><path d="M0.46-0.93L1.01-1.57Q1.40-1.17 1.92-0.92Q2.44-0.67 3.00-0.67L3.00-0.67Q3.72-0.67 4.11-1.00Q4.51-1.32 4.51-1.85L4.51-1.85Q4.51-2.12 4.42-2.32Q4.32-2.51 4.16-2.65Q4.00-2.78 3.78-2.89Q3.56-3.00 3.31-3.12L3.31-3.12L2.28-3.57Q2.02-3.68 1.76-3.84Q1.50-3.99 1.29-4.21Q1.08-4.43 0.95-4.74Q0.81-5.04 0.81-5.43L0.81-5.43Q0.81-5.84 0.98-6.19Q1.16-6.54 1.46-6.80Q1.76-7.06 2.17-7.20Q2.58-7.35 3.08-7.35L3.08-7.35Q3.73-7.35 4.28-7.10Q4.83-6.85 5.21-6.46L5.21-6.46L4.72-5.86Q4.39-6.18 3.99-6.36Q3.59-6.54 3.08-6.54L3.08-6.54Q2.47-6.54 2.11-6.26Q1.74-5.98 1.74-5.49L1.74-5.49Q1.74-5.22 1.84-5.04Q1.95-4.86 2.12-4.72Q2.30-4.59 2.51-4.48Q2.72-4.38 2.94-4.29L2.94-4.29L3.96-3.85Q4.27-3.72 4.54-3.55Q4.82-3.38 5.02-3.15Q5.21-2.93 5.33-2.62Q5.44-2.32 5.44-1.92L5.44-1.92Q5.44-1.50 5.27-1.12Q5.10-0.75 4.79-0.47Q4.47-0.19 4.01-0.03Q3.56 0.13 2.99 0.13L2.99 0.13Q2.23 0.13 1.58-0.15Q0.93-0.44 0.46-0.93L0.46-0.93ZM7.83-2.98L7.83-7.22L8.74-7.22L8.74-2.96Q8.74-2.31 8.88-1.87Q9.01-1.43 9.23-1.17Q9.46-0.90 9.77-0.79Q10.07-0.67 10.43-0.67L10.43-0.67Q10.79-0.67 11.10-0.79Q11.41-0.90 11.64-1.17Q11.87-1.43 12-1.87Q12.13-2.31 12.13-2.96L12.13-2.96L12.13-7.22L13.01-7.22L13.01-2.98Q13.01-2.11 12.81-1.52Q12.62-0.92 12.27-0.56Q11.92-0.19 11.45-0.03Q10.98 0.13 10.43 0.13L10.43 0.13Q9.88 0.13 9.40-0.03Q8.92-0.19 8.57-0.56Q8.23-0.92 8.03-1.52Q7.83-2.11 7.83-2.98L7.83-2.98ZM15.96 0L15.96-7.22L16.91-7.22L19.51-2.68L20.29-1.19L20.34-1.19Q20.30-1.74 20.27-2.33Q20.23-2.92 20.23-3.49L20.23-3.49L20.23-7.22L21.10-7.22L21.10 0L20.15 0L17.53-4.54L16.75-6.03L16.71-6.03Q16.75-5.48 16.79-4.91Q16.83-4.34 16.83-3.77L16.83-3.77L16.83 0L15.96 0Z" transform="translate(-0.46199999999999997, 7.348)"></path></g></g></g></g></mask><defs v-gra="od"></defs><defs v-gra="id"><filter id="66c65d55-0f3e-4976-bc7e-40e54bbd7340" filterUnits="userSpaceOnUse"><feColorMatrix type="matrix" values="0 0 0 0 0.99609375  0 0 0 0 0.99609375  0 0 0 0 0.99609375  0 0 0 1 0"></feColorMatrix></filter><linearGradient x1="0" y1="1" x2="0" y2="0" id="Z9vrANxl57h0HsndIiIak"><stop offset="0%" stop-color="#4481eb"></stop><stop offset="100%" stop-color="#05befe"></stop></linearGradient><filter id="42443b3f1de60f6b6fd3b6a9844b4764" filterUnits="objectBoundingBox"><feColorMatrix type="matrix" values="0 0 0 0 0.99609375  0 0 0 0 0.99609375  0 0 0 0 0.99609375  0 0 0 1 0"></feColorMatrix></filter></defs><mask v-gra="im" id="84d8463e-1094-48aa-9700-1986cb57d3b3"><g mask="url(#b65827f6-f29f-4e35-b7d1-79620406c2a7)" filter="url(#66c65d55-0f3e-4976-bc7e-40e54bbd7340)"><g><rect fill="#ffffff" fill-opacity="0" stroke-width="2" x="0" y="0" width="128.8" height="128.797424051519" class="image-rect"></rect> <svg x="0" y="0" width="128.8" height="128.797424051519" filtersec="colorsb5284486277" class="image-svg-svg primary" style="overflow: visible;"><svg fill="#000000" xmlns="http://www.w3.org/2000/svg" xmlns:xlink="http://www.w3.org/1999/xlink" version="1.1" x="0px" y="0px" viewBox="20.152000427246094 20.89900016784668 58.69599914550781 58.69499969482422" enable-background="new 0 0 100 100" xml:space="preserve"><g><path d="M49.5,79.594c-16.183,0-29.348-13.166-29.348-29.348S33.317,20.899,49.5,20.899s29.348,13.166,29.348,29.348   S65.683,79.594,49.5,79.594z M49.5,22.899c-15.079,0-27.348,12.268-27.348,27.348S34.421,77.594,49.5,77.594   s27.348-12.268,27.348-27.348S64.579,22.899,49.5,22.899z"></path></g></svg></svg> <!----></g></g></mask></svg>
