<svg width="21" height="20" viewBox="0 0 21 20" fill="none" xmlns="http://www.w3.org/2000/svg">
<path d="M9.04164 17.8921C8.70722 17.5039 8.59404 16.972 8.74146 16.4813C9.00523 16.4942 9.29685 16.5006 9.6185 16.5006H9.61835C9.71484 16.5009 9.80885 16.5301 9.8885 16.5842C9.75865 16.7648 9.68828 16.9814 9.68698 17.2039C9.68291 17.3874 9.77476 17.5596 9.92927 17.6584C10.0362 17.724 10.16 17.7568 10.2853 17.7529C10.3715 17.7519 10.4574 17.7395 10.5404 17.7163C10.5404 17.7313 10.5511 17.742 10.5553 17.7571H10.5555C10.6405 17.9881 10.7597 18.2048 10.9092 18.4004C10.2638 18.4497 9.42755 18.3168 9.04164 17.8921ZM10.1845 16.9444C10.2568 17.0641 10.3219 17.188 10.3796 17.3154C10.3081 17.335 10.232 17.3282 10.1652 17.2961C10.1337 17.2765 10.1163 17.2407 10.1202 17.2038C10.1221 17.1137 10.1442 17.0251 10.1845 16.9444ZM12.9227 14.5V14.4999C13.0314 14.9835 13.2435 15.4379 13.5446 15.8315C13.692 16.0143 13.8671 16.1727 14.0636 16.3012C14.0869 16.43 14.0541 16.5626 13.9735 16.6658L13.4696 16.8802L12.5368 17.292L11.9836 15.1477V15.1476C11.9378 14.9954 11.9798 14.8303 12.093 14.7187C12.3047 14.4983 12.6159 14.4042 12.9142 14.4699C12.91 14.4806 12.912 14.4914 12.9142 14.4999L12.9227 14.5ZM13.3516 19.5692C13.2554 19.6031 13.1482 19.5731 13.0837 19.4942C12.928 19.2825 12.7597 19.0807 12.5798 18.8895C12.6728 18.8864 12.7648 18.8684 12.8521 18.8358L13.3711 18.6428H13.371C13.4857 18.7477 13.5575 18.8914 13.5725 19.046C13.6154 19.387 13.4632 19.5069 13.3453 19.5692L13.3516 19.5692ZM0.483698 12.8554C0.69538 12.5324 0.831762 12.1659 0.882532 11.7832C0.93186 11.3993 1.28356 10.8934 1.86899 10.593C1.90846 10.6335 1.96243 10.6566 2.01901 10.6574C2.04165 10.657 2.06399 10.6534 2.08547 10.6467C2.19791 10.6099 2.25942 10.489 2.22272 10.3766C2.09925 10.0558 2.06007 9.70885 2.10911 9.36863L3.3399 10.4687C3.38241 10.5071 3.43855 10.5269 3.49572 10.5237C3.55303 10.5205 3.60657 10.4945 3.64443 10.4516C3.65024 10.4427 3.65531 10.4334 3.65938 10.4237C4.28541 10.5562 4.89261 10.7657 5.46701 11.0477C6.01995 11.3112 6.66411 11.3009 7.20821 11.0197C7.66929 10.7816 8.11734 10.4965 8.55056 10.222C10.4954 8.98485 12.5047 7.70678 16.8125 9.68171C16.9035 9.72335 17.0111 9.69665 17.0719 9.61743C18.9165 7.18477 19.7655 4.14081 19.4457 1.10443L19.4049 0.63477C19.3989 0.579926 19.4169 0.525231 19.4542 0.484604C19.5173 0.415542 19.6205 0.40031 19.7009 0.448188C19.7437 0.473868 19.7744 0.515508 19.7866 0.563967C20.0225 1.4796 21.0518 6.25713 18.1956 10.4063C18.0627 10.5971 17.9276 10.788 17.7838 10.981C17.7535 11.0225 17.739 11.0736 17.7431 11.1248C17.8266 12.2334 17.5286 13.1425 16.8853 13.8244H16.8854C16.7576 13.9482 16.6134 14.0535 16.4566 14.1375C15.7597 14.5278 15.7446 15.4242 15.8133 16.226C15.846 16.5996 15.6899 16.965 15.3973 17.1996C14.8698 17.6284 14.5395 17.7506 13.3645 18.186L13.3303 18.1989L13.2981 18.2118C13.1158 18.2783 12.9142 18.3513 12.6977 18.4263L12.6975 18.426C12.615 18.4598 12.5223 18.4579 12.441 18.4211C12.3599 18.3841 12.2975 18.3153 12.2688 18.2309C12.2321 18.1511 12.2304 18.0596 12.2636 17.9784C12.297 17.897 12.3625 17.8333 12.4445 17.8021L13.6432 17.2746L14.1964 17.0365C14.2295 17.0218 14.2582 16.9989 14.2802 16.97C14.4889 16.728 14.5541 16.3936 14.4516 16.091C14.4351 16.0422 14.4016 16.0012 14.3573 15.9752C14.1737 15.8669 14.0116 15.7259 13.8791 15.5591C13.6113 15.2059 13.4247 14.7983 13.3323 14.3647C13.3191 14.3308 13.3091 14.2955 13.3023 14.2597C13.3033 14.2555 13.3033 14.2511 13.3023 14.2468C13.2294 13.9251 13.1393 13.0439 14.1771 12.5635V12.5636C14.2849 12.5139 14.3319 12.3862 14.2822 12.2784C14.2326 12.1706 14.1049 12.1236 13.9971 12.1734C12.9442 12.6623 12.8091 13.4964 12.8435 14.026H12.8433C12.4536 13.9877 12.0677 14.129 11.7948 14.4099C11.6845 14.5198 11.6063 14.6578 11.5686 14.8089C11.5309 14.96 11.535 15.1186 11.5804 15.2675L12.1529 17.4889L12.153 17.4891C12.0077 17.5857 11.9009 17.7304 11.8511 17.8976C11.8013 18.0649 11.8118 18.2443 11.8807 18.4047C11.9038 18.4619 11.9341 18.5158 11.9707 18.5655H11.8378C11.5183 18.5247 11.1644 18.1366 10.98 17.6284C10.9478 17.5404 10.9135 17.4569 10.8813 17.3775C10.7505 17.0527 10.5813 16.7446 10.3775 16.4598L10.3646 16.4449V16.4447C10.1913 16.2261 9.92739 16.099 9.64842 16.0996C7.01522 16.0996 6.60565 15.7457 5.92379 15.1754C5.82731 15.0938 5.72647 15.0081 5.61287 14.918C5.26423 14.6017 4.84971 14.3665 4.39921 14.2297C4.06682 14.1213 3.74224 13.9902 3.42787 13.8374C2.59796 13.4386 2.11556 13.623 1.76386 13.7559C1.5986 13.8499 1.40346 13.876 1.2192 13.8287C0.932365 13.7078 0.688181 13.504 0.518144 13.2434C0.419921 13.1368 0.405848 12.9775 0.483758 12.8553L0.483698 12.8554Z" fill="white"/>
<path d="M1.5627 12.0894C1.59665 12.1113 1.63597 12.1232 1.6763 12.1238C1.75001 12.1244 1.81892 12.0871 1.85868 12.0252C1.85868 12.0252 1.92948 11.9136 2.01523 11.9351C2.07065 11.9487 2.12926 11.9396 2.17787 11.9097C2.22662 11.8799 2.26144 11.8319 2.27464 11.7765C2.30148 11.6616 2.23053 11.5467 2.11592 11.5191C1.99651 11.4947 1.87232 11.5084 1.76103 11.5584C1.6499 11.6085 1.55719 11.6922 1.49625 11.7978C1.43575 11.8971 1.4652 12.0263 1.5627 12.0894Z" fill="white"/>
</svg>
