<svg width="17" height="16" viewBox="0 0 17 16" fill="none" xmlns="http://www.w3.org/2000/svg">
<path d="M7.23331 14.3137C6.96577 14.0031 6.87523 13.5776 6.99317 13.1851C7.20418 13.1954 7.43748 13.2005 7.6948 13.2005H7.69468C7.77187 13.2007 7.84708 13.2241 7.9108 13.2674C7.80692 13.4119 7.75063 13.5851 7.74958 13.7631C7.74633 13.9099 7.8198 14.0477 7.94342 14.1267C8.02896 14.1792 8.12797 14.2054 8.22825 14.2023C8.29719 14.2015 8.36591 14.1916 8.4323 14.1731C8.4323 14.185 8.44089 14.1936 8.44426 14.2057H8.44437C8.51239 14.3905 8.6078 14.5639 8.72735 14.7203C8.21107 14.7598 7.54204 14.6535 7.23331 14.3137ZM8.14761 13.5555C8.20541 13.6513 8.25752 13.7504 8.30372 13.8523C8.2465 13.868 8.18556 13.8625 8.13217 13.8369C8.10698 13.8212 8.09305 13.7926 8.09619 13.7631C8.0977 13.691 8.11534 13.6201 8.14761 13.5555ZM10.3382 11.6V11.5999C10.4251 11.9868 10.5948 12.3503 10.8357 12.6652C10.9536 12.8114 11.0937 12.9382 11.2509 13.0409C11.2695 13.144 11.2433 13.2501 11.1788 13.3326L10.7757 13.5042L10.0295 13.8336L9.58689 12.1182V12.1181C9.55021 11.9963 9.58387 11.8642 9.67441 11.775C9.84375 11.5987 10.0927 11.5233 10.3313 11.5759C10.328 11.5845 10.3296 11.5931 10.3313 11.5999L10.3382 11.6ZM10.6813 15.6554C10.6043 15.6825 10.5186 15.6585 10.4669 15.5953C10.3424 15.426 10.2077 15.2645 10.0638 15.1116C10.1382 15.1091 10.2118 15.0947 10.2817 15.0686L10.6969 14.9143H10.6968C10.7886 14.9982 10.846 15.1131 10.858 15.2368C10.8923 15.5096 10.7706 15.6056 10.6762 15.6554L10.6813 15.6554ZM0.386959 10.2843C0.556304 10.0259 0.66541 9.73274 0.706025 9.42654C0.745488 9.11942 1.02685 8.71469 1.49519 8.47442C1.52676 8.5068 1.56994 8.52526 1.61521 8.52596C1.63332 8.52561 1.65119 8.52271 1.66837 8.51737C1.75832 8.48789 1.80754 8.3912 1.77817 8.30125C1.6794 8.04462 1.64806 7.76708 1.68729 7.4949L2.67192 8.37494C2.70592 8.4057 2.75084 8.42148 2.79657 8.41893C2.84242 8.41638 2.88525 8.3956 2.91555 8.36124C2.92019 8.35416 2.92425 8.34673 2.9275 8.33896C3.42833 8.44493 3.91409 8.61253 4.37361 8.83818C4.81596 9.04896 5.33129 9.04072 5.76656 8.81578C6.13543 8.62531 6.49387 8.39723 6.84045 8.17761C8.39635 7.18788 10.0038 6.16543 13.45 7.74537C13.5228 7.77868 13.6089 7.75732 13.6575 7.69395C15.1332 5.74781 15.8124 3.31265 15.5565 0.883547L15.5239 0.507816C15.5192 0.463941 15.5335 0.420184 15.5634 0.387684C15.6139 0.332434 15.6964 0.320248 15.7607 0.35855C15.7949 0.379094 15.8195 0.412406 15.8293 0.451174C16.018 1.18368 16.8414 5.0057 14.5565 8.32503C14.4501 8.47766 14.3421 8.6304 14.2271 8.78479C14.2028 8.81799 14.1912 8.85885 14.1944 8.89982C14.2613 9.78672 14.0229 10.514 13.5082 11.0595H13.5084C13.4061 11.1585 13.2907 11.2428 13.1652 11.31C12.6078 11.6222 12.5957 12.3393 12.6506 12.9808C12.6768 13.2797 12.5519 13.572 12.3178 13.7596C11.8958 14.1028 11.6316 14.2005 10.6916 14.5488L10.6642 14.5591L10.6384 14.5695C10.4927 14.6226 10.3313 14.681 10.1581 14.741L10.158 14.7408C10.092 14.7678 10.0178 14.7663 9.95282 14.7368C9.88794 14.7073 9.83803 14.6522 9.81505 14.5847C9.78568 14.5208 9.78429 14.4477 9.81087 14.3827C9.83757 14.3176 9.89003 14.2667 9.95561 14.2417L10.9146 13.8197L11.3571 13.6292C11.3836 13.6175 11.4066 13.5991 11.4241 13.576C11.5911 13.3824 11.6433 13.1149 11.5613 12.8728C11.5481 12.8338 11.5213 12.8009 11.4859 12.7801C11.3389 12.6936 11.2093 12.5807 11.1033 12.4473C10.889 12.1648 10.7398 11.8386 10.6658 11.4918C10.6553 11.4646 10.6473 11.4364 10.6418 11.4078C10.6426 11.4044 10.6426 11.4009 10.6418 11.3974C10.5835 11.1401 10.5115 10.4351 11.3417 10.0508V10.0509C11.4279 10.0111 11.4656 9.90896 11.4257 9.82272C11.386 9.73648 11.2839 9.69887 11.1977 9.73868C10.3553 10.1298 10.2473 10.7971 10.2748 11.2208H10.2747C9.96291 11.1901 9.65416 11.3032 9.43585 11.5279C9.34764 11.6159 9.28508 11.7263 9.2549 11.8471C9.22472 11.968 9.22797 12.0949 9.2643 12.214L9.72231 13.9911L9.72242 13.9913C9.60612 14.0686 9.52069 14.1843 9.48088 14.3181C9.44107 14.4519 9.44943 14.5954 9.50456 14.7238C9.52302 14.7695 9.54728 14.8127 9.57653 14.8524H9.47021C9.21462 14.8198 8.93153 14.5093 8.784 14.1027C8.75823 14.0324 8.73084 13.9655 8.70507 13.902C8.60038 13.6421 8.46504 13.3957 8.30197 13.1679L8.29164 13.1559V13.1558C8.15306 12.9809 7.94191 12.8792 7.71873 12.8797C5.61217 12.8797 5.28452 12.5966 4.73903 12.1403C4.66185 12.0751 4.58118 12.0065 4.4903 11.9344C4.21138 11.6814 3.87977 11.4932 3.51937 11.3838C3.25345 11.2971 2.99379 11.1921 2.74229 11.0699C2.07837 10.7509 1.69245 10.8984 1.41109 11.0047C1.27888 11.0799 1.12277 11.1008 0.975363 11.063C0.745892 10.9663 0.550545 10.8032 0.414515 10.5947C0.335937 10.5094 0.324678 10.382 0.387007 10.2843L0.386959 10.2843Z" fill="white"/>
<path d="M1.25016 9.6715C1.27732 9.68903 1.30878 9.69854 1.34104 9.69901C1.40001 9.69947 1.45514 9.66964 1.48694 9.62008C1.48694 9.62008 1.54358 9.53082 1.61218 9.548C1.65652 9.55891 1.70341 9.5516 1.74229 9.52769C1.78129 9.5039 1.80915 9.46547 1.81971 9.42114C1.84119 9.32921 1.78443 9.23728 1.69273 9.21523C1.59721 9.19573 1.49785 9.20664 1.40883 9.24669C1.31992 9.28673 1.24575 9.3537 1.197 9.4382C1.1486 9.51759 1.17216 9.62101 1.25016 9.6715Z" fill="white"/>
</svg>
