<svg width="11" height="20" viewBox="0 0 11 20" fill="none" xmlns="http://www.w3.org/2000/svg">
<path d="M9.96629 7.31825L9.46076 9.72557H0V7.31825H9.96629ZM2.8286 20L2.98507 4.7665C2.98507 3.70728 3.23383 2.82459 3.73134 2.11845C4.22885 1.4123 4.87482 0.882689 5.66923 0.529616C6.46365 0.176542 7.3022 5.80964e-06 8.18488 5.80964e-06C8.883 5.80964e-06 7.74193 0.000117383 8.38709 0.00031502C9.03225 0.000477219 10.0626 0.443863 10.0626 0.428742V2.93693C9.91815 2.88879 9.71754 2.8286 9.46076 2.75639C9.212 2.68416 8.883 2.64805 8.47376 2.64805C7.5349 2.64805 6.85684 2.88478 6.43957 3.35822C6.03033 3.83165 5.82571 4.52576 5.82571 5.44054L5.66923 20H2.8286Z" fill="#AE6E55"/>
</svg>
