<svg width="25" height="16" viewBox="0 0 25 16" fill="none" xmlns="http://www.w3.org/2000/svg">
<path d="M19.6175 4.97746C19.901 3.90198 18.7229 2.16676 16.9047 3.22259C17.0513 1.54105 15.3943 0.157828 13.5417 1.29179C12.6422 -0.722071 8.82491 -0.365223 8.62413 2.24995C6.33648 1.11105 4.0147 3.16393 4.80648 5.4223C3.74567 5.29528 3.02228 6.0381 2.77795 6.92297H21.646C21.4553 5.95032 20.8248 5.08509 19.6174 4.9775L19.6175 4.97746ZM6.83016 5.00201C6.66888 5.00201 6.53691 4.87005 6.53691 4.70876C6.53691 4.54748 6.66887 4.42046 6.83016 4.42046C6.99145 4.42046 7.12341 4.54748 7.12341 4.70876C7.12341 4.87005 6.99145 5.00201 6.83016 5.00201ZM8.10593 5.86231C7.94464 5.86231 7.81268 5.73035 7.81268 5.56906C7.81268 5.40778 7.94464 5.28076 8.10593 5.28076C8.26722 5.28076 8.39918 5.40778 8.39918 5.56906C8.39918 5.73035 8.26722 5.86231 8.10593 5.86231ZM10.5452 3.77993C10.3839 3.77993 10.2519 3.64797 10.2519 3.48668C10.2519 3.3254 10.3839 3.19838 10.5452 3.19838C10.7064 3.19838 10.8384 3.3254 10.8384 3.48668C10.8384 3.64796 10.7064 3.77993 10.5452 3.77993ZM11.5275 2.46017C11.5275 2.29888 11.6595 2.16692 11.8208 2.16692C11.987 2.16692 12.114 2.29888 12.114 2.46017C12.114 2.62145 11.987 2.74864 11.8208 2.74864C11.6595 2.74864 11.5275 2.62145 11.5275 2.46017ZM12.2022 4.23445C12.0409 4.23445 11.9089 4.1025 11.9089 3.94121C11.9089 3.77992 12.0409 3.65273 12.2022 3.65273C12.3635 3.65273 12.4954 3.77975 12.4954 3.94121C12.4954 4.10249 12.3635 4.23445 12.2022 4.23445ZM15.3795 4.67925C15.3795 4.51796 15.5065 4.386 15.6727 4.386C15.834 4.386 15.966 4.51796 15.966 4.67925C15.966 4.84053 15.834 4.96772 15.6727 4.96772C15.5065 4.96772 15.3795 4.84053 15.3795 4.67925ZM15.7656 6.26311C15.6043 6.26311 15.4724 6.13115 15.4724 5.96986C15.4724 5.80858 15.6043 5.67662 15.7656 5.67662C15.9269 5.67662 16.0589 5.80858 16.0589 5.96986C16.0589 6.13098 15.9269 6.26311 15.7656 6.26311ZM17.193 5.79868C17.0317 5.79868 16.8997 5.66672 16.8997 5.50543C16.8997 5.34414 17.0317 5.21218 17.193 5.21218C17.3543 5.21218 17.4862 5.34414 17.4862 5.50543C17.4862 5.66672 17.3543 5.79868 17.193 5.79868ZM14.006 13.8544C13.8544 14.4262 13.5073 14.4409 12.7545 14.3335C12.4026 14.2846 12.0898 14.2798 11.7036 14.3335C10.9509 14.4411 10.6038 14.4264 10.4522 13.8544C10.3252 13.3412 10.4572 12.7692 10.8237 12.2901C11.1903 11.816 11.7377 11.5081 12.2461 11.5031C12.7252 11.5081 13.2677 11.816 13.6345 12.2901C14.001 12.7692 14.1377 13.3363 14.006 13.8544ZM15.4088 10.6967C15.2915 10.5843 15.003 10.6331 14.788 10.8726C14.5681 11.1122 14.5485 11.4005 14.6658 11.513C14.788 11.6206 15.0715 11.5717 15.2915 11.3321C15.5114 11.0926 15.531 10.8043 15.4088 10.6967ZM15.4088 10.6967C15.2915 10.5843 15.003 10.6331 14.788 10.8726C14.5681 11.1122 14.5485 11.4005 14.6658 11.513C14.788 11.6206 15.0715 11.5717 15.2915 11.3321C15.5114 11.0926 15.531 10.8043 15.4088 10.6967ZM11.4592 9.64086C11.4005 9.34761 11.205 9.16674 11.0534 9.16674H11.0191C10.9165 9.18634 10.8579 9.28403 10.8285 9.33774C10.7699 9.45998 10.7552 9.61632 10.7895 9.77284C10.8481 10.0954 11.0681 10.2812 11.2293 10.2519C11.3908 10.2177 11.5228 9.96343 11.4592 9.64086ZM13.6099 9.33773C13.5855 9.28402 13.5269 9.18616 13.4242 9.16672H13.39C13.2335 9.16672 13.0381 9.34761 12.9842 9.64085C12.9745 9.6995 12.9695 9.7532 12.9695 9.80213C12.9695 10.0466 13.0819 10.2226 13.214 10.2519C13.3656 10.2812 13.5905 10.0954 13.6539 9.7728C13.6832 9.61646 13.6686 9.45997 13.6099 9.33773ZM15.4088 10.6967C15.2915 10.5843 15.003 10.6331 14.788 10.8726C14.5681 11.1122 14.5485 11.4005 14.6658 11.513C14.788 11.6206 15.0715 11.5717 15.2915 11.3321C15.5114 11.0926 15.531 10.8043 15.4088 10.6967ZM15.4088 10.6967C15.2915 10.5843 15.003 10.6331 14.788 10.8726C14.5681 11.1122 14.5485 11.4005 14.6658 11.513C14.788 11.6206 15.0715 11.5717 15.2915 11.3321C15.5114 11.0926 15.531 10.8043 15.4088 10.6967ZM11.4592 9.64086C11.4005 9.34761 11.205 9.16674 11.0534 9.16674H11.0191C10.9165 9.18634 10.8579 9.28403 10.8285 9.33774C10.7699 9.45998 10.7552 9.61632 10.7895 9.77284C10.8481 10.0954 11.0681 10.2812 11.2293 10.2519C11.3908 10.2177 11.5228 9.96349 11.4592 9.64093L11.4592 9.64086ZM13.6099 9.33773C13.5855 9.28402 13.5269 9.18616 13.4242 9.16672H13.39C13.2335 9.16672 13.0381 9.34761 12.9842 9.64085C12.9745 9.6995 12.9695 9.7532 12.9695 9.80213C12.9695 10.0466 13.0819 10.2226 13.214 10.2519C13.3656 10.2812 13.5905 10.0954 13.6539 9.7728C13.6832 9.61646 13.6686 9.45997 13.6099 9.33773ZM9.65552 10.8727C9.50889 10.7162 9.33772 10.6381 9.20099 10.6381C9.13262 10.6381 9.07397 10.6577 9.02981 10.6967C8.91252 10.8043 8.93212 11.0926 9.14711 11.3322C9.36705 11.5717 9.6555 11.6205 9.77282 11.5131C9.83147 11.4594 9.84613 11.3861 9.84613 11.3322C9.85585 11.1856 9.78253 11.0096 9.65552 10.8727ZM11.4591 9.64088C11.4005 9.34763 11.2049 9.16675 11.0534 9.16675H11.0191C10.9165 9.18636 10.8578 9.28405 10.8285 9.33776C10.7698 9.46 10.7552 9.61634 10.7894 9.77285C10.8481 10.0954 11.068 10.2812 11.2293 10.252C11.3908 10.2177 11.5227 9.96345 11.4591 9.64088ZM13.6099 9.33774C13.5855 9.28404 13.5268 9.18618 13.4242 9.16674H13.3899C13.2334 9.16674 13.038 9.34763 12.9842 9.64086C12.9744 9.69952 12.9695 9.75322 12.9695 9.80215C12.9695 10.0466 13.0819 10.2226 13.214 10.2519C13.3656 10.2812 13.5904 10.0954 13.6539 9.77282C13.6832 9.61648 13.6685 9.45999 13.6099 9.33774ZM15.4087 10.6967C15.2914 10.5844 15.003 10.6332 14.788 10.8727C14.568 11.1122 14.5484 11.4005 14.6657 11.5131C14.788 11.6206 15.0715 11.5717 15.2914 11.3322C15.5114 11.0926 15.531 10.8043 15.4087 10.6967ZM15.4087 10.6967C15.2914 10.5844 15.003 10.6332 14.788 10.8727C14.568 11.1122 14.5484 11.4005 14.6657 11.5131C14.788 11.6206 15.0715 11.5717 15.2914 11.3322C15.5114 11.0926 15.531 10.8043 15.4087 10.6967ZM9.65534 10.8727C9.50872 10.7162 9.33755 10.6381 9.20081 10.6381C9.13245 10.6381 9.0738 10.6577 9.02964 10.6967C8.91234 10.8043 8.93195 11.0926 9.14694 11.3322C9.36687 11.5717 9.65532 11.6205 9.77264 11.5131C9.83129 11.4594 9.84595 11.3861 9.84595 11.3322C9.85567 11.1856 9.78236 11.0096 9.65534 10.8727ZM11.459 9.64087C11.4003 9.34763 11.2048 9.16675 11.0532 9.16675H11.0189C10.9163 9.18636 10.8576 9.28405 10.8283 9.33775C10.7697 9.46 10.755 9.61634 10.7893 9.77285C10.8479 10.0954 11.0678 10.2812 11.2291 10.2519C11.3906 10.2177 11.5226 9.96344 11.459 9.64087ZM13.6097 9.33774C13.5853 9.28403 13.5267 9.18617 13.424 9.16674H13.3898C13.2332 9.16674 13.0379 9.34763 12.984 9.64086C12.9743 9.69951 12.9693 9.75321 12.9693 9.80214C12.9693 10.0466 13.0817 10.2226 13.2138 10.2519C13.3654 10.2812 13.5903 10.0954 13.6537 9.77281C13.683 9.61648 13.6683 9.45998 13.6097 9.33774ZM9.6553 10.8727C9.50867 10.7162 9.3375 10.6381 9.20077 10.6381C9.1324 10.6381 9.07375 10.6577 9.02959 10.6967C8.9123 10.8043 8.9319 11.0926 9.14689 11.3322C9.36683 11.5717 9.65528 11.6205 9.7726 11.5131C9.83125 11.4594 9.84591 11.386 9.84591 11.3322C9.85563 11.1855 9.78232 11.0096 9.6553 10.8727ZM11.4589 9.64086C11.4003 9.34761 11.2047 9.16674 11.0531 9.16674H11.0189C10.9162 9.18634 10.8576 9.28403 10.8283 9.33774C10.7696 9.45998 10.755 9.61632 10.7892 9.77284C10.8479 10.0954 11.0678 10.2812 11.2291 10.2519C11.3905 10.2177 11.5225 9.96343 11.4589 9.64086ZM13.6097 9.33773C13.5853 9.28402 13.5266 9.18616 13.424 9.16672H13.3897C13.2332 9.16672 13.0378 9.34761 12.9839 9.64085C12.9742 9.6995 12.9693 9.7532 12.9693 9.80213C12.9693 10.0466 13.0816 10.2226 13.2138 10.2519C13.3653 10.2812 13.5902 10.0954 13.6536 9.7728C13.683 9.61646 13.6683 9.45997 13.6097 9.33773ZM15.4085 10.6967C15.2912 10.5844 15.0027 10.6331 14.7877 10.8727C14.5678 11.1122 14.5482 11.4005 14.6655 11.513C14.7877 11.6206 15.0713 11.5717 15.2912 11.3322C15.5111 11.0926 15.5308 10.8043 15.4085 10.6967ZM15.4085 10.6967C15.2912 10.5844 15.0027 10.6331 14.7877 10.8727C14.5678 11.1122 14.5482 11.4005 14.6655 11.513C14.7877 11.6206 15.0713 11.5717 15.2912 11.3322C15.5111 11.0926 15.5308 10.8043 15.4085 10.6967ZM9.65512 10.8727C9.5085 10.7162 9.33733 10.6381 9.2006 10.6381C9.13223 10.6381 9.07358 10.6577 9.02942 10.6967C8.91212 10.8043 8.93173 11.0926 9.14672 11.3322C9.36665 11.5717 9.6551 11.6205 9.77242 11.5131C9.83108 11.4593 9.84574 11.386 9.84574 11.3322C9.85546 11.1855 9.78214 11.0096 9.65512 10.8727ZM11.4587 9.64086C11.4001 9.34761 11.2045 9.16673 11.053 9.16673H11.0187C10.9161 9.18634 10.8574 9.28403 10.8281 9.33774C10.7694 9.45998 10.7548 9.61632 10.789 9.77283C10.8477 10.0954 11.0676 10.2812 11.2289 10.2519C11.3904 10.2177 11.5223 9.96342 11.4587 9.64086ZM13.6095 9.33772C13.5851 9.28402 13.5264 9.18615 13.4238 9.16672H13.3895C13.233 9.16672 13.0376 9.34761 12.9838 9.64084C12.9741 9.69949 12.9691 9.7532 12.9691 9.80213C12.9691 10.0466 13.0815 10.2226 13.2136 10.2519C13.3652 10.2812 13.59 10.0954 13.6535 9.7728C13.6828 9.61646 13.6681 9.45997 13.6095 9.33772ZM9.65508 10.8727C9.50845 10.7161 9.33728 10.6381 9.20055 10.6381C9.13218 10.6381 9.07353 10.6577 9.02938 10.6967C8.91208 10.8043 8.93168 11.0926 9.14667 11.3322C9.36661 11.5717 9.65506 11.6205 9.77238 11.513C9.83103 11.4593 9.84569 11.386 9.84569 11.3322C9.85541 11.1855 9.7821 11.0095 9.65508 10.8727ZM11.4587 9.64084C11.4 9.3476 11.2045 9.16672 11.0529 9.16672H11.0187C10.916 9.18632 10.8574 9.28402 10.828 9.33772C10.7694 9.45997 10.7547 9.61631 10.789 9.77282C10.8477 10.0954 11.0676 10.2812 11.2289 10.2519C11.3903 10.2176 11.5223 9.96341 11.4587 9.64084ZM13.6094 9.33771C13.5851 9.284 13.5264 9.18614 13.4238 9.1667H13.3895C13.233 9.1667 13.0376 9.3476 12.9837 9.64083C12.974 9.69948 12.9691 9.75318 12.9691 9.80211C12.9691 10.0466 13.0814 10.2225 13.2136 10.2519C13.3651 10.2812 13.59 10.0954 13.6534 9.77278C13.6827 9.61645 13.6681 9.45995 13.6094 9.33771ZM15.4083 10.6967C15.291 10.5844 15.0025 10.6331 14.7875 10.8727C14.5676 11.1122 14.548 11.4005 14.6653 11.513C14.7875 11.6206 15.071 11.5717 15.291 11.3321C15.5109 11.0926 15.5305 10.8043 15.4083 10.6967ZM15.4083 10.6967C15.291 10.5844 15.0025 10.6331 14.7875 10.8727C14.5676 11.1122 14.548 11.4005 14.6653 11.513C14.7875 11.6206 15.071 11.5717 15.291 11.3321C15.5109 11.0926 15.5305 10.8043 15.4083 10.6967ZM9.6549 10.8727C9.50828 10.7161 9.33711 10.6381 9.20038 10.6381C9.13201 10.6381 9.07336 10.6577 9.0292 10.6967C8.9119 10.8043 8.93151 11.0926 9.1465 11.3321C9.36644 11.5717 9.65489 11.6205 9.77221 11.513C9.83086 11.4593 9.84552 11.386 9.84552 11.3321C9.85524 11.1855 9.78192 11.0095 9.6549 10.8727ZM11.4585 9.64084C11.3999 9.34759 11.2043 9.16671 11.0528 9.16671H11.0185C10.9158 9.18632 10.8572 9.28401 10.8279 9.33772C10.7692 9.45996 10.7546 9.6163 10.7888 9.77281C10.8475 10.0954 11.0674 10.2812 11.2287 10.2519C11.3901 10.2176 11.5221 9.96341 11.4585 9.64084ZM13.6093 9.3377C13.5849 9.284 13.5262 9.18614 13.4236 9.1667H13.3893C13.2328 9.1667 13.0374 9.34759 12.9836 9.64083C12.9738 9.69948 12.9689 9.75318 12.9689 9.80211C12.9689 10.0466 13.0812 10.2225 13.2134 10.2519C13.3649 10.2812 13.5898 10.0954 13.6532 9.77278C13.6826 9.61644 13.6679 9.45995 13.6093 9.3377ZM9.65486 10.8726C9.50824 10.7161 9.33707 10.638 9.20033 10.638C9.13197 10.638 9.07332 10.6577 9.02916 10.6967C8.91186 10.8043 8.93147 11.0926 9.14646 11.3321C9.36639 11.5717 9.65484 11.6204 9.77216 11.513C9.83081 11.4593 9.84547 11.386 9.84547 11.3321C9.85519 11.1855 9.78188 11.0095 9.65486 10.8726ZM11.4585 9.64083C11.3998 9.34758 11.2043 9.1667 11.0527 9.1667H11.0184C10.9158 9.18631 10.8572 9.284 10.8278 9.3377C10.7692 9.45995 10.7545 9.61629 10.7888 9.7728C10.8474 10.0954 11.0674 10.2812 11.2287 10.2519C11.3901 10.2176 11.5221 9.96339 11.4585 9.64083ZM13.6092 9.33769C13.5848 9.28399 13.5262 9.18612 13.4235 9.16669H13.3893C13.2328 9.16669 13.0374 9.34758 12.9835 9.64081C12.9738 9.69946 12.9688 9.75317 12.9688 9.8021C12.9688 10.0466 13.0812 10.2225 13.2133 10.2519C13.3649 10.2812 13.5898 10.0954 13.6532 9.77277C13.6825 9.61643 13.6679 9.45993 13.6092 9.33769ZM15.4081 10.6967C15.2908 10.5843 15.0023 10.6331 14.7873 10.8726C14.5674 11.1122 14.5478 11.4005 14.6651 11.513C14.7873 11.6206 15.0708 11.5717 15.2908 11.3321C15.5107 11.0926 15.5303 10.8043 15.4081 10.6967ZM15.4081 10.6967C15.2908 10.5843 15.0023 10.6331 14.7873 10.8726C14.5674 11.1122 14.5478 11.4005 14.6651 11.513C14.7873 11.6206 15.0708 11.5717 15.2908 11.3321C15.5107 11.0926 15.5303 10.8043 15.4081 10.6967ZM9.65469 10.8726C9.50806 10.7161 9.33689 10.638 9.20016 10.638C9.13179 10.638 9.07314 10.6576 9.02898 10.6967C8.91169 10.8043 8.93129 11.0926 9.14628 11.3321C9.36622 11.5717 9.65467 11.6204 9.77199 11.513C9.83064 11.4593 9.8453 11.386 9.8453 11.3321C9.85502 11.1855 9.7817 11.0095 9.65469 10.8726ZM11.4583 9.64082C11.3997 9.34757 11.2041 9.1667 11.0525 9.1667H11.0183C10.9156 9.1863 10.857 9.28399 10.8277 9.3377C10.769 9.45994 10.7543 9.61628 10.7886 9.7728C10.8473 10.0954 11.0672 10.2812 11.2285 10.2519C11.3899 10.2176 11.5219 9.96339 11.4583 9.64082ZM13.609 9.33769C13.5847 9.28398 13.526 9.18612 13.4234 9.16668H13.3891C13.2326 9.16668 13.0372 9.34757 12.9833 9.64081C12.9736 9.69946 12.9687 9.75316 12.9687 9.80209C12.9687 10.0466 13.081 10.2225 13.2132 10.2519C13.3647 10.2812 13.5896 10.0954 13.653 9.77276C13.6823 9.61642 13.6677 9.45993 13.609 9.33769ZM24.4118 14.7585L22.7449 8.08156C22.6619 7.74433 22.3588 7.50971 22.0166 7.50971H2.42528C2.07816 7.50971 1.78015 7.74431 1.69692 8.08156L0.0300453 14.7585C-0.126464 15.389 0.347839 16 1.00287 16H23.439C24.0891 16.0002 24.5681 15.3891 24.4116 14.7585H24.4118ZM12.4066 9.52842C12.5288 8.90271 13.0224 8.49218 13.5358 8.59479C13.7947 8.64372 14.0099 8.81967 14.1369 9.08358C14.2542 9.31818 14.2835 9.60663 14.2298 9.89016C14.1175 10.4523 13.7068 10.8384 13.2522 10.8384C13.1985 10.8384 13.1496 10.8335 13.0957 10.8238C12.5875 10.7259 12.2843 10.154 12.4066 9.52842ZM10.2998 9.08345C10.4268 8.81953 10.6468 8.64359 10.9009 8.59466C11.4191 8.49202 11.9128 8.90257 12.035 9.52829C12.0546 9.62121 12.0644 9.71412 12.0644 9.8021C12.0644 10.3153 11.7759 10.7407 11.341 10.8237C11.292 10.8334 11.2383 10.8383 11.1894 10.8383C10.7349 10.8383 10.3194 10.4522 10.2118 9.89004C10.1532 9.60651 10.1875 9.31818 10.2998 9.08345ZM8.71613 11.728C8.28598 11.2586 8.25169 10.6135 8.63787 10.2615C9.01909 9.90964 9.65944 10.0073 10.0896 10.4767C10.3096 10.7162 10.4318 11.0192 10.4318 11.3124V11.3614C10.4221 11.591 10.3242 11.8012 10.1679 11.9431C10.0114 12.0847 9.81103 12.1582 9.60082 12.1582C9.29786 12.1581 8.97036 12.0067 8.71613 11.728ZM14.5721 13.996V14.0009C14.3619 14.8026 13.8095 14.9688 13.2866 14.9688C13.0666 14.9688 12.8515 14.9395 12.6708 14.915C12.3286 14.866 12.094 14.871 11.7861 14.915C11.1897 14.998 10.1828 15.1448 9.88461 14.001C9.70867 13.3069 9.87984 12.5542 10.3587 11.9333C10.8378 11.3125 11.5466 10.9214 12.2064 10.9164C12.9103 10.9214 13.619 11.3123 14.0981 11.9333C14.5771 12.5542 14.7481 13.3069 14.5721 13.996ZM15.7256 11.728C15.4714 12.0065 15.1439 12.1581 14.836 12.1581C14.6258 12.1581 14.4302 12.0848 14.2739 11.9429C13.8877 11.5958 13.922 10.9507 14.3522 10.4765C14.6064 10.1979 14.9339 10.0513 15.2418 10.0513C15.452 10.0513 15.6476 10.1197 15.8039 10.2615C16.1901 10.6134 16.156 11.2588 15.7256 11.728ZM14.7873 10.8726C14.5673 11.1121 14.5477 11.4004 14.665 11.513C14.7873 11.6205 15.0708 11.5716 15.2907 11.3321C15.5107 11.0925 15.5303 10.804 15.408 10.6966C15.2907 10.5843 15.0023 10.633 14.7873 10.8726ZM13.2133 10.2518C13.3649 10.2811 13.5897 10.0953 13.6532 9.77271C13.6825 9.6162 13.6678 9.45985 13.6092 9.33761C13.5848 9.2839 13.5262 9.18604 13.4235 9.1666H13.3892C13.2327 9.1666 13.0374 9.3475 12.9835 9.64073C12.9738 9.69938 12.9688 9.75308 12.9688 9.80201C12.9688 10.0465 13.0813 10.2225 13.2133 10.2518ZM11.2286 10.2518C11.3899 10.2175 11.5218 9.96333 11.4584 9.64076C11.3998 9.34752 11.2042 9.16664 11.0526 9.16664H11.0184C10.9157 9.18625 10.8571 9.28394 10.8278 9.33764C10.7691 9.45989 10.7545 9.61623 10.7887 9.77274C10.8474 10.0953 11.0673 10.2811 11.2286 10.2518ZM9.20007 10.638C9.1317 10.638 9.07305 10.6576 9.0289 10.6966C8.9116 10.8042 8.9312 11.0925 9.1462 11.3321C9.36613 11.5716 9.65458 11.6204 9.7719 11.513C9.83055 11.4592 9.84521 11.3859 9.84521 11.3321C9.85493 11.1854 9.78162 11.0095 9.6546 10.8726C9.50798 10.7163 9.33698 10.638 9.20007 10.638ZM13.6092 9.33761C13.5848 9.2839 13.5262 9.18604 13.4235 9.1666H13.3892C13.2327 9.1666 13.0374 9.3475 12.9835 9.64073C12.9738 9.69938 12.9688 9.75308 12.9688 9.80201C12.9688 10.0465 13.0812 10.2225 13.2133 10.2518C13.3649 10.2811 13.5897 10.0953 13.6532 9.77271C13.6825 9.61637 13.6678 9.45985 13.6092 9.33761ZM11.4584 9.64076C11.3998 9.34752 11.2042 9.16664 11.0526 9.16664H11.0184C10.9157 9.18625 10.8571 9.28394 10.8278 9.33764C10.7691 9.45989 10.7545 9.61623 10.7887 9.77274C10.8474 10.0953 11.0673 10.2811 11.2286 10.2518C11.3901 10.2175 11.522 9.96333 11.4584 9.64076ZM9.65482 10.8726C9.50819 10.7161 9.33702 10.638 9.20029 10.638C9.13192 10.638 9.07327 10.6576 9.02912 10.6966C8.91182 10.8042 8.93142 11.0925 9.14641 11.3321C9.36635 11.5716 9.6548 11.6204 9.77212 11.513C9.83077 11.4593 9.84543 11.3859 9.84543 11.3321C9.85515 11.1854 9.78184 11.0095 9.65482 10.8726ZM15.4082 10.6966C15.2909 10.5843 15.0024 10.633 14.7874 10.8726C14.5675 11.1121 14.5479 11.4004 14.6652 11.513C14.7874 11.6205 15.071 11.5716 15.2909 11.3321C15.5108 11.0925 15.5304 10.8042 15.4082 10.6966ZM15.4082 10.6966C15.2909 10.5843 15.0024 10.633 14.7874 10.8726C14.5675 11.1121 14.5479 11.4004 14.6652 11.513C14.7874 11.6205 15.071 11.5716 15.2909 11.3321C15.5108 11.0925 15.5304 10.8042 15.4082 10.6966ZM13.6093 9.33764C13.585 9.28393 13.5263 9.18607 13.4237 9.16663H13.3894C13.2329 9.16663 13.0375 9.34752 12.9836 9.64075C12.9739 9.69941 12.969 9.75311 12.969 9.80204C12.969 10.0465 13.0813 10.2225 13.2135 10.2518C13.365 10.2811 13.5899 10.0953 13.6533 9.77271C13.6827 9.61637 13.668 9.45988 13.6093 9.33764ZM11.4586 9.64077C11.4 9.34752 11.2044 9.16664 11.0528 9.16664H11.0186C10.9159 9.18625 10.8573 9.28394 10.828 9.33765C10.7693 9.45989 10.7546 9.61623 10.7889 9.77274C10.8476 10.0953 11.0675 10.2811 11.2288 10.2518C11.3902 10.2176 11.5222 9.96334 11.4586 9.64077ZM9.65499 10.8726C9.50837 10.7161 9.3372 10.638 9.20046 10.638C9.1321 10.638 9.07345 10.6576 9.02929 10.6966C8.91199 10.8042 8.9316 11.0925 9.14659 11.3321C9.36652 11.5716 9.65497 11.6204 9.77229 11.513C9.83095 11.4593 9.84561 11.386 9.84561 11.3321C9.85532 11.1855 9.78201 11.0095 9.65499 10.8726ZM13.6094 9.33765C13.585 9.28394 13.5264 9.18608 13.4237 9.16664H13.3895C13.2329 9.16664 13.0376 9.34753 12.9837 9.64077C12.974 9.69942 12.969 9.75312 12.969 9.80205C12.969 10.0465 13.0814 10.2225 13.2135 10.2518C13.3651 10.2811 13.59 10.0953 13.6534 9.77272C13.6827 9.61638 13.668 9.45989 13.6094 9.33765ZM11.4587 9.64078C11.4 9.34753 11.2045 9.16666 11.0529 9.16666H11.0186C10.916 9.18626 10.8573 9.28395 10.828 9.33766C10.7694 9.4599 10.7547 9.61624 10.789 9.77276C10.8476 10.0953 11.0675 10.2811 11.2288 10.2519C11.3903 10.2176 11.5223 9.96335 11.4587 9.64078ZM9.65503 10.8726C9.50841 10.7161 9.33724 10.638 9.20051 10.638C9.13214 10.638 9.07349 10.6576 9.02933 10.6967C8.91204 10.8042 8.93164 11.0925 9.14663 11.3321C9.36657 11.5716 9.65502 11.6204 9.77234 11.513C9.83099 11.4593 9.84565 11.386 9.84565 11.3321C9.85537 11.1855 9.78205 11.0095 9.65503 10.8726ZM15.4084 10.6967C15.2911 10.5843 15.0027 10.6331 14.7877 10.8726C14.5677 11.1121 14.5481 11.4004 14.6654 11.513C14.7876 11.6205 15.0712 11.5716 15.2911 11.3321C15.511 11.0925 15.5307 10.8042 15.4084 10.6967ZM15.4084 10.6967C15.2911 10.5843 15.0027 10.6331 14.7877 10.8726C14.5677 11.1121 14.5481 11.4004 14.6654 11.513C14.7876 11.6205 15.0712 11.5716 15.2911 11.3321C15.511 11.0925 15.5307 10.8042 15.4084 10.6967ZM13.6096 9.33765C13.5852 9.28395 13.5265 9.18608 13.4239 9.16665H13.3896C13.2331 9.16665 13.0377 9.34754 12.9839 9.64077C12.9741 9.69942 12.9692 9.75313 12.9692 9.80206C12.9692 10.0465 13.0815 10.2225 13.2137 10.2518C13.3653 10.2812 13.5901 10.0953 13.6535 9.77273C13.6829 9.61639 13.6682 9.4599 13.6096 9.33765ZM11.4588 9.64079C11.4002 9.34754 11.2046 9.16666 11.0531 9.16666H11.0188C10.9162 9.18627 10.8575 9.28396 10.8282 9.33767C10.7695 9.45991 10.7549 9.61625 10.7891 9.77276C10.8478 10.0953 11.0677 10.2811 11.229 10.2519C11.3905 10.2176 11.5224 9.96335 11.4588 9.64079ZM9.65521 10.8726C9.50859 10.7161 9.33742 10.638 9.20068 10.638C9.13232 10.638 9.07366 10.6576 9.02951 10.6967C8.91221 10.8042 8.93182 11.0925 9.14681 11.3321C9.36674 11.5716 9.65519 11.6204 9.77251 11.513C9.83116 11.4593 9.84582 11.386 9.84582 11.3321C9.85554 11.1855 9.78223 11.0095 9.65521 10.8726ZM13.6096 9.33767C13.5852 9.28396 13.5266 9.1861 13.4239 9.16666H13.3897C13.2332 9.16666 13.0378 9.34755 12.9839 9.64079C12.9742 9.69944 12.9692 9.75314 12.9692 9.80207C12.9692 10.0466 13.0816 10.2225 13.2137 10.2518C13.3653 10.2812 13.5902 10.0953 13.6536 9.77274C13.6829 9.6164 13.6683 9.45991 13.6096 9.33767ZM11.4589 9.6408C11.4002 9.34755 11.2047 9.16667 11.0531 9.16667H11.0188C10.9162 9.18628 10.8575 9.28397 10.8282 9.33768C10.7696 9.45992 10.7549 9.61626 10.7892 9.77278C10.8478 10.0953 11.0678 10.2812 11.229 10.2519C11.3905 10.2176 11.5225 9.96337 11.4589 9.6408ZM9.65525 10.8726C9.50863 10.7161 9.33746 10.638 9.20073 10.638C9.13236 10.638 9.07371 10.6576 9.02955 10.6967C8.91225 10.8042 8.93186 11.0925 9.14685 11.3321C9.36678 11.5716 9.65524 11.6204 9.77256 11.513C9.83121 11.4593 9.84587 11.386 9.84587 11.3321C9.85559 11.1855 9.78227 11.0095 9.65525 10.8726ZM15.4086 10.6967C15.2913 10.5843 15.0029 10.6331 14.7879 10.8726C14.5679 11.1122 14.5483 11.4005 14.6656 11.513C14.7879 11.6206 15.0714 11.5716 15.2913 11.3321C15.5113 11.0926 15.5309 10.8043 15.4086 10.6967ZM15.4086 10.6967C15.2913 10.5843 15.0029 10.6331 14.7879 10.8726C14.5679 11.1122 14.5483 11.4005 14.6656 11.513C14.7879 11.6206 15.0714 11.5716 15.2913 11.3321C15.5113 11.0926 15.5309 10.8043 15.4086 10.6967ZM13.6098 9.33767C13.5854 9.28396 13.5268 9.1861 13.4241 9.16667H13.3898C13.2333 9.16667 13.038 9.34756 12.9841 9.64079C12.9744 9.69944 12.9694 9.75314 12.9694 9.80207C12.9694 10.0466 13.0818 10.2225 13.2139 10.2518C13.3655 10.2812 13.5903 10.0953 13.6538 9.77274C13.6831 9.61641 13.6684 9.45991 13.6098 9.33767ZM11.459 9.6408C11.4004 9.34756 11.2048 9.16668 11.0533 9.16668H11.019C10.9164 9.18629 10.8577 9.28398 10.8284 9.33768C10.7697 9.45993 10.7551 9.61627 10.7894 9.77278C10.848 10.0953 11.0679 10.2812 11.2292 10.2519C11.3907 10.2176 11.5226 9.96337 11.459 9.6408ZM9.65543 10.8726C9.5088 10.7161 9.33763 10.638 9.2009 10.638C9.13253 10.638 9.07388 10.6576 9.02973 10.6967C8.91243 10.8043 8.93203 11.0926 9.14702 11.3321C9.36696 11.5717 9.65541 11.6204 9.77273 11.513C9.83138 11.4593 9.84604 11.386 9.84604 11.3321C9.85576 11.1855 9.78245 11.0095 9.65543 10.8726ZM13.6098 9.33768C13.5854 9.28398 13.5268 9.18611 13.4242 9.16668H13.3899C13.2334 9.16668 13.038 9.34757 12.9841 9.6408C12.9744 9.69946 12.9695 9.75316 12.9695 9.80209C12.9695 10.0466 13.0818 10.2225 13.2139 10.2519C13.3655 10.2812 13.5904 10.0953 13.6538 9.77276C13.6831 9.61642 13.6685 9.45993 13.6098 9.33768ZM11.4591 9.64082C11.4004 9.34757 11.2049 9.16669 11.0533 9.16669H11.0191C10.9164 9.1863 10.8578 9.28399 10.8284 9.3377C10.7698 9.45994 10.7551 9.61628 10.7894 9.77279C10.8481 10.0954 11.068 10.2812 11.2293 10.2519C11.3907 10.2176 11.5227 9.96338 11.4591 9.64082ZM9.65547 10.8726C9.50885 10.7161 9.33768 10.638 9.20094 10.638C9.13258 10.638 9.07393 10.6576 9.02977 10.6967C8.91247 10.8043 8.93208 11.0926 9.14707 11.3321C9.367 11.5717 9.65545 11.6204 9.77277 11.513C9.83142 11.4593 9.84609 11.386 9.84609 11.3321C9.8558 11.1855 9.78249 11.0095 9.65547 10.8726ZM15.4089 10.6967C15.2916 10.5843 15.0031 10.6331 14.7881 10.8726C14.5682 11.1122 14.5485 11.4005 14.6658 11.513C14.7881 11.6206 15.0716 11.5717 15.2915 11.3321C15.5115 11.0926 15.5311 10.8043 15.4089 10.6967ZM15.4089 10.6967C15.2916 10.5843 15.0031 10.6331 14.7881 10.8726C14.5682 11.1122 14.5485 11.4005 14.6658 11.513C14.7881 11.6206 15.0716 11.5717 15.2915 11.3321C15.5115 11.0926 15.5311 10.8043 15.4089 10.6967ZM13.61 9.33769C13.5856 9.28398 13.527 9.18612 13.4243 9.16668H13.3901C13.2336 9.16668 13.0382 9.34757 12.9843 9.64081C12.9746 9.69946 12.9696 9.75316 12.9696 9.80209C12.9696 10.0466 13.082 10.2225 13.2141 10.2519C13.3657 10.2812 13.5906 10.0954 13.654 9.77276C13.6833 9.61642 13.6686 9.45993 13.61 9.33769ZM11.4593 9.64082C11.4006 9.34757 11.2051 9.1667 11.0535 9.1667H11.0192C10.9166 9.1863 10.8579 9.28399 10.8286 9.3377C10.77 9.45994 10.7553 9.61628 10.7896 9.7728C10.8482 10.0954 11.0682 10.2812 11.2294 10.2519C11.3909 10.2176 11.5229 9.96339 11.4593 9.64082ZM9.65565 10.8726C9.50902 10.7161 9.33785 10.638 9.20112 10.638C9.13275 10.638 9.0741 10.6576 9.02994 10.6967C8.91265 10.8043 8.93225 11.0926 9.14724 11.3321C9.36718 11.5717 9.65563 11.6204 9.77295 11.513C9.8316 11.4593 9.84626 11.386 9.84626 11.3321C9.85598 11.1855 9.78266 11.0095 9.65565 10.8726ZM13.61 9.3377C13.5857 9.28399 13.527 9.18613 13.4244 9.1667H13.3901C13.2336 9.1667 13.0382 9.34759 12.9843 9.64082C12.9746 9.69947 12.9697 9.75317 12.9697 9.8021C12.9697 10.0466 13.082 10.2225 13.2142 10.2519C13.3657 10.2812 13.5906 10.0954 13.654 9.77278C13.6833 9.61644 13.6687 9.45994 13.61 9.3377ZM15.4089 10.6967C15.2916 10.5843 15.0031 10.6331 14.7881 10.8726C14.5682 11.1122 14.5486 11.4005 14.6659 11.513C14.7881 11.6206 15.0717 11.5717 15.2916 11.3321C15.5115 11.0926 15.5311 10.8043 15.4089 10.6967ZM15.4089 10.6967C15.2916 10.5843 15.0031 10.6331 14.7881 10.8726C14.5682 11.1122 14.5486 11.4005 14.6659 11.513C14.7881 11.6206 15.0717 11.5717 15.2916 11.3321C15.5115 11.0926 15.5311 10.8043 15.4089 10.6967ZM13.61 9.3377C13.5857 9.28399 13.527 9.18613 13.4244 9.1667H13.3901C13.2336 9.1667 13.0382 9.34759 12.9843 9.64082C12.9746 9.69947 12.9697 9.75317 12.9697 9.8021C12.9697 10.0466 13.082 10.2225 13.2142 10.2519C13.3657 10.2812 13.5906 10.0954 13.654 9.77278C13.6833 9.61644 13.6687 9.45994 13.61 9.3377Z" fill="white"/>
</svg>
