<svg width="281" height="412" viewBox="0 0 281 412" fill="none" xmlns="http://www.w3.org/2000/svg">
<path d="M238.031 106.821C238.522 108.912 232.093 112.212 223.672 114.19C215.253 116.165 208.028 116.071 207.534 113.977C207.044 111.883 213.472 108.584 221.893 106.609C230.315 104.63 237.541 104.727 238.031 106.821Z" fill="black"/>
<path d="M179.176 99.453C186.438 104.153 191.379 109.425 190.21 111.231C189.041 113.038 182.21 110.691 174.948 105.991C167.685 101.294 162.745 96.0187 163.913 94.2155C165.079 92.4093 171.913 94.7561 179.176 99.453Z" fill="black"/>
<path d="M277.671 123.077L249.033 124.574C252.774 119.039 255.645 112.896 257.392 106.246C261.308 91.3459 259.164 76.2835 252.58 63.5739C252.586 63.3395 252.667 63.1239 252.642 62.8864L247.589 17.2304C247.377 15.3148 246.055 13.7022 244.22 13.1148C242.383 12.5335 240.37 13.071 239.089 14.5117L220.711 35.0709C218.767 34.3365 216.77 33.6865 214.717 33.149C207.932 31.3678 201.117 30.899 194.495 31.4646L172.864 1.99583C171.733 0.455192 169.802 -0.291688 167.927 0.105192C166.052 0.495816 164.58 1.94271 164.158 3.81455L153.099 52.9866C153.071 53.1084 153.108 53.2241 153.089 53.3491C147.864 59.7615 143.852 67.3242 141.617 75.8307C140.48 80.1588 139.886 84.5338 139.72 88.8962L124.792 78.5994C123.708 77.8526 122.211 78.1245 121.458 79.2151C120.708 80.3026 120.98 81.7964 122.074 82.5495L139.792 94.7711C140.005 98.2336 140.476 101.671 141.292 105.043L114.826 91.6959C113.655 91.1084 112.205 91.574 111.605 92.7584C111.011 93.9428 111.483 95.3833 112.667 95.9802L143.249 111.402C144.458 114.724 145.939 117.971 147.752 121.092L112.33 109.276C111.086 108.857 109.718 109.536 109.296 110.795C108.877 112.051 109.555 113.407 110.814 113.829L152.218 127.639C152.771 128.358 153.33 129.067 153.915 129.758C152.474 134.755 149.186 144.461 144.793 153.039C133.852 174.392 125.487 207.489 127.265 239.967C127.231 240.167 127.127 240.339 127.115 240.549C127.087 241.039 124.052 289.704 94.5494 314.549C80.343 326.511 61.115 328.505 44.1494 330.264C24.9742 332.252 6.86217 334.127 1.19017 350.637C-2.20671 360.512 1.72454 370.884 12.2558 379.843C24.8838 390.59 46.3838 398.627 64.3342 398.627C71.3591 398.627 77.8406 397.396 83.0342 394.614C87.7623 392.08 90.0655 388.914 89.8779 385.205C89.5092 377.905 79.7307 373.877 67.3499 368.78C62.4062 366.746 54.5659 363.518 51.7187 361.261C52.2406 360.927 53.0125 360.502 54.1343 360.008C59.3968 357.683 65.6903 355.833 72.3503 353.871C96.4975 346.764 128.506 337.315 139.563 294.058C144.979 316.579 148.907 345.848 142.429 351.705C138.926 354.88 136.138 357.055 133.904 358.802C127.348 363.921 124.279 366.789 126.004 376.086C127.629 384.836 137.87 386.833 146.863 386.833C150.413 386.833 153.754 386.524 156.31 386.196C153.285 389.068 151.004 392.099 151.054 395.968C151.095 399.386 152.948 402.515 156.723 405.53C162.467 410.127 172.754 411.855 182.429 411.855C190.429 411.855 198.008 410.671 202.248 408.949C202.879 408.693 203.391 408.389 203.929 408.096C204.201 408.252 204.445 408.411 204.751 408.561C208.848 410.546 216.929 411.88 225.476 411.88C235.292 411.88 245.725 410.114 251.454 405.53C255.226 402.514 257.079 399.389 257.123 395.968C257.166 392.38 255.204 389.511 252.504 386.82C252.738 386.824 252.97 386.833 253.207 386.833C262.21 386.833 272.441 384.833 274.066 376.092C275.788 366.795 272.716 363.92 266.166 358.808C263.932 357.058 261.144 354.886 257.641 351.711C250.979 345.686 255.126 312.527 262.791 285.255C262.976 284.593 263.01 283.927 262.926 283.29C264.22 279.246 265.457 275.321 266.598 271.565C277.507 235.624 271.082 193.271 259.482 164.245L269.66 168.273C269.948 168.385 270.251 168.442 270.545 168.442C271.501 168.442 272.404 167.867 272.776 166.923C273.261 165.692 272.661 164.298 271.426 163.807L256.823 158.026C256.042 156.311 255.245 154.635 254.432 153.048C252.895 150.042 251.592 147.226 250.401 144.501L275.695 149.41C275.851 149.438 276.004 149.454 276.157 149.454C277.282 149.454 278.285 148.654 278.51 147.51C278.76 146.21 277.913 144.948 276.61 144.698L248.201 139.185C246.876 135.676 245.935 132.491 245.304 129.579L277.92 127.872C279.245 127.801 280.26 126.673 280.192 125.351C280.12 124.026 278.86 123.032 277.673 123.079L277.671 123.077ZM239.074 29.181L241.174 48.1434C237.792 44.8465 233.996 41.9497 229.846 39.5026L239.074 29.181ZM171.339 16.4282L183.771 33.3658C177.28 35.1502 171.155 38.0002 165.636 41.7874L171.339 16.4282ZM157.887 118.788L174.259 127.044C174.602 127.216 174.974 127.3 175.34 127.3C176.215 127.3 177.059 126.816 177.484 125.979C178.077 124.794 177.605 123.354 176.421 122.757L153.743 111.319C152.436 108.391 151.415 105.372 150.702 102.291L177.98 121.107C178.393 121.392 178.868 121.532 179.337 121.532C180.099 121.532 180.849 121.167 181.315 120.492C182.065 119.404 181.793 117.91 180.699 117.157L149.683 95.7635C149.136 89.9823 149.552 84.0947 151.071 78.3108C156.971 55.8515 177.315 40.9515 199.524 40.9515C203.724 40.9515 207.989 41.4828 212.236 42.5984C225.174 45.9984 236.012 54.236 242.755 65.7856C249.502 77.3384 251.345 90.8264 247.945 103.764C245.799 111.933 241.717 119.254 236.098 125.248L217.639 126.214C216.314 126.286 215.298 127.414 215.367 128.735C215.436 130.017 216.495 131.011 217.761 131.011C217.805 131.011 217.848 131.007 217.889 131.007L230.455 130.351C228.648 131.767 226.777 133.111 224.761 134.289C224.605 134.379 224.436 134.448 224.28 134.539L217.92 133.304C216.62 133.073 215.364 133.907 215.108 135.204C214.867 136.464 215.664 137.667 216.895 137.973C211.611 139.942 206.083 140.998 200.483 141.098L201.073 136.242L212.192 128.657C213.832 127.539 214.254 125.301 213.135 123.66C212.02 122.02 209.776 121.589 208.138 122.717L198.117 129.551L190.379 121.917C188.97 120.523 186.686 120.535 185.295 121.954C183.898 123.367 183.914 125.642 185.332 127.039L193.916 135.507L193.285 140.689C191.11 140.411 188.941 140.045 186.788 139.479C182.216 138.276 177.923 136.442 173.963 134.101C174.492 133.823 174.932 133.373 175.135 132.76C175.554 131.504 174.876 130.148 173.617 129.726L164.317 126.623C161.926 124.254 159.779 121.635 157.885 118.789L157.887 118.788ZM69.5985 344.5C62.6267 346.55 56.0393 348.491 50.1985 351.066C47.9517 352.056 41.1169 355.072 41.1953 361.184C41.2891 368.616 51.1513 372.671 63.6329 377.815C68.6329 379.875 76.5834 383.15 79.3986 385.425C79.1423 385.594 78.8204 385.787 78.4204 386C65.3364 393.003 34.5924 386.012 18.586 372.4C13.4516 368.028 7.86757 361.262 10.43 353.816C13.9018 343.716 25.8892 341.981 45.1548 339.985C63.5236 338.082 84.3388 335.922 100.842 322.025C118.211 307.397 127.26 286.081 131.945 268.991C132.183 269.844 132.373 270.716 132.63 271.563C132.817 272.182 133.07 272.863 133.267 273.491C133.217 273.704 133.098 273.888 133.076 274.113C128.051 327.294 96.9986 336.435 69.5985 344.5ZM135.617 374.307C134.895 370.428 134.895 370.428 139.92 366.507C142.154 364.757 145.223 362.363 148.992 358.957C154.561 353.919 155.951 343.073 155.389 331.025C161.201 345.578 167.148 361.481 168.333 369.997C166.099 373.801 162.145 375.354 158.502 375.976C147.68 377.941 136.13 377.085 135.618 374.307L135.617 374.307ZM260.153 366.504C265.178 370.428 265.178 370.428 264.459 374.307C263.94 377.085 252.556 378.169 241.738 376.207C241.441 376.154 241.234 376.157 240.709 376C240.566 375.841 240.4 375.707 240.259 375.544C237.45 372.3 240.284 357.975 244.781 341.495C245.359 349.095 247.2 355.445 251.084 358.957C254.856 362.366 257.919 364.76 260.153 366.504ZM257.247 268.72C254.79 276.813 251.903 285.667 248.85 295.048C233.332 342.672 224.509 372.288 232.875 381.944C235.74 385.247 238.872 387.884 241.634 390.209C243.809 392.04 247.096 394.806 247.365 395.744C247.362 395.753 247.137 396.475 245.353 397.9C237.89 403.865 215.128 402.497 209.434 400.003C209.522 369.275 208.191 270.675 208.175 269.659C208.137 266.987 205.959 264.843 203.291 264.843H203.222C200.525 264.881 198.369 267.096 198.406 269.796C198.419 270.793 199.722 367.252 199.666 398.964C199.512 399.186 199.328 399.386 199.212 399.636C194.531 402.343 170.584 404.111 162.828 397.899C161.232 396.624 160.882 395.908 160.828 395.908C161.141 394.761 164.388 392.027 166.544 390.208C169.307 387.883 172.438 385.246 175.303 381.943C182.735 373.367 174.481 351.843 159.25 314.53C154.888 303.843 150.444 292.927 146.726 282.736C146.713 282.695 146.701 282.646 146.688 282.605C146.679 282.577 146.657 282.558 146.651 282.53C144.904 277.73 143.304 273.077 141.982 268.717C130.363 230.427 139.801 184.221 153.488 157.493C157.013 150.615 159.87 143.075 161.747 137.427C168.285 142.752 175.9 146.711 184.3 148.918C187.785 149.833 191.3 150.408 194.819 150.693C195.091 150.799 195.35 150.934 195.653 150.968C195.797 150.984 195.947 150.993 196.091 150.993C196.409 150.993 196.703 150.902 197 150.824C197.869 150.862 198.738 150.909 199.606 150.909C205.925 150.909 212.188 149.88 218.203 147.887L246.509 159.093C259.769 186.034 268.65 231.159 257.247 268.717L257.247 268.72ZM243.434 152.72L224.693 145.301C226.384 144.513 228.056 143.673 229.687 142.723C230.606 142.185 231.462 141.573 232.346 140.991L238.934 142.27C240.152 145.541 241.696 149.057 243.434 152.72Z" fill="black"/>
</svg>
