<svg width="25" height="19" viewBox="0 0 25 19" fill="none" xmlns="http://www.w3.org/2000/svg">
<path fill-rule="evenodd" clip-rule="evenodd" d="M23.3863 18.8319H2.47966C1.64339 18.8319 0.986328 18.1749 0.986328 17.3386V16.144C0.986328 15.3078 1.64339 14.6507 2.47966 14.6507H23.3863C24.2226 14.6507 24.8797 15.3078 24.8797 16.144V17.3386C24.8797 18.1749 24.2226 18.8319 23.3863 18.8319ZM23.3863 11.6639H2.47966C1.64339 11.6639 0.986328 11.0069 0.986328 10.1706V8.97603C0.986328 8.13976 1.64339 7.4827 2.47966 7.4827H23.3863C24.2226 7.4827 24.8797 8.13976 24.8797 8.97603V10.1706C24.8797 11.0069 24.2226 11.6639 23.3863 11.6639ZM23.3863 4.49592H2.47966C1.64339 4.49592 0.986328 3.83886 0.986328 3.00259V1.80803C0.986328 0.971764 1.64339 0.314697 2.47966 0.314697H23.3863C24.2226 0.314697 24.8797 0.971764 24.8797 1.80803V3.00259C24.8797 3.83886 24.2226 4.49592 23.3863 4.49592Z" fill="#AE6E55"/>
</svg>
