<svg width="525" height="877" viewBox="0 0 525 877" fill="none" xmlns="http://www.w3.org/2000/svg">
<path d="M206 186.667C209.021 179.177 209.714 170.953 207.985 163.063C206.261 155.172 202.193 147.989 196.318 142.448L159.334 106.052C149.381 96.6042 136.189 91.3387 122.47 91.3387C108.746 91.3387 95.5526 96.6043 85.6006 106.052L47.5699 141.984C39.6273 149.541 35.0803 159.995 34.9658 170.957C34.846 181.921 39.1741 192.468 46.9502 200.197C54.7314 207.921 65.3049 212.171 76.2675 211.984C92.8355 211.984 105.434 203.583 122.934 203.703C140.434 203.817 153.852 211.051 169.601 211.869V211.864C177.486 211.76 185.164 209.307 191.642 204.817C198.127 200.327 203.127 194.01 206.002 186.666L206 186.667Z" fill="#AE6E55"/>
<path d="M220.587 51.3334C179.404 43.9845 165.404 124.136 202.618 131.948C244.034 139.068 257.686 59.1507 220.587 51.3334Z" fill="#AE6E55"/>
<path d="M15.4799 123.08C40.7972 148.049 70.6625 119.346 62.1465 85.0494C57.1309 62.4134 40.2145 47.6014 23.6465 51.3307C-6.2228 59.0286 -3.1868 104.997 15.4799 123.08Z" fill="#AE6E55"/>
<path d="M87.9334 90.416C105.199 90.416 119.199 74.432 121.881 52.968C129.465 107.452 190.245 99.6347 190.48 45.2702C190.715 -9.09437 129.464 -16.9125 121.881 37.5723C114.184 -17.0264 53.3974 -9.09437 53.2827 45.2702C53.2827 70.5822 68.4494 90.416 87.9334 90.416Z" fill="#AE6E55"/>
<path d="M488.027 415.733C491.053 408.244 491.746 400.015 490.016 392.129C488.287 384.239 484.22 377.056 478.345 371.515L440.314 335.583C430.361 326.135 417.169 320.869 403.445 320.869C389.726 320.869 376.533 326.135 366.581 335.583L328.55 371.515C320.607 379.077 316.06 389.525 315.946 400.493C315.826 411.457 320.149 421.999 327.93 429.728C335.711 437.457 346.285 441.707 357.248 441.514C373.816 441.514 386.529 433.113 403.914 433.233C421.3 433.348 434.832 440.468 450.581 441.4C458.701 441.468 466.644 439.046 473.341 434.452C480.039 429.864 485.164 423.327 488.029 415.733H488.027Z" fill="#AE6E55"/>
<path d="M464.813 342.587C477.647 376.42 516.731 361.723 523.147 327.655C534.813 274.103 476.48 261.389 464.116 314.587H464.111C461.746 323.806 461.991 333.499 464.813 342.587Z" fill="#AE6E55"/>
<path d="M317.587 361.947C338.003 361.947 348.504 339.197 343.254 314.583C336.837 279.583 297.988 266.052 284.92 299.531C275.701 322.635 293.321 363.233 317.587 361.947Z" fill="#AE6E55"/>
<path d="M369.493 319.947C386.879 319.947 400.759 303.963 403.441 282.379C411.139 336.863 471.925 329.045 472.04 274.681C472.155 220.317 411.024 212.498 403.441 266.983C395.858 212.499 335.077 220.316 334.843 274.681C334.843 299.998 350.129 319.947 369.493 319.947Z" fill="#AE6E55"/>
<path d="M159.333 531.667C149.38 522.219 136.188 516.953 122.469 516.953C108.745 516.953 95.5521 522.219 85.6001 531.667L47.5694 567.599C39.6268 575.161 35.0798 585.609 34.9653 596.577C34.8455 607.541 39.1736 618.083 46.9497 625.812C54.7309 633.541 65.3044 637.791 76.267 637.598C92.835 637.598 105.434 629.197 122.934 629.317C140.434 629.432 153.851 636.666 169.6 637.598C180.512 637.661 190.986 633.333 198.668 625.583C206.351 617.838 210.59 607.328 210.434 596.416C210.273 585.51 205.736 575.124 197.835 567.599L159.333 531.667Z" fill="#AE6E55"/>
<path d="M220.587 476.84C180.805 469.955 163.769 546.84 202.617 557.455C243.92 564.574 257.685 485.007 220.587 476.84Z" fill="#AE6E55"/>
<path d="M121.88 463.067C114.182 408.583 53.3961 416.4 53.2814 470.765C53.1668 525.129 114.183 532.947 121.88 478.462C129.463 532.946 190.244 525.129 190.479 470.765C190.713 416.401 129.463 408.582 121.88 463.067Z" fill="#AE6E55"/>
<path d="M41.0268 557.453C60.1628 553.136 66.1094 528.869 61.6774 510.787C55.2608 475.787 16.2921 462.371 3.3441 495.855C-6.45284 520.005 13.7296 564.105 41.0268 557.453Z" fill="#AE6E55"/>
<path d="M440.32 771.667C430.367 762.219 417.175 756.953 403.451 756.953C389.732 756.953 376.539 762.219 366.587 771.667L328.556 806.667C320.614 814.229 316.067 824.677 315.952 835.64C315.832 846.604 320.155 857.151 327.937 864.88C335.718 872.604 346.291 876.859 357.254 876.666C373.822 876.666 386.535 868.265 403.921 868.385C421.306 868.5 434.838 875.62 450.587 876.552C461.535 876.693 472.071 872.396 479.795 864.64C487.524 856.89 491.78 846.334 491.597 835.39C491.41 824.442 486.8 814.04 478.821 806.551L440.32 771.667Z" fill="#AE6E55"/>
<path d="M502.147 716.253C465.048 707.618 443.813 786.253 484.297 796.988C523.844 804.571 540.995 725.004 502.147 716.253Z" fill="#AE6E55"/>
<path d="M403.453 702.48C395.87 647.996 335.089 655.813 334.855 710.178C334.62 764.542 395.871 772.361 403.453 717.876C411.151 772.36 471.937 764.542 472.052 710.178C472.172 655.814 411.036 647.995 403.453 702.48Z" fill="#AE6E55"/>
<path d="M322.72 796.987C339.288 793.252 348.272 772.721 343.251 750.32C336.834 715.32 297.986 701.904 284.918 735.268C275.115 760.003 295.303 803.519 322.72 796.987Z" fill="#AE6E55"/>
</svg>
