<svg width="16" height="20" viewBox="0 0 16 20" fill="none" xmlns="http://www.w3.org/2000/svg">
<path d="M8.24953 0.964991C8.13141 0.679042 7.93094 0.434596 7.67369 0.262656C7.41629 0.0908916 7.11377 -0.000651679 6.80437 3.49232e-06H1.15898C0.822832 3.49232e-06 0.512293 0.179315 0.344301 0.470341C0.176144 0.761375 0.176144 1.12001 0.344301 1.41102C0.512293 1.70205 0.822869 1.88135 1.15898 1.88135H6.03833L0.458031 7.46207C0.1647 7.7554 0 8.15323 0 8.56796C0 8.98269 0.164876 9.38054 0.458199 9.67386C0.751531 9.96703 1.14936 10.1319 1.56409 10.1317H7.3128C7.64879 10.1317 7.95936 9.95241 8.12748 9.66138C8.29547 9.37035 8.29547 9.01171 8.12748 8.72071C7.95933 8.42951 7.64879 8.2502 7.3128 8.2502H2.33056L7.9117 2.66949C8.13054 2.45081 8.27967 2.17206 8.33987 1.86858C8.39991 1.56508 8.36858 1.25058 8.2498 0.964785L8.24953 0.964991Z" fill="white"/>
<path d="M6.26305 15.2533C6.19184 15.0803 6.07069 14.9325 5.9152 14.8286C5.75971 14.7247 5.57676 14.6693 5.38982 14.6697H2.7917C2.5564 14.6697 2.33902 14.7952 2.22131 14.9989C2.10372 15.2026 2.10372 15.4537 2.22131 15.6574C2.33902 15.8612 2.5564 15.9867 2.7917 15.9867H4.53702L2.31065 18.3864C2.13311 18.5635 2.03332 18.804 2.0332 19.0546C2.03297 19.3053 2.13242 19.5459 2.30973 19.7232C2.48693 19.9007 2.7274 20.0002 2.9782 20.0002H5.62329H5.62318C5.85848 20.0002 6.07586 19.8747 6.19357 19.671C6.31117 19.4673 6.31117 19.2162 6.19357 19.0125C6.07586 18.8087 5.85848 18.6832 5.62318 18.6832H3.83088L6.05795 16.2835C6.19048 16.1514 6.28074 15.9831 6.31726 15.7996C6.35378 15.6162 6.33494 15.426 6.26305 15.2533Z" fill="white"/>
<path d="M14.8302 13.5271H12.3791L15.4511 10.5974C15.7046 10.3441 15.847 10.0005 15.847 9.6424C15.847 9.28427 15.7048 8.94074 15.4516 8.68745C15.1983 8.43415 14.8548 8.29175 14.4967 8.29175H10.7851C10.4489 8.29175 10.1384 8.47106 9.97041 8.76225C9.80242 9.05329 9.80242 9.41192 9.97041 9.70293C10.1384 9.99396 10.449 10.1733 10.7851 10.1733H13.1701L10.097 13.1035C9.84357 13.3566 9.70117 13.7001 9.70117 14.0583C9.70101 14.4164 9.84324 14.7599 10.0965 15.0132C10.3498 15.2664 10.6934 15.4086 11.0515 15.4086H14.8302C15.1662 15.4086 15.4769 15.2293 15.6449 14.9381C15.8129 14.6471 15.8129 14.2884 15.6449 13.9974C15.4769 13.7064 15.1662 13.5271 14.8302 13.5271Z" fill="white"/>
</svg>
