<svg width="17" height="18" viewBox="0 0 17 18" fill="none" xmlns="http://www.w3.org/2000/svg">
<path d="M1.28945 6.27149C1.28945 6.52618 1.38366 6.77013 1.55056 6.95854C1.1503 7.36087 0.925612 7.89593 0.925612 8.47384C0.925612 8.76063 0.981297 9.03248 1.08401 9.28285C0.593893 9.35138 0.212891 9.76865 0.212891 10.278V10.935C0.212891 11.4915 0.664483 11.9431 1.22091 11.9431H1.2851L1.63176 16.1165C1.72163 17.191 2.57557 18 3.61795 18H12.9899C14.0323 18 14.8862 17.191 14.9761 16.1165L15.3228 11.9431H15.387C15.9434 11.9431 16.395 11.4915 16.395 10.935V10.278C16.395 9.74728 15.9798 9.31495 15.4576 9.27643C15.5004 9.10519 15.5239 8.92754 15.5239 8.74347C15.5239 8.32605 15.4062 7.92593 15.1814 7.57914C15.404 7.29444 15.5239 6.94987 15.5239 6.58396C15.5239 5.68941 14.7962 4.96162 13.8994 4.96162C13.4286 4.96162 12.9941 5.16062 12.6923 5.501C12.5382 5.30841 12.3498 5.15001 12.1423 5.02162C12.3199 5.00669 12.4932 4.95533 12.6537 4.86531C13.084 4.62346 13.3408 4.15468 13.3259 3.64113C13.2981 2.71223 11.8383 0.623344 10.8903 0.409396C10.5029 0.321611 10.1925 0.383718 9.95932 0.48852C9.83093 0.402975 9.69179 0.323702 9.53773 0.255176C8.76514 -0.0850586 7.84266 -0.0850586 7.06785 0.255176C6.91378 0.323702 6.77255 0.402826 6.644 0.48852C6.41066 0.383717 6.10042 0.321611 5.71303 0.409396C4.76487 0.623482 3.30526 2.71238 3.27747 3.64113C3.27105 3.88507 3.32674 4.11841 3.43154 4.32177C3.06563 4.52301 2.78736 4.86115 2.66315 5.26993C2.56044 5.23575 2.44907 5.21858 2.33785 5.21858C1.75784 5.21858 1.28698 5.69153 1.28698 6.27154L1.28945 6.27149ZM2.96733 5.93767C3.06362 5.89706 3.12782 5.80495 3.13215 5.70223C3.14932 5.27197 3.41043 4.91038 3.78068 4.74765C3.83413 4.79049 3.89191 4.8311 3.95192 4.86529C4.11674 4.95725 4.29649 5.00876 4.48266 5.02159C4.42489 5.36407 4.3907 5.69581 4.39712 6.00183C4.40787 6.53479 4.62613 6.96284 4.97502 7.30096C4.30291 7.82528 3.82579 8.50588 3.63737 9.26788H1.67044C1.53772 9.03245 1.46069 8.76282 1.46069 8.47381C1.46069 7.95591 1.70254 7.48074 2.12206 7.17036C2.19477 7.11692 2.23553 7.02913 2.2312 6.93926C2.22478 6.84938 2.17342 6.76802 2.09415 6.72309C1.925 6.62888 1.82453 6.45988 1.82453 6.27356C1.82453 5.98677 2.05563 5.75566 2.34033 5.75566C2.46872 5.75566 2.5886 5.80268 2.6828 5.88838C2.75983 5.95899 2.87121 5.97825 2.9675 5.93765L2.96733 5.93767ZM7.28413 0.745277C7.60302 0.606138 7.95399 0.535521 8.30289 0.535521C8.65179 0.535521 9.00275 0.606138 9.32375 0.745277C9.61263 0.871578 9.83955 1.03416 10.0023 1.22897C10.608 1.95452 11.7081 4.40724 11.6781 5.99102C11.6524 7.47857 9.39021 7.76743 8.57478 7.82315V6.7145C9.21463 6.53043 9.6428 5.72991 9.6428 5.27205C9.6428 5.13933 9.58935 5.01736 9.48649 4.92316C9.19537 4.65354 8.53401 4.67279 8.30515 4.68981C8.07614 4.67488 7.41477 4.65563 7.12591 4.92316C7.02529 5.01736 6.96961 5.13724 6.96961 5.27205C6.96961 5.73217 7.39762 6.53266 8.03763 6.7145V7.82315C7.20725 7.76537 4.96206 7.47426 4.93431 5.99102C4.9043 4.40942 6.00233 1.95436 6.61012 1.22477C6.77061 1.03218 6.99754 0.869453 7.28866 0.743137L7.28413 0.745277ZM12.6883 6.24992H12.6903C12.791 6.24992 12.8829 6.19214 12.9279 6.10226C13.114 5.72993 13.4865 5.49868 13.8996 5.49868C14.5009 5.49868 14.989 5.98673 14.989 6.58596C14.989 6.8835 14.8691 7.16161 14.6529 7.36929C14.5546 7.46558 14.5438 7.62189 14.6294 7.72878C14.8648 8.02199 14.9888 8.37296 14.9888 8.74548C14.9888 8.92955 14.9568 9.10721 14.9011 9.27202H12.9706C12.7822 8.51001 12.3071 7.82957 11.635 7.30509C11.9839 6.96694 12.2022 6.53892 12.2107 6.00386C12.2107 5.9225 12.2086 5.83904 12.2042 5.75559C12.3005 5.86039 12.384 5.97818 12.4504 6.10657C12.4974 6.19436 12.5875 6.25004 12.6879 6.25004L12.6883 6.24992ZM15.3849 9.80486C15.646 9.80486 15.8579 10.0167 15.8579 10.2778V10.9348C15.8579 11.1959 15.646 11.4078 15.3849 11.4078L1.2207 11.4079C0.959588 11.4079 0.747742 11.1961 0.747742 10.935V10.278C0.747742 10.0169 0.959588 9.80501 1.2207 9.80501L15.3849 9.80486ZM8.30071 8.3709H8.30922C9.31514 8.34731 10.4217 8.12905 11.1964 7.641C11.7913 8.07333 12.2216 8.63407 12.4121 9.26755L4.19353 9.2677C4.38402 8.63426 4.81412 8.07126 5.40922 7.63893C6.18403 8.12698 7.28836 8.34315 8.3007 8.36883L8.30071 8.3709Z" fill="white"/>
<path d="M6.94917 2.55176C6.80152 2.55176 6.68164 2.67164 6.68164 2.81929V3.14892C6.68164 3.29658 6.80152 3.41646 6.94917 3.41646C7.09682 3.41646 7.2167 3.29658 7.2167 3.14892V2.81929C7.2167 2.67164 7.09682 2.55176 6.94917 2.55176Z" fill="white"/>
<path d="M9.65425 3.41426C9.8019 3.41426 9.92178 3.29438 9.92178 3.14673V2.81709C9.92178 2.66944 9.8019 2.54956 9.65425 2.54956C9.5066 2.54956 9.38672 2.66944 9.38672 2.81709V3.14673C9.38672 3.29438 9.5066 3.41426 9.65425 3.41426Z" fill="white"/>
<path d="M1.0937 3.41422C1.69729 3.41422 2.18741 2.9241 2.18741 2.32051C2.18741 1.71692 1.69729 1.22681 1.0937 1.22681C0.490117 1.22681 0 1.71692 0 2.32051C0 2.9241 0.490117 3.41422 1.0937 3.41422ZM1.0937 1.76202C1.40184 1.76202 1.65235 2.01238 1.65235 2.32066C1.65235 2.6288 1.40198 2.87931 1.0937 2.87931C0.785566 2.87931 0.535062 2.62894 0.535062 2.32066C0.535062 2.01253 0.785425 1.76202 1.0937 1.76202Z" fill="white"/>
<path d="M14.9568 3.83146C15.6952 3.83146 16.2945 3.23219 16.2945 2.49381C16.2945 2.32899 16.2624 2.17283 16.209 2.02502C16.4487 1.8602 16.6049 1.58627 16.6049 1.27585C16.6049 0.774998 16.1961 0.366211 15.6952 0.366211C15.2308 0.366211 14.852 0.717196 14.7963 1.1667C14.1349 1.24583 13.6191 1.81088 13.6191 2.49362C13.6191 3.232 14.2184 3.83127 14.9568 3.83127L14.9568 3.83146ZM15.6952 0.901464C15.9029 0.901464 16.0698 1.07061 16.0698 1.27604C16.0698 1.39592 16.012 1.50296 15.9242 1.57134C15.7638 1.40219 15.5583 1.27604 15.3271 1.20961C15.3592 1.03404 15.5112 0.901464 15.6952 0.901464ZM14.9568 1.69121C15.4 1.69121 15.7594 2.05071 15.7594 2.49381C15.7594 2.93691 15.3999 3.2964 14.9568 3.2964C14.5137 3.2964 14.1543 2.93691 14.1543 2.49381C14.1543 2.05071 14.5137 1.69121 14.9568 1.69121Z" fill="white"/>
</svg>
