<svg width="21" height="18" viewBox="0 0 21 18" fill="none" xmlns="http://www.w3.org/2000/svg">
<path d="M11.2915 12.2961L10.8683 11.5977C10.6989 11.3014 10.3181 11.2168 10.0429 11.386C9.74661 11.5553 9.66202 11.9362 9.83119 12.2114L10.2121 12.8251C10.191 12.8674 10.1697 12.8885 10.1697 12.952L9.19624 17.037C9.11165 17.4179 9.3232 17.7989 9.70421 17.9259C10.1064 18.0528 10.5085 17.82 10.6354 17.4391L11.355 15.1322L14.6777 15.5554L14.6354 17.1851C14.6143 17.5659 14.9105 17.9259 15.3127 17.9469C15.7359 17.9893 16.0957 17.693 16.1381 17.2696L16.4767 13.8834L14.6777 12.275L11.2915 12.2751L11.2915 12.2961Z" fill="white"/>
<path d="M20.0333 12.1903L18.5942 10.4972L18.6577 9.37553C18.6788 9.12161 18.3614 8.97338 18.171 9.16383L15.3984 11.9787L16.7953 13.2486L17.4726 12.5713L18.2134 13.3121C18.5308 13.6295 19.0388 13.6295 19.3561 13.3121L20.0335 12.6348C20.139 12.5079 20.139 12.3174 20.0333 12.1903L20.0333 12.1903Z" fill="white"/>
<path d="M14.5087 11.9364C14.5511 11.9788 14.6357 12.021 14.6992 12.021C14.7838 12.021 14.8474 11.9787 14.9109 11.9152C15.0167 11.8093 15.0167 11.6189 14.8898 11.513L11.8211 8.76172C11.6941 8.90994 11.5248 9.01564 11.3555 9.10037L14.5087 11.9364Z" fill="white"/>
<path d="M11.5464 7.49169C11.4829 7.04718 11.0597 6.75089 10.6151 6.75089H8.92201L7.50405 5.18486C7.1019 4.71926 6.50936 4.46533 5.89565 4.46533H4.28726C3.56773 4.46533 2.89042 4.82509 2.48827 5.41766L0.181476 8.80391C-0.0302206 9.1213 -0.0724417 9.52344 0.139108 9.84097C0.329546 10.1161 0.604707 10.2431 0.87991 10.2431C1.15511 10.2431 1.45137 10.1162 1.62071 9.86224L2.80584 8.10566V17.0579C2.80584 17.5024 3.12323 17.9043 3.54664 17.9891C4.09686 18.0737 4.58369 17.6505 4.58369 17.1002L4.58355 11.7243C4.58355 11.6185 4.66814 11.555 4.75287 11.555H5.26084C5.36669 11.555 5.43017 11.6396 5.43017 11.7243L5.43002 17.0364C5.43002 17.4809 5.74741 17.8828 6.17082 17.9676C6.72104 18.0522 7.20788 17.629 7.20788 17.0787V7.55511L7.82155 8.23242C7.99087 8.42286 8.22369 8.5287 8.47758 8.5287H10.6151C11.2077 8.52855 11.631 8.04182 11.5463 7.49149L11.5464 7.49169Z" fill="white"/>
<path d="M7.01594 1.98942C7.01594 3.08804 6.12533 3.97884 5.02653 3.97884C3.92791 3.97884 3.03711 3.08807 3.03711 1.98942C3.03711 0.890648 3.92787 0 5.02653 0C6.1253 0 7.01594 0.89061 7.01594 1.98942Z" fill="white"/>
</svg>
