<svg width="382" height="319" viewBox="0 0 382 319" fill="none" xmlns="http://www.w3.org/2000/svg">
<mask id="path-1-inside-1_52_693" fill="white">
<path d="M292.084 296.924C292.271 297.965 292.371 298.843 292.593 299.693C293.284 302.355 292.699 304.718 290.899 306.743C282.953 315.649 273.221 320.183 261.134 318.436C256.043 317.702 251.34 315.711 247.04 312.864C244.89 311.439 242.918 309.755 240.778 308.33C237.965 306.458 236.987 303.714 236.425 300.552C234.578 290.283 232.571 280.042 230.618 269.793C230.59 269.64 230.484 269.505 230.421 269.38C222.303 272.921 214.212 276.439 205.978 280.024C206.299 280.509 206.687 281.08 207.071 281.655C212.321 289.262 211.721 297.146 208.049 305.077C206.893 307.568 204.59 308.643 201.859 308.705C200.793 308.733 199.727 308.74 198.659 308.74C179.046 308.774 159.424 308.793 139.809 308.84C130.259 308.868 120.706 308.946 111.156 308.983C106.381 309.002 104.438 307.611 102.753 303.096C100.353 296.661 99.4907 290.077 100.603 283.258C100.675 282.811 100.219 282.039 99.7969 281.789C93.4969 278.036 88.4185 273.061 84.9217 266.611C83.5968 264.164 82.853 261.424 81.7217 258.861C81.4249 258.199 80.7811 257.455 80.1373 257.23C65.2621 252.167 51.2405 245.411 38.3309 236.433C26.2717 228.046 15.8869 218.011 8.60934 205.092C4.28118 197.405 1.35311 189.179 0.427747 180.355C0.0777474 176.976 -0.109762 173.536 0.0683663 170.148C0.212118 167.351 2.23709 165.695 4.84341 164.933C7.49653 164.17 9.93405 164.745 11.6965 166.886C14.2934 170.039 16.5528 173.479 19.259 176.527C24.134 182.02 29.0342 187.511 34.2686 192.655C40.6842 198.97 47.9158 204.32 55.8094 208.692C65.2342 213.917 75.191 217.114 86.1222 216.614C87.3409 216.561 87.994 216.158 88.5504 215.055C93.3254 205.539 100.054 197.592 108.003 190.567C119.913 180.039 133.647 172.486 147.947 165.846C159.631 160.424 171.394 155.183 183.088 149.79C188.616 147.237 193.357 143.49 197.916 139.511C203.453 134.683 209.044 129.915 214.563 125.059C220.129 120.168 225.673 115.265 231.122 110.24C231.875 109.54 232.163 108.171 232.36 107.059C234.304 96.0933 236.294 85.1341 238.06 74.1405C239.279 66.5687 240.094 58.9245 241.222 51.3373C241.66 48.3623 242.504 45.4498 243.079 42.4845C243.179 41.9564 243.044 41.0501 242.685 40.8095C239.1 38.3907 238.285 33.4719 240.166 29.1439C242.369 24.1001 245.651 19.7623 249.082 15.5439C252.479 11.3688 256.088 7.36225 259.52 3.21585C261.904 0.331451 264.951 -0.387267 268.426 0.178333C273.47 0.993933 277.682 3.43145 281.195 7.07833C282.02 7.93769 282.736 8.20649 283.954 7.99081C291.911 6.59393 299.905 6.02833 307.87 7.79394C319.008 10.2658 327.545 16.4315 333.336 26.2875C333.917 27.2813 334.598 27.3531 335.53 27.3438C347.105 27.3344 358.692 27.4438 370.267 27.2907C376.217 27.2094 378.305 29.6282 380.22 34.7282C382.792 41.5657 380.801 47.981 377.514 54.0466C376.108 56.6435 374.208 58.9841 372.648 61.5091C372.201 62.2434 371.904 63.2372 371.958 64.0809C372.298 69.6809 371.661 75.0937 368.608 79.9121C365.479 84.8403 360.814 87.359 355.014 87.7152C343.33 88.4308 331.88 90.6465 320.501 93.2339C319.461 93.4683 318.37 94.2121 317.67 95.0339C311.632 102.193 311.829 110.078 315.198 118.25C317.995 125.031 320.976 131.734 323.639 138.572C326.801 146.716 328.289 155.228 327.77 163.975C327.286 172.037 325.179 179.728 321.848 187.091C315.961 200.066 307.63 211.338 297.827 221.578C296.502 222.965 296.124 224.256 296.339 226.175C297.505 236.319 298.489 246.488 299.539 256.647C299.683 258.044 299.899 259.444 299.924 260.841C299.952 262.078 300.489 262.544 301.67 262.784C307.789 264.066 312.942 267.022 316.983 271.853C320.649 276.244 322.583 281.397 323.443 286.95C324.086 291.116 321.571 294.441 317.368 294.887C311.955 295.462 306.518 295.766 301.086 296.187C298.13 296.422 295.183 296.644 292.099 296.878L292.084 296.924ZM173.996 270.258C176.246 270.571 178.646 270.993 181.065 271.227C183.324 271.443 185.805 272.105 187.846 271.468C201.402 267.239 214.43 261.692 227.136 255.349C228.096 254.874 228.355 254.327 228.255 253.271C227.674 246.955 227.171 240.637 226.642 234.321C226.005 226.777 225.333 219.224 224.733 211.68C224.411 207.602 224.052 203.508 223.98 199.424C223.917 195.643 227.858 192.596 231.596 193.268C235.539 193.977 237.483 196.53 237.796 200.999C238.242 207.377 238.836 213.749 239.364 220.121C239.964 227.333 240.546 234.545 241.155 241.758C241.621 247.349 241.73 253.002 242.67 258.514C244.849 271.283 247.411 283.986 249.883 296.711C250.045 297.545 250.627 298.548 251.327 298.986C253.961 300.67 256.614 302.383 259.445 303.673C265.626 306.486 273.539 304.767 278.242 299.795C277.858 298.908 277.517 297.967 277.042 297.089C273.458 290.53 269.024 284.573 264.283 278.811C262.555 276.714 260.377 274.779 260.583 271.723C260.745 269.276 261.101 266.839 261.408 264.401C262.339 256.954 263.289 249.511 264.239 242.073C265.323 233.57 266.345 225.057 267.511 216.573C268.676 208.152 269.795 199.711 271.32 191.352C272.001 187.608 273.292 183.896 274.886 180.43C276.273 177.421 280.217 176.496 283.202 177.839C286.48 179.318 288.049 182.605 287.074 185.984C286.608 187.596 285.989 189.174 285.686 190.821C284.414 197.577 283.195 204.343 282.049 211.115C281.645 213.49 281.53 215.918 281.277 218.327C281.42 218.39 281.564 218.461 281.708 218.524C283.733 216.436 285.802 214.393 287.783 212.271C296.796 202.558 304.727 192.112 309.933 179.789C314.79 168.302 315.49 156.627 311.133 144.899C308.13 136.827 304.699 128.905 301.402 120.94C301.258 120.59 300.577 120.296 300.121 120.258C294.593 119.765 289.046 119.515 283.546 118.843C274.271 117.705 265.364 115.133 257.015 110.858C253.593 109.112 250.321 107.068 246.846 105.09C246.424 107.268 246.002 109.443 245.593 111.63C245.108 114.158 244.796 116.721 242.689 118.593C238.074 122.687 233.533 126.871 228.908 130.958C223.067 136.121 217.214 141.271 211.283 146.342C207.152 149.874 203.058 153.464 198.667 156.646C192.117 161.402 184.689 164.611 177.323 167.898C169.195 171.517 161.07 175.173 152.989 178.892C139.889 184.923 127.382 191.92 116.513 201.57C109.723 207.608 104.066 214.518 100.207 222.761C96.1852 231.354 93.3352 240.261 94.1227 249.945C94.4914 254.432 95.8508 258.601 98.4852 262.31C101.916 267.148 106.585 270.267 112.069 272.335C116.038 273.832 117.775 278.113 115.832 281.798C113.869 285.516 113.707 289.379 114.31 293.419C114.525 294.869 115.16 295.219 116.532 295.204C125.86 295.104 135.188 295.05 144.513 295.035C161.376 295 178.238 294.991 195.1 294.972H196.847C197.404 290.769 195.71 288.413 191.472 286.828C188.588 285.744 185.575 285.753 182.594 285.403C170.91 284.032 159.243 282.5 147.569 281.085C141.95 280.403 138.959 275.028 141.744 270.46C143.275 267.951 145.794 267.413 148.472 266.947C162.719 264.457 172.6 255.238 174.682 240.426C175.344 235.685 175.041 230.81 175.147 226.001C175.229 222.22 178.113 219.101 181.697 218.976C185.513 218.842 188.722 221.582 188.876 225.445C189.044 229.745 189.154 234.082 188.876 238.373C188.338 246.957 185.857 254.994 180.828 262.054C178.769 264.948 176.313 267.554 174.01 270.317L173.996 270.258ZM298.82 106.474C299.123 104.415 299.257 102.568 299.679 100.784C301.364 93.6618 305.092 87.6837 310.235 82.5773C311.132 81.6804 312.448 80.9835 313.685 80.6866C326.892 77.4866 340.188 74.8273 353.792 74.0022C356.113 73.8585 356.863 73.2929 357.554 71.0991C358.451 68.2398 358.342 65.321 357.779 62.4431C357.213 59.6025 358.013 57.3087 359.832 55.1493C361.526 53.1337 363.104 51.0087 364.573 48.8244C366.07 46.5931 367.154 44.1462 367.432 41.2275H365.301H330.06C326.782 41.2275 324.354 39.9182 323.054 36.7744C320.66 30.9775 316.879 26.4528 311.191 23.5928C304.473 20.2241 297.385 20.2678 290.107 21.0928C290.151 21.4522 290.136 21.7365 290.223 21.9897C293.082 29.6584 294.576 37.6337 295.654 45.7145C296.229 50.0051 294.104 53.6707 290.011 55.0145C287.323 55.902 284.617 55.5426 282.098 54.5832C276.201 52.3332 270.388 49.8801 264.545 47.4957C262.083 46.4926 259.636 45.4801 256.795 44.3144C256.052 47.9707 255.227 51.2769 254.727 54.6176C253.086 65.4048 251.573 76.2112 249.961 87.008C249.764 88.3611 249.98 89.4267 251.136 90.233C254.692 92.7517 258.07 95.583 261.842 97.7236C269.367 101.999 277.683 104.077 286.205 105.277C290.355 105.858 294.546 106.083 298.849 106.477L298.82 106.474ZM283.373 235.418C282.001 236.537 280.801 237.371 279.798 238.393C279.188 239.012 278.616 239.881 278.482 240.706C277.916 244.181 277.523 247.693 277.076 251.196C276.332 256.921 275.579 262.637 274.888 268.365C274.807 269.009 274.969 269.853 275.335 270.362C278.291 274.431 281.366 278.409 284.313 282.484C284.904 283.299 285.489 283.524 286.382 283.452C289.626 283.193 292.87 282.977 296.123 282.737C299.679 282.468 303.245 282.18 307.045 281.887C306.67 281.312 306.463 280.937 306.185 280.615C303.31 277.274 299.538 276.037 295.272 275.946C289.86 275.84 287.441 273.787 286.841 268.437C285.944 260.515 285.185 252.587 284.369 244.655C284.057 241.661 283.732 238.68 283.385 235.408L283.373 235.418ZM80.0526 242.603C80.8245 238.453 81.5495 234.575 82.2839 230.624C57.7151 229.371 39.0679 216.368 21.9215 200.384C35.9527 221.887 57.1623 233.402 80.0623 242.593L80.0526 242.603ZM280.589 39.1947C279.351 32.6885 277.729 26.4883 274.398 20.9603C273.073 18.7665 270.992 17.0165 269.21 15.1103C268.539 14.3853 267.939 14.5541 267.292 15.3509C264.289 19.0509 261.217 22.6978 258.189 26.3821C257.426 27.3134 256.745 28.3165 256.12 29.179C264.301 32.529 272.338 35.8197 280.589 39.1974V39.1947Z"/>
</mask>
<path d="M292.084 296.924C292.271 297.965 292.371 298.843 292.593 299.693C293.284 302.355 292.699 304.718 290.899 306.743C282.953 315.649 273.221 320.183 261.134 318.436C256.043 317.702 251.34 315.711 247.04 312.864C244.89 311.439 242.918 309.755 240.778 308.33C237.965 306.458 236.987 303.714 236.425 300.552C234.578 290.283 232.571 280.042 230.618 269.793C230.59 269.64 230.484 269.505 230.421 269.38C222.303 272.921 214.212 276.439 205.978 280.024C206.299 280.509 206.687 281.08 207.071 281.655C212.321 289.262 211.721 297.146 208.049 305.077C206.893 307.568 204.59 308.643 201.859 308.705C200.793 308.733 199.727 308.74 198.659 308.74C179.046 308.774 159.424 308.793 139.809 308.84C130.259 308.868 120.706 308.946 111.156 308.983C106.381 309.002 104.438 307.611 102.753 303.096C100.353 296.661 99.4907 290.077 100.603 283.258C100.675 282.811 100.219 282.039 99.7969 281.789C93.4969 278.036 88.4185 273.061 84.9217 266.611C83.5968 264.164 82.853 261.424 81.7217 258.861C81.4249 258.199 80.7811 257.455 80.1373 257.23C65.2621 252.167 51.2405 245.411 38.3309 236.433C26.2717 228.046 15.8869 218.011 8.60934 205.092C4.28118 197.405 1.35311 189.179 0.427747 180.355C0.0777474 176.976 -0.109762 173.536 0.0683663 170.148C0.212118 167.351 2.23709 165.695 4.84341 164.933C7.49653 164.17 9.93405 164.745 11.6965 166.886C14.2934 170.039 16.5528 173.479 19.259 176.527C24.134 182.02 29.0342 187.511 34.2686 192.655C40.6842 198.97 47.9158 204.32 55.8094 208.692C65.2342 213.917 75.191 217.114 86.1222 216.614C87.3409 216.561 87.994 216.158 88.5504 215.055C93.3254 205.539 100.054 197.592 108.003 190.567C119.913 180.039 133.647 172.486 147.947 165.846C159.631 160.424 171.394 155.183 183.088 149.79C188.616 147.237 193.357 143.49 197.916 139.511C203.453 134.683 209.044 129.915 214.563 125.059C220.129 120.168 225.673 115.265 231.122 110.24C231.875 109.54 232.163 108.171 232.36 107.059C234.304 96.0933 236.294 85.1341 238.06 74.1405C239.279 66.5687 240.094 58.9245 241.222 51.3373C241.66 48.3623 242.504 45.4498 243.079 42.4845C243.179 41.9564 243.044 41.0501 242.685 40.8095C239.1 38.3907 238.285 33.4719 240.166 29.1439C242.369 24.1001 245.651 19.7623 249.082 15.5439C252.479 11.3688 256.088 7.36225 259.52 3.21585C261.904 0.331451 264.951 -0.387267 268.426 0.178333C273.47 0.993933 277.682 3.43145 281.195 7.07833C282.02 7.93769 282.736 8.20649 283.954 7.99081C291.911 6.59393 299.905 6.02833 307.87 7.79394C319.008 10.2658 327.545 16.4315 333.336 26.2875C333.917 27.2813 334.598 27.3531 335.53 27.3438C347.105 27.3344 358.692 27.4438 370.267 27.2907C376.217 27.2094 378.305 29.6282 380.22 34.7282C382.792 41.5657 380.801 47.981 377.514 54.0466C376.108 56.6435 374.208 58.9841 372.648 61.5091C372.201 62.2434 371.904 63.2372 371.958 64.0809C372.298 69.6809 371.661 75.0937 368.608 79.9121C365.479 84.8403 360.814 87.359 355.014 87.7152C343.33 88.4308 331.88 90.6465 320.501 93.2339C319.461 93.4683 318.37 94.2121 317.67 95.0339C311.632 102.193 311.829 110.078 315.198 118.25C317.995 125.031 320.976 131.734 323.639 138.572C326.801 146.716 328.289 155.228 327.77 163.975C327.286 172.037 325.179 179.728 321.848 187.091C315.961 200.066 307.63 211.338 297.827 221.578C296.502 222.965 296.124 224.256 296.339 226.175C297.505 236.319 298.489 246.488 299.539 256.647C299.683 258.044 299.899 259.444 299.924 260.841C299.952 262.078 300.489 262.544 301.67 262.784C307.789 264.066 312.942 267.022 316.983 271.853C320.649 276.244 322.583 281.397 323.443 286.95C324.086 291.116 321.571 294.441 317.368 294.887C311.955 295.462 306.518 295.766 301.086 296.187C298.13 296.422 295.183 296.644 292.099 296.878L292.084 296.924ZM173.996 270.258C176.246 270.571 178.646 270.993 181.065 271.227C183.324 271.443 185.805 272.105 187.846 271.468C201.402 267.239 214.43 261.692 227.136 255.349C228.096 254.874 228.355 254.327 228.255 253.271C227.674 246.955 227.171 240.637 226.642 234.321C226.005 226.777 225.333 219.224 224.733 211.68C224.411 207.602 224.052 203.508 223.98 199.424C223.917 195.643 227.858 192.596 231.596 193.268C235.539 193.977 237.483 196.53 237.796 200.999C238.242 207.377 238.836 213.749 239.364 220.121C239.964 227.333 240.546 234.545 241.155 241.758C241.621 247.349 241.73 253.002 242.67 258.514C244.849 271.283 247.411 283.986 249.883 296.711C250.045 297.545 250.627 298.548 251.327 298.986C253.961 300.67 256.614 302.383 259.445 303.673C265.626 306.486 273.539 304.767 278.242 299.795C277.858 298.908 277.517 297.967 277.042 297.089C273.458 290.53 269.024 284.573 264.283 278.811C262.555 276.714 260.377 274.779 260.583 271.723C260.745 269.276 261.101 266.839 261.408 264.401C262.339 256.954 263.289 249.511 264.239 242.073C265.323 233.57 266.345 225.057 267.511 216.573C268.676 208.152 269.795 199.711 271.32 191.352C272.001 187.608 273.292 183.896 274.886 180.43C276.273 177.421 280.217 176.496 283.202 177.839C286.48 179.318 288.049 182.605 287.074 185.984C286.608 187.596 285.989 189.174 285.686 190.821C284.414 197.577 283.195 204.343 282.049 211.115C281.645 213.49 281.53 215.918 281.277 218.327C281.42 218.39 281.564 218.461 281.708 218.524C283.733 216.436 285.802 214.393 287.783 212.271C296.796 202.558 304.727 192.112 309.933 179.789C314.79 168.302 315.49 156.627 311.133 144.899C308.13 136.827 304.699 128.905 301.402 120.94C301.258 120.59 300.577 120.296 300.121 120.258C294.593 119.765 289.046 119.515 283.546 118.843C274.271 117.705 265.364 115.133 257.015 110.858C253.593 109.112 250.321 107.068 246.846 105.09C246.424 107.268 246.002 109.443 245.593 111.63C245.108 114.158 244.796 116.721 242.689 118.593C238.074 122.687 233.533 126.871 228.908 130.958C223.067 136.121 217.214 141.271 211.283 146.342C207.152 149.874 203.058 153.464 198.667 156.646C192.117 161.402 184.689 164.611 177.323 167.898C169.195 171.517 161.07 175.173 152.989 178.892C139.889 184.923 127.382 191.92 116.513 201.57C109.723 207.608 104.066 214.518 100.207 222.761C96.1852 231.354 93.3352 240.261 94.1227 249.945C94.4914 254.432 95.8508 258.601 98.4852 262.31C101.916 267.148 106.585 270.267 112.069 272.335C116.038 273.832 117.775 278.113 115.832 281.798C113.869 285.516 113.707 289.379 114.31 293.419C114.525 294.869 115.16 295.219 116.532 295.204C125.86 295.104 135.188 295.05 144.513 295.035C161.376 295 178.238 294.991 195.1 294.972H196.847C197.404 290.769 195.71 288.413 191.472 286.828C188.588 285.744 185.575 285.753 182.594 285.403C170.91 284.032 159.243 282.5 147.569 281.085C141.95 280.403 138.959 275.028 141.744 270.46C143.275 267.951 145.794 267.413 148.472 266.947C162.719 264.457 172.6 255.238 174.682 240.426C175.344 235.685 175.041 230.81 175.147 226.001C175.229 222.22 178.113 219.101 181.697 218.976C185.513 218.842 188.722 221.582 188.876 225.445C189.044 229.745 189.154 234.082 188.876 238.373C188.338 246.957 185.857 254.994 180.828 262.054C178.769 264.948 176.313 267.554 174.01 270.317L173.996 270.258ZM298.82 106.474C299.123 104.415 299.257 102.568 299.679 100.784C301.364 93.6618 305.092 87.6837 310.235 82.5773C311.132 81.6804 312.448 80.9835 313.685 80.6866C326.892 77.4866 340.188 74.8273 353.792 74.0022C356.113 73.8585 356.863 73.2929 357.554 71.0991C358.451 68.2398 358.342 65.321 357.779 62.4431C357.213 59.6025 358.013 57.3087 359.832 55.1493C361.526 53.1337 363.104 51.0087 364.573 48.8244C366.07 46.5931 367.154 44.1462 367.432 41.2275H365.301H330.06C326.782 41.2275 324.354 39.9182 323.054 36.7744C320.66 30.9775 316.879 26.4528 311.191 23.5928C304.473 20.2241 297.385 20.2678 290.107 21.0928C290.151 21.4522 290.136 21.7365 290.223 21.9897C293.082 29.6584 294.576 37.6337 295.654 45.7145C296.229 50.0051 294.104 53.6707 290.011 55.0145C287.323 55.902 284.617 55.5426 282.098 54.5832C276.201 52.3332 270.388 49.8801 264.545 47.4957C262.083 46.4926 259.636 45.4801 256.795 44.3144C256.052 47.9707 255.227 51.2769 254.727 54.6176C253.086 65.4048 251.573 76.2112 249.961 87.008C249.764 88.3611 249.98 89.4267 251.136 90.233C254.692 92.7517 258.07 95.583 261.842 97.7236C269.367 101.999 277.683 104.077 286.205 105.277C290.355 105.858 294.546 106.083 298.849 106.477L298.82 106.474ZM283.373 235.418C282.001 236.537 280.801 237.371 279.798 238.393C279.188 239.012 278.616 239.881 278.482 240.706C277.916 244.181 277.523 247.693 277.076 251.196C276.332 256.921 275.579 262.637 274.888 268.365C274.807 269.009 274.969 269.853 275.335 270.362C278.291 274.431 281.366 278.409 284.313 282.484C284.904 283.299 285.489 283.524 286.382 283.452C289.626 283.193 292.87 282.977 296.123 282.737C299.679 282.468 303.245 282.18 307.045 281.887C306.67 281.312 306.463 280.937 306.185 280.615C303.31 277.274 299.538 276.037 295.272 275.946C289.86 275.84 287.441 273.787 286.841 268.437C285.944 260.515 285.185 252.587 284.369 244.655C284.057 241.661 283.732 238.68 283.385 235.408L283.373 235.418ZM80.0526 242.603C80.8245 238.453 81.5495 234.575 82.2839 230.624C57.7151 229.371 39.0679 216.368 21.9215 200.384C35.9527 221.887 57.1623 233.402 80.0623 242.593L80.0526 242.603ZM280.589 39.1947C279.351 32.6885 277.729 26.4883 274.398 20.9603C273.073 18.7665 270.992 17.0165 269.21 15.1103C268.539 14.3853 267.939 14.5541 267.292 15.3509C264.289 19.0509 261.217 22.6978 258.189 26.3821C257.426 27.3134 256.745 28.3165 256.12 29.179C264.301 32.529 272.338 35.8197 280.589 39.1974V39.1947Z" fill="black" stroke="#AE6E55" stroke-width="4" mask="url(#path-1-inside-1_52_693)"/>
</svg>
