<svg width="24" height="16" viewBox="0 0 24 16" fill="none" xmlns="http://www.w3.org/2000/svg">
<path d="M14.5453 9.45449C14.7464 9.45449 14.9089 9.29199 14.9089 9.09086V8.50469L15.5212 8.70875C15.7136 8.77271 15.918 8.66946 15.9813 8.47889C16.0449 8.28831 15.942 8.08214 15.7514 8.01884L14.6605 7.65521C14.5497 7.61706 14.4274 7.63671 14.3329 7.70505C14.2376 7.77339 14.1816 7.88329 14.1816 8.00001V9.0909C14.1816 9.29203 14.3441 9.45453 14.5453 9.45453L14.5453 9.45449Z" fill="white"/>
<path d="M21.9553 12.4426C23.0186 9.54001 21.7858 7.22458 20.7822 5.34784C19.6582 3.24789 19.0961 1.99334 20.6066 0.633952C20.7556 0.4997 20.7676 0.269674 20.6335 0.120507C20.4993 -0.0290053 20.2693 -0.0410154 20.1201 0.0935591C18.1125 1.90049 19.0976 3.74153 20.1409 5.69096C21.147 7.57161 22.2784 9.69882 21.1961 12.3901C20.4495 12.4974 19.8492 13.0537 19.6841 13.7803L19.575 13.6166C19.5484 13.577 19.514 13.5425 19.4743 13.516L16.8202 11.7466L17.2061 11.6178C17.2973 11.5876 17.3729 11.5219 17.4163 11.4357C17.4319 11.404 17.7911 10.6732 17.8169 9.57827L18.836 8.21821C18.919 8.10799 18.932 7.96042 18.8703 7.83705C18.8088 7.71416 18.683 7.6364 18.5451 7.6364H18.5445L17.2627 7.63851C16.3263 6.62733 14.6804 6.5455 14.1815 6.5455C12.9822 6.5455 12.0297 7.38883 11.5969 7.85166C11.0271 7.40799 9.65908 6.5455 7.63622 6.5455C5.32133 6.5455 3.87962 7.12731 3.54603 7.27713C3.39295 7.28362 2.99232 7.27274 2.66505 7.09564C2.3399 6.91934 2.18178 6.6203 2.18178 6.18187C2.18178 2.37465 0.970122 2.18194 0.727259 2.18194C0.546093 2.18194 0.392687 2.31506 0.367199 2.49395C0.352427 2.59898 0 5.0822 0 6.54549C0 8.61851 1.56864 9.51848 2.59199 9.7633L2.89929 11.6073C2.7988 11.9123 2.5454 12.7217 2.5454 13.0908C2.5454 14.7087 4.08029 15.8781 4.14537 15.9271C4.20836 15.9744 4.28466 15.9999 4.36355 15.9999H7.27259C7.27551 16.0002 7.27843 15.9999 7.27957 15.9999C7.4807 15.9999 7.6432 15.8374 7.6432 15.6362C7.6432 15.5679 7.62436 15.5039 7.59157 15.4489C7.47956 15.153 7.04596 14.1817 6.18169 14.1817H5.67909L5.57877 13.9806L6.52063 13.5097C6.85228 13.7252 7.15438 13.9009 7.45405 14.0472C7.86054 15.1533 8.82886 15.8944 8.87188 15.9268C8.9347 15.9744 9.01181 15.9999 9.0907 15.9999H11.2725C11.3892 15.9999 11.4991 15.9439 11.5674 15.8489C11.6358 15.7539 11.6543 15.6318 11.6173 15.5213C11.5838 15.421 11.3439 14.7504 10.8402 14.3981C11.6402 14.1847 12.334 13.7879 12.6903 13.5571C13.1699 13.9915 14.2962 14.909 15.2724 14.909C15.7219 14.909 15.966 14.7868 16.1622 14.689C16.3287 14.6054 16.4492 14.5454 16.727 14.5454C16.9179 14.5454 17.3018 14.8116 17.6106 15.0257C18.063 15.3398 18.4902 15.6362 18.9087 15.6362C19.4589 15.6362 19.8375 15.4621 20.0516 15.3242C20.385 15.733 20.8865 15.9999 21.4541 15.9999C22.4567 15.9999 23.2723 15.1843 23.2723 14.1817C23.2723 13.3545 22.713 12.6618 21.9553 12.4425L21.9553 12.4426Z" fill="white"/>
</svg>
