<svg width="18" height="20" viewBox="0 0 18 20" fill="none" xmlns="http://www.w3.org/2000/svg">
<path d="M4.4308 2.60299C5.08491 2.60299 5.61775 2.07084 5.61775 1.41659C5.61775 0.762474 5.08517 0.229492 4.4308 0.229492C3.77669 0.229492 3.24414 0.762511 3.24414 1.41659C3.24414 2.07095 3.77672 2.60299 4.4308 2.60299ZM4.4308 0.689476C4.83151 0.689476 5.15737 1.01589 5.15737 1.41659C5.15737 1.81729 4.83138 2.14301 4.4308 2.14301C4.03009 2.14301 3.70423 1.81759 3.70423 1.41659C3.70423 1.01588 4.03008 0.689476 4.4308 0.689476Z" fill="white"/>
<path d="M3.47248 5.74428C4.00096 5.74428 4.43129 5.3142 4.43129 4.7859C4.43129 4.25688 4.00122 3.82666 3.47248 3.82666C2.94375 3.82666 2.51367 4.25673 2.51367 4.7859C2.51396 5.31424 2.94389 5.74428 3.47248 5.74428ZM3.47248 4.28693C3.74742 4.28693 3.97116 4.51097 3.97116 4.7859C3.97116 5.06084 3.74727 5.28418 3.47248 5.28418C3.19754 5.28418 2.9738 5.06086 2.9738 4.7859C2.9738 4.51097 3.19784 4.28693 3.47248 4.28693Z" fill="white"/>
<path d="M17.825 5.67682C17.7565 5.55729 17.6376 5.47491 17.5018 5.45279C17.324 5.42273 17.0914 5.06003 16.8664 4.70836C16.5699 4.24584 16.1921 3.66305 15.5917 3.20365C15.5971 3.14963 15.6077 3.09745 15.6077 3.04215C15.6077 2.17961 14.9061 1.47787 14.0436 1.47787C13.7186 1.47787 13.4132 1.58251 13.1548 1.76543L12.4737 0.269353C12.4025 0.113237 12.25 0.00958812 12.0789 0.000796439C11.9078 -0.00941273 11.7451 0.0792101 11.6583 0.227384L11.2046 1.00186C10.3852 1.04142 9.65919 1.55699 9.34963 2.31347C9.25165 2.28255 9.15069 2.25788 9.04747 2.23988C9.0547 2.1884 9.05824 2.13694 9.05824 2.08532C9.05824 1.43121 8.52595 0.898227 7.87159 0.898227C7.21747 0.898227 6.68493 1.43125 6.68493 2.08532C6.68493 2.3665 6.78276 2.63094 6.95887 2.84078C6.45322 3.30331 6.15775 3.96152 6.15775 4.65063C6.15775 4.93819 6.20766 5.21853 6.30592 5.48609C5.56418 5.74103 5.05062 6.44192 5.05062 7.24602C5.05062 7.28331 5.05218 7.32061 5.05516 7.35847C4.58 7.31239 4.14314 7.4858 3.82781 7.78752C3.76159 7.70684 3.69154 7.62985 3.61285 7.55938C2.86998 6.89804 1.76485 6.75469 0.579028 7.16662C0.129534 7.32273 -0.108262 7.81434 0.0480062 8.26424C0.204122 8.71329 0.694569 8.95251 1.14522 8.79497C1.71396 8.59773 2.20727 8.61744 2.46673 8.848C2.69559 9.05147 2.76422 9.45303 2.65405 9.94888C2.5131 10.5865 2.2125 11.2026 1.86483 11.9161C1.04087 13.6063 0.0199543 15.7076 0.422658 19.4751C0.407912 19.5746 0.422942 19.6777 0.474838 19.7689C0.556795 19.9114 0.708798 20 0.873694 20H13.4917C13.7455 20 13.9514 19.7943 13.9514 19.5399L13.9512 8.87406H13.9684C14.8153 8.87406 16.8903 8.60082 17.8557 6.06951C17.9052 5.94033 17.8937 5.79627 17.825 5.67675L17.825 5.67682ZM4.91113 7.81024C5.02202 7.81024 5.13815 7.8308 5.26548 7.87433C5.34616 7.90212 5.43464 7.88156 5.49604 7.82442C5.55772 7.76657 5.58324 7.68035 5.56183 7.59783C5.52709 7.46483 5.5105 7.35239 5.5105 7.24533C5.5105 6.56755 5.99516 5.98775 6.66372 5.8664C6.73448 5.85378 6.79545 5.80784 6.8282 5.7429C6.86067 5.67881 6.86067 5.60195 6.8282 5.53786C6.68839 5.25754 6.61792 4.95893 6.61792 4.64995C6.61792 4.01642 6.92562 3.41363 7.44159 3.03917C7.501 2.99649 7.53617 2.92744 7.53645 2.85398C7.53645 2.78096 7.50171 2.71219 7.44244 2.66852C7.25315 2.52828 7.14482 2.31602 7.14482 2.0849C7.14482 1.68419 7.4708 1.35779 7.87138 1.35779C8.27209 1.35779 8.59795 1.6842 8.59795 2.0849C8.59795 2.17366 8.58051 2.26313 8.54577 2.3509C8.51883 2.4191 8.52606 2.49596 8.56519 2.55849C8.60433 2.62017 8.67083 2.65987 8.74414 2.66469C8.97583 2.68057 9.19661 2.7329 9.39909 2.82138C9.46048 2.84761 9.52982 2.84662 9.58952 2.81726C9.65006 2.78876 9.69416 2.73573 9.71217 2.67164C9.91167 1.95502 10.5658 1.4542 11.3035 1.4542C11.9203 1.4542 12.4827 1.79961 12.7714 2.35544C12.8077 2.42619 12.878 2.4727 12.9566 2.47894C13.0395 2.48362 13.1127 2.44959 13.1596 2.38635C13.3719 2.10106 13.6938 1.93729 14.0432 1.93729C14.652 1.93729 15.1472 2.43216 15.1472 3.0413C15.1472 3.6496 14.6523 4.14447 14.0432 4.14447C13.72 4.14447 13.4123 3.99884 13.1998 3.74292C13.149 3.68266 13.0706 3.65104 12.9922 3.66295C12.9136 3.67316 12.8463 3.72322 12.8135 3.7951C12.5443 4.3898 11.9517 4.77333 11.3032 4.77333C11.1728 4.77333 11.0362 4.75362 10.8722 4.70924C10.8074 4.6918 10.7397 4.70286 10.6844 4.74015C10.6292 4.77744 10.5929 4.83686 10.5845 4.90251C10.4595 5.89406 9.61042 6.64262 8.60979 6.64262C8.58952 6.64262 8.56938 6.64106 8.51309 6.63724C8.43539 6.63724 8.37016 6.66418 8.32422 6.71962C8.27743 6.77491 8.26013 6.8495 8.27672 6.91997C8.30522 7.0395 8.31869 7.14556 8.31869 7.24539C8.31869 7.53295 8.2295 7.81256 8.06076 8.05177C8.01766 8.11345 8.00702 8.19272 8.03297 8.26319C8.05878 8.33366 8.11762 8.38768 8.19065 8.40654C9.18376 8.66716 9.87715 9.56529 9.87715 10.5909C9.87715 11.8377 8.86331 12.8513 7.61723 12.8513C7.2473 12.8513 6.87977 12.7595 6.55435 12.5859C6.48969 12.5512 6.41184 12.5496 6.34662 12.5812C6.2804 12.6137 6.23347 12.6745 6.22042 12.7474C6.12372 13.2764 5.66374 13.6597 5.12662 13.6597C4.51207 13.6597 4.01226 13.1599 4.01226 12.5462C4.01226 11.9324 4.51011 11.4334 5.13798 11.4334H5.14251C5.14748 11.4341 5.18562 11.4388 5.19087 11.4388C5.26445 11.4429 5.33649 11.4141 5.38399 11.3573C5.43092 11.3001 5.44864 11.2243 5.43007 11.1522C5.38129 10.9629 5.35662 10.7736 5.35662 10.5907C5.35662 10.483 5.36697 10.379 5.38129 10.2754C5.3915 10.2026 5.36598 10.129 5.31238 10.0776C5.25879 10.0268 5.18363 10.0055 5.11161 10.0182C5.0461 10.0301 4.97974 10.0387 4.91083 10.0387C4.29672 10.0387 3.79688 9.53888 3.79688 8.92437C3.7973 8.31012 4.29712 7.81031 4.91123 7.81031L4.91113 7.81024ZM4.32127 10.3812C4.50022 10.454 4.69461 10.4969 4.89908 10.4985C4.89795 10.5294 4.8971 10.5602 4.8971 10.5911C4.8971 10.721 4.90731 10.8524 4.92758 10.9847C4.54474 11.0331 4.20458 11.2208 3.95814 11.494C4.10617 11.1352 4.23137 10.7683 4.32127 10.3812ZM3.41437 12.6718C3.46797 12.5618 3.51901 12.4547 3.57105 12.3464C3.56269 12.4122 3.55248 12.4778 3.55248 12.5469C3.55248 12.9056 3.67811 13.2334 3.88158 13.4989L2.14927 16.4546C2.36026 14.8529 2.90716 13.7123 3.41437 12.6719L3.41437 12.6718Z" fill="white"/>
<path d="M14.043 4.65015C13.7276 4.65015 13.4727 4.9058 13.4727 5.22015C13.4727 5.5355 13.7276 5.79045 14.043 5.79045C14.3573 5.79045 14.613 5.53551 14.613 5.22015C14.6131 4.90608 14.3574 4.65015 14.043 4.65015Z" fill="#AE6E55"/>
</svg>
