<svg width="149" height="90" viewBox="0 0 149 90" fill="none" xmlns="http://www.w3.org/2000/svg">
<path fill-rule="evenodd" clip-rule="evenodd" d="M114.109 41.0001L97.2693 24.1801C96.2071 23.1812 94.7978 22.6352 93.34 22.6575C91.8821 22.6799 90.4902 23.269 89.4592 24.3C88.4282 25.331 87.8391 26.7229 87.8167 28.1808C87.7944 29.6386 88.3404 31.048 89.3393 32.1101L102.199 45.0001L89.3393 57.8101C88.289 58.8617 87.6996 60.2874 87.7005 61.7737C87.7014 63.2599 88.2927 64.6849 89.3443 65.7351C90.3959 66.7854 91.8216 67.3749 93.3078 67.3739C94.7941 67.373 96.219 66.7817 97.2693 65.7301L114.109 48.9201C115.157 47.8686 115.746 46.4446 115.746 44.9601C115.746 43.4756 115.157 42.0516 114.109 41.0001ZM52.6593 24.1801C51.6074 23.1292 50.1813 22.5389 48.6943 22.5389C47.2074 22.5389 45.7812 23.1292 44.7293 24.1801L27.8893 41.0001C26.8384 42.052 26.248 43.4782 26.248 44.9651C26.248 46.4521 26.8384 47.8782 27.8893 48.9301L44.7293 65.7301C45.7796 66.7817 47.2045 67.373 48.6908 67.3739C49.4267 67.3744 50.1555 67.2299 50.8355 66.9487C51.5156 66.6675 52.1336 66.2551 52.6543 65.7351C53.175 65.2151 53.5882 64.5976 53.8702 63.9179C54.1523 63.2382 54.2977 62.5096 54.2981 61.7737C54.2986 61.0377 54.1541 60.309 53.8729 59.6289C53.5917 58.9488 53.1793 58.3308 52.6593 57.8101L39.7993 45.0001L52.6593 32.1101C53.7102 31.0582 54.3006 29.6321 54.3006 28.1451C54.3006 26.6582 53.7102 25.232 52.6593 24.1801ZM81.2093 8.92011C79.8047 8.41755 78.2584 8.49088 76.9077 9.12409C75.5569 9.7573 74.5115 10.899 73.9993 12.3001L57.4093 73.8301C57.0443 75.196 57.2037 76.649 57.8561 77.9033C58.5085 79.1576 59.6068 80.1223 60.9347 80.6076C62.2626 81.0928 63.7241 81.0636 65.0315 80.5255C66.3389 79.9874 67.3976 78.9795 67.9993 77.7001L84.5893 16.1701C84.8443 15.4722 84.9591 14.7309 84.9271 13.9885C84.8952 13.2462 84.7172 12.5174 84.4032 11.844C84.0892 11.1706 83.6455 10.5657 83.0975 10.0639C82.5494 9.56222 81.9078 9.17353 81.2093 8.92011Z" fill="black" fill-opacity="0.1"/>
</svg>
