<svg width="25" height="20" viewBox="0 0 25 20" fill="none" xmlns="http://www.w3.org/2000/svg">
<path d="M20.4882 2.72674C20.4815 2.71411 20.4704 2.70439 20.457 2.69939C18.9688 2.01651 17.3985 1.52938 15.7851 1.25018C15.7706 1.24752 15.7557 1.24948 15.7423 1.25579C15.729 1.2621 15.718 1.27243 15.7109 1.28533C15.4969 1.67373 15.3026 2.07267 15.1289 2.48064C13.3888 2.21653 11.6189 2.21653 9.87886 2.48064C9.70438 2.07166 9.50746 1.67262 9.28902 1.28533C9.28148 1.27282 9.27042 1.26281 9.25721 1.25655C9.24401 1.2503 9.22926 1.24808 9.2148 1.25018C7.59862 1.52812 6.02551 2.01529 4.53511 2.69939C4.52204 2.70493 4.51109 2.71452 4.50386 2.72674C1.5273 7.17596 0.710893 11.5119 1.10933 15.797C1.11046 15.8078 1.11382 15.8183 1.1192 15.8277C1.12458 15.8371 1.13186 15.8453 1.14058 15.8517C2.87443 17.1342 4.81344 18.113 6.87496 18.7463C6.88977 18.7509 6.90565 18.7507 6.92036 18.7458C6.93508 18.7409 6.94789 18.7315 6.95699 18.7189C7.39931 18.1168 7.79126 17.4792 8.12886 16.8127C8.13336 16.8035 8.13591 16.7935 8.13636 16.7833C8.13681 16.7731 8.13515 16.7629 8.13149 16.7534C8.12782 16.7438 8.12223 16.7352 8.11505 16.7279C8.10788 16.7206 8.09928 16.7149 8.0898 16.7111C7.47047 16.4738 6.87094 16.1877 6.29683 15.8556C6.28669 15.8494 6.27818 15.8409 6.27204 15.8307C6.26589 15.8205 6.26228 15.809 6.26152 15.7971C6.26075 15.7853 6.26285 15.7734 6.26764 15.7625C6.27242 15.7516 6.27976 15.742 6.28902 15.7345C6.41011 15.6447 6.53121 15.551 6.64449 15.4572C6.65448 15.4484 6.66676 15.4427 6.6799 15.4406C6.69304 15.4385 6.70649 15.4402 6.71871 15.4455C10.4765 17.1603 14.5468 17.1603 18.2617 15.4455C18.2735 15.4397 18.2868 15.4374 18.2999 15.4387C18.313 15.4401 18.3255 15.4452 18.3359 15.4533C18.4492 15.5471 18.5703 15.6447 18.6914 15.7345C18.7006 15.742 18.708 15.7516 18.7127 15.7625C18.7175 15.7734 18.7196 15.7853 18.7189 15.7971C18.7181 15.809 18.7145 15.8205 18.7083 15.8307C18.7022 15.8409 18.6937 15.8494 18.6835 15.8556C18.1109 16.1895 17.5111 16.4743 16.8906 16.7072C16.8811 16.711 16.8725 16.7167 16.8653 16.724C16.8582 16.7313 16.8526 16.7399 16.8489 16.7495C16.8452 16.759 16.8436 16.7692 16.844 16.7794C16.8445 16.7896 16.847 16.7996 16.8515 16.8088C17.195 17.472 17.5867 18.1091 18.0234 18.715C18.0325 18.7276 18.0453 18.737 18.06 18.7419C18.0747 18.7468 18.0906 18.7469 18.1054 18.7424C20.1729 18.1119 22.1175 17.133 23.8554 15.8478C23.8643 15.8416 23.8717 15.8334 23.8771 15.824C23.8825 15.8145 23.8858 15.804 23.8867 15.7931C24.3632 10.8439 23.082 6.54314 20.4882 2.72674ZM8.69136 13.1877C7.55855 13.1877 6.62886 12.1486 6.62886 10.8752C6.62886 9.60174 7.54292 8.55877 8.69136 8.55877C9.85152 8.55877 10.7734 9.60564 10.7539 10.8713C10.7539 12.1486 9.8398 13.1877 8.69136 13.1877ZM16.3242 13.1877C15.1914 13.1877 14.2617 12.1486 14.2617 10.8752C14.2617 9.60174 15.1718 8.55877 16.3242 8.55877C17.4843 8.55877 18.4062 9.60564 18.3867 10.8713C18.3867 12.1486 17.4804 13.1877 16.3242 13.1877Z" fill="white"/>
</svg>
