<svg width="161" height="160" viewBox="0 0 161 160" fill="none" xmlns="http://www.w3.org/2000/svg">
<path d="M23.3333 93.3333H46.6666C48.4347 93.3333 50.1304 92.6309 51.3807 91.3807C52.6309 90.1305 53.3333 88.4348 53.3333 86.6667C53.3333 84.8986 52.6309 83.2029 51.3807 81.9526C50.1304 80.7024 48.4347 80 46.6666 80H23.3333C17.1449 80 11.21 82.4583 6.83417 86.8342C2.45832 91.21 0 97.1449 0 103.333C0 109.522 2.45832 115.457 6.83417 119.832C11.21 124.208 17.1449 126.667 23.3333 126.667H116.667C119.319 126.667 121.862 127.72 123.738 129.596C125.613 131.471 126.667 134.014 126.667 136.667C126.667 139.319 125.613 141.862 123.738 143.738C121.862 145.613 119.319 146.667 116.667 146.667H73.3332C71.5651 146.667 69.8695 147.369 68.6192 148.619C67.369 149.869 66.6666 151.565 66.6666 153.333C66.6666 155.101 67.369 156.797 68.6192 158.047C69.8695 159.298 71.5651 160 73.3332 160H116.667C122.855 160 128.79 157.542 133.166 153.166C137.542 148.79 140 142.855 140 136.667C140 130.478 137.542 124.543 133.166 120.167C128.79 115.792 122.855 113.333 116.667 113.333H23.3333C20.6811 113.333 18.1376 112.28 16.2622 110.404C14.3869 108.529 13.3333 105.985 13.3333 103.333C13.3333 100.681 14.3869 98.1376 16.2622 96.2622C18.1376 94.3869 20.6811 93.3333 23.3333 93.3333Z" fill="black"/>
<path d="M126.668 2.06133e-06C125.792 -0.000686572 124.925 0.171172 124.116 0.505758C123.306 0.840345 122.571 1.3311 121.951 1.95L80.2848 43.6166C75.9524 47.9381 72.5187 53.0747 70.1816 58.73C67.8445 64.3853 66.6504 70.4474 66.6682 76.5666V86.6666C66.6682 88.4347 67.3705 90.1304 68.6208 91.3806C69.871 92.6308 71.5667 93.3332 73.3348 93.3332H83.4348C89.5659 93.351 95.6396 92.1523 101.304 89.8063C106.969 87.4604 112.111 84.014 116.435 79.6666L158.101 38C159.321 36.7528 160.003 35.0775 160.001 33.3333C160.001 24.4928 156.489 16.0143 150.238 9.7631C143.987 3.51189 135.509 2.06133e-06 126.668 2.06133e-06ZM107.001 70.2333C103.915 73.3391 100.242 75.8016 96.1968 77.4781C92.1515 79.1546 87.8137 80.0118 83.4348 79.9999H80.0015V76.5666C79.9896 72.1876 80.8468 67.8499 82.5233 63.8046C84.1997 59.7592 86.6623 56.0868 89.7681 52.9999L129.268 13.5C133.638 14.0723 137.697 16.0721 140.813 19.1885C143.929 22.3049 145.929 26.3634 146.501 30.7333L107.001 70.2333Z" fill="black"/>
</svg>
