<svg width="160" height="160" viewBox="0 0 160 160" fill="none" xmlns="http://www.w3.org/2000/svg">
<path d="M106.301 7H134.648C142.524 7 148.908 13.3845 148.908 21.2601V49.607C148.908 57.4826 142.524 63.8671 134.648 63.8671H106.301C98.4255 63.8671 92.041 57.4826 92.041 49.607V21.2601C92.041 13.3845 98.4255 7 106.301 7Z" stroke="black" stroke-width="14"/>
<path d="M93.4097 117.908L117.903 93.4138C118.583 92.7332 119.506 92.3508 120.469 92.3508C121.431 92.3508 122.354 92.7331 123.035 93.4137L147.529 117.907C148.21 118.587 148.592 119.511 148.592 120.473C148.592 121.436 148.21 122.36 147.529 123.04L123.036 147.534C122.355 148.215 121.432 148.597 120.47 148.597C119.507 148.597 118.584 148.215 117.904 147.534L93.4097 123.041C92.729 122.36 92.3465 121.437 92.3465 120.474C92.3465 119.512 92.7288 118.588 93.4097 117.908Z" stroke="black" stroke-width="14"/>
<path d="M21.2601 7H49.607C57.4826 7 63.8671 13.3845 63.8671 21.2601V49.607C63.8671 57.4826 57.4826 63.8671 49.607 63.8671H21.2601C13.3845 63.8671 7 57.4826 7 49.607V21.2601C7 13.3845 13.3845 7 21.2601 7Z" stroke="black" stroke-width="14"/>
<path d="M21.2601 92.041H49.607C57.4826 92.041 63.8671 98.4255 63.8671 106.301V134.648C63.8671 142.524 57.4826 148.908 49.607 148.908H21.2601C13.3845 148.908 7 142.524 7 134.648V106.301C7 98.4255 13.3845 92.041 21.2601 92.041Z" stroke="black" stroke-width="14"/>
</svg>
