<svg width="198" height="162" viewBox="0 0 198 162" fill="none" xmlns="http://www.w3.org/2000/svg">
<path d="M187.294 58.0705C184.687 55.4701 181.156 54.0098 177.474 54.0098C173.792 54.0098 170.261 55.4701 167.654 58.0705L101.275 124.442C93.7919 131.926 90.4055 154.33 90.0455 156.859C89.954 157.498 90.0008 158.148 90.1827 158.767C90.3646 159.385 90.6774 159.957 91.0999 160.445C91.5223 160.932 92.0446 161.322 92.6312 161.59C93.2178 161.857 93.8552 161.996 94.4999 161.995C94.7128 161.996 94.9253 161.98 95.1359 161.95C97.6655 161.59 120.07 158.203 127.553 150.72L193.932 84.3481C196.532 81.7417 197.993 78.2102 197.993 74.5285C197.993 70.8467 196.532 67.3153 193.932 64.7089L187.294 58.0705ZM103.294 139.476L112.538 148.721C108.436 150.059 104.256 151.145 100.022 151.975C100.861 147.746 101.956 143.572 103.301 139.476H103.294ZM187.56 77.9833L121.19 144.362C121.173 144.381 121.151 144.395 121.128 144.405C121.104 144.414 121.079 144.419 121.054 144.418C121.028 144.419 121.002 144.414 120.979 144.404C120.955 144.394 120.934 144.379 120.917 144.36L107.64 131.088C107.622 131.07 107.607 131.049 107.598 131.025C107.588 131.002 107.583 130.977 107.583 130.951C107.583 130.926 107.588 130.901 107.598 130.877C107.607 130.854 107.622 130.832 107.64 130.814L174.019 64.4425C174.937 63.528 176.18 63.0145 177.475 63.0145C178.771 63.0145 180.013 63.528 180.931 64.4425L187.56 71.0713C188.474 71.9893 188.987 73.2319 188.987 74.5273C188.987 75.8227 188.474 77.0653 187.56 77.9833Z" fill="white"/>
<path d="M175.5 0H22.5C16.5348 0.00698691 10.8159 2.37976 6.59781 6.59782C2.37976 10.8159 0.00698691 16.5348 0 22.5V130.5C0.00698691 136.465 2.37976 142.184 6.59781 146.402C10.8159 150.62 16.5348 152.993 22.5 153H76.5C77.6935 153 78.8381 152.526 79.682 151.682C80.5259 150.838 81 149.693 81 148.5C81 147.307 80.5259 146.162 79.682 145.318C78.8381 144.474 77.6935 144 76.5 144H72V121.5H85.5C86.6935 121.5 87.8381 121.026 88.682 120.182C89.5259 119.338 90 118.193 90 117C90 115.807 89.5259 114.662 88.682 113.818C87.8381 112.974 86.6935 112.5 85.5 112.5H9V40.5H189V45C189 46.1935 189.474 47.3381 190.318 48.182C191.162 49.0259 192.307 49.5 193.5 49.5C194.693 49.5 195.838 49.0259 196.682 48.182C197.526 47.3381 198 46.1935 198 45V22.5C197.993 16.5348 195.62 10.8159 191.402 6.59782C187.184 2.37976 181.465 0.00698691 175.5 0ZM63 121.5V144H40.5V121.5H63ZM31.5 121.5V144H22.5C18.9207 143.996 15.4892 142.573 12.9583 140.042C10.4274 137.511 9.00381 134.079 9 130.5V121.5H31.5ZM9 31.5V22.5C9.00381 18.9207 10.4274 15.4892 12.9583 12.9583C15.4892 10.4274 18.9207 9.00381 22.5 9H31.5V31.5H9ZM40.5 31.5V9H63V31.5H40.5ZM72 31.5V9H94.5V31.5H72ZM103.5 31.5V9H126V31.5H103.5ZM135 31.5V9H157.5V31.5H135ZM166.5 31.5V9H175.5C179.079 9.00381 182.511 10.4274 185.042 12.9583C187.573 15.4892 188.996 18.9207 189 22.5V31.5H166.5Z" fill="white"/>
</svg>
