<svg width="62" height="43" viewBox="0 0 62 43" fill="none" xmlns="http://www.w3.org/2000/svg">
<path fill-rule="evenodd" clip-rule="evenodd" d="M9.03492 0.796728C4.23501 1.17035 0.607001 5.03741 0.373343 9.80209C0.180833 13.7279 0 18.2454 0 21.3639C0 24.5181 0.184994 29.1036 0.379957 33.0603C0.611733 37.764 4.15669 41.6054 8.8897 42.0383C14.129 42.5177 21.7098 43 31 43C40.266 43 47.8316 42.5201 53.0694 42.0421C57.8207 41.6084 61.3727 37.7422 61.6013 33.0201C61.803 28.8542 62 24.0876 62 21.3639C62 18.6695 61.8072 13.9756 61.6078 9.84195C61.3771 5.05885 57.7434 1.16776 52.9251 0.793589C47.7679 0.393143 40.3293 0 31 0C21.6465 0 14.1936 0.39519 9.03492 0.796728ZM24.8 12.2468L40.7822 21.3639L24.8 30.481V12.2468Z" fill="white"/>
</svg>
