<svg width="21" height="21" viewBox="0 0 21 21" fill="none" xmlns="http://www.w3.org/2000/svg">
<path d="M16.377 0.377686H4.37692C3.31637 0.378857 2.29966 0.800568 1.54983 1.55056C0.799827 2.3004 0.37811 3.3171 0.376953 4.37765V16.3777C0.378125 17.4383 0.799836 18.455 1.54983 19.2048C2.29966 19.9548 3.31637 20.3765 4.37692 20.3777H16.377C17.4375 20.3767 18.4542 19.9548 19.2042 19.205C19.9541 18.455 20.376 17.4383 20.377 16.3777V4.37765C20.3759 3.3171 19.9541 2.3004 19.2042 1.55039C18.4542 0.800559 17.4375 0.378671 16.377 0.377686ZM18.3771 16.3776C18.3764 16.9078 18.1654 17.4162 17.7906 17.7912C17.4156 18.1661 16.9072 18.377 16.377 18.3777H4.37692C3.84673 18.3772 3.33831 18.1663 2.96331 17.7912C2.58831 17.4162 2.37736 16.9078 2.37685 16.3776V4.37757C2.37735 3.84738 2.58829 3.33896 2.96331 2.96396C3.33833 2.58896 3.84673 2.37801 4.37692 2.3775H16.377C16.9072 2.37817 17.4156 2.58911 17.7906 2.96396C18.1654 3.33896 18.3764 3.84738 18.3771 4.37757V16.3776Z" fill="#AE6E55"/>
<path d="M10.3768 5.9163C9.19358 5.9163 8.05884 6.38658 7.22231 7.22328C6.38573 8.05999 5.91584 9.19472 5.91602 10.378C5.91602 11.5612 6.38612 12.696 7.22282 13.5325C8.05953 14.369 9.19426 14.8391 10.3775 14.839C11.5608 14.839 12.6955 14.3689 13.532 13.5323C14.3687 12.6956 14.8387 11.5609 14.8387 10.3776C14.8373 9.19468 14.3669 8.06067 13.5304 7.22427C12.6938 6.38786 11.5598 5.9175 10.3768 5.9163ZM10.3768 12.8391C9.72411 12.8389 9.09813 12.5794 8.6366 12.1179C8.17503 11.6561 7.91591 11.03 7.91591 10.3773C7.91608 9.72457 8.1754 9.09842 8.63712 8.63706C9.09869 8.17549 9.72479 7.9162 10.3775 7.9162C11.0302 7.91637 11.6564 8.17569 12.1179 8.63723C12.5794 9.09878 12.8388 9.72491 12.8388 10.3776C12.8381 11.0303 12.5784 11.656 12.1169 12.1176C11.6553 12.579 11.0295 12.8384 10.3768 12.8391L10.3768 12.8391Z" fill="#AE6E55"/>
</svg>
