<svg width="13" height="20" viewBox="0 0 13 20" fill="none" xmlns="http://www.w3.org/2000/svg">
<path d="M2.50334 13.1855C2.56572 15.3087 2.56572 17.4011 2.28483 19.2742C2.25364 19.5552 2.12871 19.7737 1.94141 19.9299C1.9726 19.9299 2.00379 19.961 2.06633 19.961C2.59721 20.0234 3.00302 19.68 3.09675 19.2117C3.40898 17.2132 3.37779 14.934 3.31525 12.6858C3.03422 12.9356 2.75319 13.0917 2.50335 13.1855L2.50334 13.1855Z" fill="white"/>
<path d="M1.44209 6.00345C1.31716 5.53509 1.62939 5.03541 2.09773 4.94182C2.56609 4.8169 3.06577 5.12913 3.15936 5.59746C3.34667 6.40936 3.62772 6.9401 3.93994 7.22115L4.06486 5.81595C4.15859 4.84791 3.44039 3.97363 2.44117 3.88005C1.47313 3.78632 0.59885 4.50452 0.505265 5.50373L0.00573202 11.0618C-0.0254625 11.4677 0.0681204 11.9361 0.349157 12.3107C0.442885 14.6214 0.505273 16.9943 0.193041 18.9617C0.130652 19.4612 0.442884 19.8984 0.942415 19.9921C1.44195 20.0545 1.8791 19.7423 1.97284 19.2428C2.28507 17.3068 2.25387 15.1211 2.19134 12.9664C2.84698 12.8415 3.50281 12.2482 3.59654 11.4051L3.78385 9.21929C2.62864 8.7199 1.84806 7.68948 1.44211 6.00338L1.44209 6.00345Z" fill="white"/>
<path d="M2.72193 3.50577C3.68997 3.59949 4.53293 2.9125 4.65783 1.94446C4.75156 0.976411 4.06457 0.102135 3.09652 0.00855055C2.12848 -0.0851774 1.2542 0.601816 1.16062 1.56986C1.0357 2.53776 1.75388 3.41207 2.72193 3.50577Z" fill="white"/>
<path d="M5.22031 7.97072C4.15869 7.93953 3.34679 7.50236 2.90963 5.66004C2.84724 5.3478 2.50368 5.1605 2.19143 5.22288C1.87919 5.31661 1.66069 5.62883 1.75427 5.94108C2.2538 8.06431 3.34675 9.09473 5.15775 9.15729H5.18895C5.50118 9.15729 5.78221 8.90744 5.78221 8.59523C5.78236 8.283 5.53251 8.00196 5.22027 7.97076L5.22031 7.97072Z" fill="white"/>
<path d="M12.4652 15.5585C12.4652 15.5585 11.2475 15.0589 11.1226 14.247L10.9977 12.0612C10.9977 12.0612 11.872 9.62561 11.6533 8.72012C11.6533 8.72012 12.1528 8.68893 11.9967 7.87702C11.9967 7.87702 11.6845 6.90897 10.779 6.94033C10.779 6.94033 10.5917 6.90913 10.4042 6.81541C10.4042 6.81541 9.99826 6.50317 9.84215 6.50317C9.84215 6.50317 9.52992 6.75302 9.62365 6.97154C9.62365 6.97154 9.93588 7.40869 10.1545 7.59601C10.1545 7.59601 10.0296 7.6272 9.68617 7.47109C9.68617 7.47109 9.49886 7.31497 9.37394 7.56482C9.37394 7.56482 9.34274 7.90824 9.77989 8.12688C9.77989 8.12688 10.3419 8.2518 10.2794 8.93877C10.2794 8.93877 10.3106 9.25101 9.87347 9.56325C9.87347 9.56325 9.46752 9.81309 9.40511 10.1565C9.40511 10.1565 8.93674 9.2822 8.03126 9.2822C8.03126 9.2822 7.25068 9.21981 7.50037 9.56324C7.50037 9.56324 6.68847 9.62562 7.03201 9.90666C7.03201 9.90666 7.28185 10.2814 7.78138 10.2501C7.78138 10.2501 8.46838 10.375 8.7806 10.9371C8.7806 10.9371 8.53075 13.1852 9.21775 14.3094C9.28014 14.4031 9.28014 14.4967 9.28014 14.5904C9.18642 15.0588 8.90537 16.464 9.37387 17.0884C9.37387 17.0884 9.84224 18.3062 8.81181 18.4623C8.81181 18.4623 8.53078 18.7433 8.78062 18.7745H9.49882C9.49882 18.7745 9.90477 17.8065 10.0921 17.7129C10.0921 17.7129 10.1545 17.588 10.0297 17.2757C10.0297 17.2757 9.8112 16.5575 10.1858 16.4638C10.1858 16.4638 10.498 16.5887 10.6542 17.1195C10.6542 17.1195 11.0913 17.9938 11.0601 18.6494C11.0601 18.6494 10.9977 19.0554 11.185 19.0866C11.185 19.0866 11.7471 19.2427 11.7159 18.9617L11.185 16.932C11.185 16.932 11.4036 15.8704 11.3724 15.4957C11.3724 15.4957 12.6213 16.2762 12.8711 15.9952C12.8086 15.9644 12.9648 15.6834 12.4652 15.5585Z" fill="white"/>
</svg>
