<svg width="195" height="101" viewBox="0 0 195 101" fill="none" xmlns="http://www.w3.org/2000/svg">
<path d="M2.25852 62V60.0824L9.46023 52.1989C10.3054 51.2756 11.0014 50.473 11.5483 49.7912C12.0952 49.1023 12.5 48.456 12.7628 47.8523C13.0327 47.2415 13.1676 46.6023 13.1676 45.9347C13.1676 45.1676 12.983 44.5036 12.6136 43.9425C12.2514 43.3814 11.7543 42.9482 11.1222 42.6428C10.4901 42.3374 9.77983 42.1847 8.99148 42.1847C8.15341 42.1847 7.42188 42.3587 6.79688 42.7067C6.17898 43.0476 5.69957 43.527 5.35867 44.1449C5.02486 44.7628 4.85795 45.4872 4.85795 46.3182H2.34375C2.34375 45.0398 2.63849 43.9176 3.22798 42.9517C3.81747 41.9858 4.62003 41.233 5.63565 40.6932C6.65838 40.1534 7.8054 39.8835 9.0767 39.8835C10.3551 39.8835 11.4879 40.1534 12.4751 40.6932C13.4624 41.233 14.2365 41.9609 14.7976 42.8771C15.3587 43.7933 15.6392 44.8125 15.6392 45.9347C15.6392 46.7372 15.4936 47.522 15.2024 48.2891C14.9183 49.049 14.4212 49.8977 13.7109 50.8352C13.0078 51.7656 12.0312 52.902 10.7812 54.2443L5.88068 59.4858V59.6562H16.0227V62H2.25852ZM85.1101 62V60.0824L92.3118 52.1989C93.157 51.2756 93.853 50.473 94.3999 49.7912C94.9467 49.1023 95.3516 48.456 95.6143 47.8523C95.8842 47.2415 96.0192 46.6023 96.0192 45.9347C96.0192 45.1676 95.8345 44.5036 95.4652 43.9425C95.103 43.3814 94.6058 42.9482 93.9737 42.6428C93.3416 42.3374 92.6314 42.1847 91.843 42.1847C91.005 42.1847 90.2734 42.3587 89.6484 42.7067C89.0305 43.0476 88.5511 43.527 88.2102 44.1449C87.8764 44.7628 87.7095 45.4872 87.7095 46.3182H85.1953C85.1953 45.0398 85.4901 43.9176 86.0795 42.9517C86.669 41.9858 87.4716 41.233 88.4872 40.6932C89.5099 40.1534 90.657 39.8835 91.9283 39.8835C93.2067 39.8835 94.3395 40.1534 95.3267 40.6932C96.3139 41.233 97.0881 41.9609 97.6491 42.8771C98.2102 43.7933 98.4908 44.8125 98.4908 45.9347C98.4908 46.7372 98.3452 47.522 98.054 48.2891C97.7699 49.049 97.2727 49.8977 96.5625 50.8352C95.8594 51.7656 94.8828 52.902 93.6328 54.2443L88.7322 59.4858V59.6562H98.8743V62H85.1101Z" fill="#750D37"/>
<path d="M31.4169 40.1818V62H28.9027V40.1818H31.4169ZM36.0218 62V45.6364H38.536V62H36.0218ZM37.3002 42.9091C36.8102 42.9091 36.3876 42.7422 36.0325 42.4084C35.6845 42.0746 35.5105 41.6733 35.5105 41.2045C35.5105 40.7358 35.6845 40.3345 36.0325 40.0007C36.3876 39.6669 36.8102 39.5 37.3002 39.5C37.7903 39.5 38.2093 39.6669 38.5574 40.0007C38.9125 40.3345 39.09 40.7358 39.09 41.2045C39.09 41.6733 38.9125 42.0746 38.5574 42.4084C38.2093 42.7422 37.7903 42.9091 37.3002 42.9091ZM56.5217 45.6364L50.4705 62H47.9137L41.8626 45.6364H44.5898L49.1069 58.6761H49.2773L53.7944 45.6364H56.5217ZM66.1151 62.3409C64.5384 62.3409 63.1783 61.9929 62.0348 61.2969C60.8984 60.5938 60.0213 59.6136 59.4034 58.3565C58.7926 57.0923 58.4872 55.6222 58.4872 53.946C58.4872 52.2699 58.7926 50.7926 59.4034 49.5142C60.0213 48.2287 60.8807 47.2273 61.9815 46.5099C63.0895 45.7855 64.3821 45.4233 65.8594 45.4233C66.7116 45.4233 67.5533 45.5653 68.3842 45.8494C69.2152 46.1335 69.9716 46.5952 70.6534 47.2344C71.3352 47.8665 71.8786 48.7045 72.2834 49.7486C72.6882 50.7926 72.8906 52.0781 72.8906 53.6051V54.6705H60.277V52.4972H70.3338C70.3338 51.5739 70.1491 50.75 69.7798 50.0256C69.4176 49.3011 68.8991 48.7294 68.2244 48.3104C67.5568 47.8913 66.7685 47.6818 65.8594 47.6818C64.858 47.6818 63.9915 47.9304 63.2599 48.4276C62.5355 48.9176 61.978 49.5568 61.5874 50.3452C61.1967 51.1335 61.0014 51.9787 61.0014 52.8807V54.3295C61.0014 55.5653 61.2145 56.6129 61.6406 57.4723C62.0739 58.3246 62.674 58.9744 63.4411 59.4219C64.2081 59.8622 65.0994 60.0824 66.1151 60.0824C66.7756 60.0824 67.3722 59.9901 67.9048 59.8054C68.4446 59.6136 68.9098 59.3295 69.3004 58.9531C69.6911 58.5696 69.9929 58.0937 70.206 57.5256L72.6349 58.2074C72.3793 59.0312 71.9496 59.7557 71.3459 60.3807C70.7422 60.9986 69.9964 61.4815 69.1087 61.8295C68.2209 62.1705 67.223 62.3409 66.1151 62.3409ZM109.922 68.4773C108.707 68.4773 107.663 68.321 106.79 68.0085C105.916 67.7031 105.188 67.2983 104.606 66.794C104.031 66.2969 103.572 65.7642 103.232 65.196L105.234 63.7898C105.462 64.0881 105.749 64.429 106.097 64.8125C106.445 65.2031 106.921 65.5405 107.525 65.8246C108.136 66.1158 108.935 66.2614 109.922 66.2614C111.243 66.2614 112.333 65.9418 113.192 65.3026C114.052 64.6634 114.482 63.6619 114.482 62.2983V58.9744H114.268C114.084 59.2727 113.821 59.642 113.48 60.0824C113.146 60.5156 112.663 60.9027 112.031 61.2436C111.406 61.5774 110.561 61.7443 109.496 61.7443C108.175 61.7443 106.989 61.4318 105.938 60.8068C104.893 60.1818 104.066 59.2727 103.455 58.0795C102.852 56.8864 102.55 55.4375 102.55 53.733C102.55 52.0568 102.844 50.5973 103.434 49.3544C104.023 48.1044 104.844 47.1385 105.895 46.4567C106.946 45.7678 108.161 45.4233 109.538 45.4233C110.604 45.4233 111.449 45.6009 112.074 45.956C112.706 46.304 113.189 46.7017 113.523 47.1491C113.864 47.5895 114.126 47.9517 114.311 48.2358H114.567V45.6364H116.996V62.4688C116.996 63.875 116.676 65.0185 116.037 65.8991C115.405 66.7869 114.553 67.4368 113.48 67.8487C112.415 68.2678 111.229 68.4773 109.922 68.4773ZM109.837 59.4858C110.845 59.4858 111.697 59.255 112.393 58.7933C113.089 58.3317 113.619 57.6676 113.981 56.8011C114.343 55.9347 114.524 54.8977 114.524 53.6903C114.524 52.5114 114.347 51.4709 113.991 50.5689C113.636 49.6669 113.111 48.9602 112.415 48.4489C111.719 47.9375 110.859 47.6818 109.837 47.6818C108.771 47.6818 107.884 47.9517 107.173 48.4915C106.47 49.0312 105.941 49.7557 105.586 50.6648C105.238 51.5739 105.064 52.5824 105.064 53.6903C105.064 54.8267 105.241 55.8317 105.597 56.7053C105.959 57.5717 106.491 58.2536 107.195 58.7507C107.905 59.2408 108.786 59.4858 109.837 59.4858ZM128.459 62.3409C126.882 62.3409 125.522 61.9929 124.379 61.2969C123.242 60.5938 122.365 59.6136 121.747 58.3565C121.136 57.0923 120.831 55.6222 120.831 53.946C120.831 52.2699 121.136 50.7926 121.747 49.5142C122.365 48.2287 123.224 47.2273 124.325 46.5099C125.433 45.7855 126.726 45.4233 128.203 45.4233C129.055 45.4233 129.897 45.5653 130.728 45.8494C131.559 46.1335 132.315 46.5952 132.997 47.2344C133.679 47.8665 134.222 48.7045 134.627 49.7486C135.032 50.7926 135.234 52.0781 135.234 53.6051V54.6705H122.621V52.4972H132.678C132.678 51.5739 132.493 50.75 132.124 50.0256C131.761 49.3011 131.243 48.7294 130.568 48.3104C129.901 47.8913 129.112 47.6818 128.203 47.6818C127.202 47.6818 126.335 47.9304 125.604 48.4276C124.879 48.9176 124.322 49.5568 123.931 50.3452C123.54 51.1335 123.345 51.9787 123.345 52.8807V54.3295C123.345 55.5653 123.558 56.6129 123.984 57.4723C124.418 58.3246 125.018 58.9744 125.785 59.4219C126.552 59.8622 127.443 60.0824 128.459 60.0824C129.119 60.0824 129.716 59.9901 130.249 59.8054C130.788 59.6136 131.254 59.3295 131.644 58.9531C132.035 58.5696 132.337 58.0937 132.55 57.5256L134.979 58.2074C134.723 59.0312 134.293 59.7557 133.69 60.3807C133.086 60.9986 132.34 61.4815 131.452 61.8295C130.565 62.1705 129.567 62.3409 128.459 62.3409ZM146.175 45.6364V47.767H137.695V45.6364H146.175ZM140.167 41.7159H142.681V57.3125C142.681 58.0227 142.784 58.5554 142.99 58.9105C143.203 59.2585 143.473 59.4929 143.8 59.6136C144.134 59.7273 144.485 59.7841 144.854 59.7841C145.131 59.7841 145.359 59.7699 145.536 59.7415C145.714 59.706 145.856 59.6776 145.962 59.6562L146.474 61.9148C146.303 61.9787 146.065 62.0426 145.76 62.1065C145.455 62.1776 145.067 62.2131 144.599 62.2131C143.888 62.2131 143.192 62.0604 142.511 61.755C141.836 61.4496 141.275 60.9844 140.827 60.3594C140.387 59.7344 140.167 58.946 140.167 57.9943V41.7159ZM152.823 52.1562V62H150.309V40.1818H152.823V48.1932H153.036C153.42 47.348 153.995 46.6768 154.762 46.1797C155.536 45.6754 156.566 45.4233 157.852 45.4233C158.967 45.4233 159.943 45.647 160.781 46.0945C161.619 46.5348 162.269 47.2131 162.731 48.1293C163.2 49.0384 163.434 50.196 163.434 51.6023V62H160.92V51.7727C160.92 50.473 160.582 49.468 159.908 48.7578C159.24 48.0405 158.313 47.6818 157.127 47.6818C156.303 47.6818 155.565 47.8558 154.911 48.2038C154.265 48.5518 153.754 49.0597 153.377 49.7273C153.008 50.3949 152.823 51.2045 152.823 52.1562ZM174.894 62.3409C173.318 62.3409 171.958 61.9929 170.814 61.2969C169.678 60.5938 168.801 59.6136 168.183 58.3565C167.572 57.0923 167.267 55.6222 167.267 53.946C167.267 52.2699 167.572 50.7926 168.183 49.5142C168.801 48.2287 169.66 47.2273 170.761 46.5099C171.869 45.7855 173.161 45.4233 174.639 45.4233C175.491 45.4233 176.333 45.5653 177.164 45.8494C177.994 46.1335 178.751 46.5952 179.433 47.2344C180.115 47.8665 180.658 48.7045 181.063 49.7486C181.468 50.7926 181.67 52.0781 181.67 53.6051V54.6705H169.056V52.4972H179.113C179.113 51.5739 178.928 50.75 178.559 50.0256C178.197 49.3011 177.678 48.7294 177.004 48.3104C176.336 47.8913 175.548 47.6818 174.639 47.6818C173.637 47.6818 172.771 47.9304 172.039 48.4276C171.315 48.9176 170.757 49.5568 170.367 50.3452C169.976 51.1335 169.781 51.9787 169.781 52.8807V54.3295C169.781 55.5653 169.994 56.6129 170.42 57.4723C170.853 58.3246 171.453 58.9744 172.22 59.4219C172.987 59.8622 173.879 60.0824 174.894 60.0824C175.555 60.0824 176.151 59.9901 176.684 59.8054C177.224 59.6136 177.689 59.3295 178.08 58.9531C178.47 58.5696 178.772 58.0937 178.985 57.5256L181.414 58.2074C181.159 59.0312 180.729 59.7557 180.125 60.3807C179.521 60.9986 178.776 61.4815 177.888 61.8295C177 62.1705 176.002 62.3409 174.894 62.3409ZM185.494 62V45.6364H187.923V48.108H188.094C188.392 47.2983 188.932 46.6413 189.713 46.1371C190.494 45.6328 191.375 45.3807 192.355 45.3807C192.54 45.3807 192.771 45.3842 193.048 45.3913C193.325 45.3984 193.534 45.4091 193.676 45.4233V47.9801C193.591 47.9588 193.396 47.9268 193.09 47.8842C192.792 47.8345 192.476 47.8097 192.142 47.8097C191.347 47.8097 190.637 47.9766 190.012 48.3104C189.394 48.6371 188.904 49.0916 188.541 49.674C188.186 50.2493 188.009 50.9062 188.009 51.6449V62H185.494Z" fill="#210124"/>
<line y1="-2" x2="56.0803" y2="-2" transform="matrix(0.766758 0.641937 0.766758 -0.641937 98 0)" stroke="black" stroke-width="4"/>
<line y1="-2" x2="56.0803" y2="-2" transform="matrix(-0.766758 0.641937 -0.766758 -0.641937 98 0)" stroke="black" stroke-width="4"/>
<path d="M55 85V99H141V85" stroke="black" stroke-width="4"/>
<path d="M15.8622 79L13.277 69.5455H14.4403L16.4162 77.2457H16.5085L18.5213 69.5455H19.8139L21.8267 77.2457H21.919L23.8949 69.5455H25.0582L22.473 79H21.2912L19.2045 71.4659H19.1307L17.044 79H15.8622ZM28.5575 79.1477C27.9174 79.1477 27.3557 78.9954 26.8725 78.6907C26.3924 78.386 26.0169 77.9598 25.7461 77.4119C25.4783 76.8641 25.3445 76.224 25.3445 75.4915C25.3445 74.7528 25.4783 74.1081 25.7461 73.5572C26.0169 73.0063 26.3924 72.5785 26.8725 72.2738C27.3557 71.9691 27.9174 71.8168 28.5575 71.8168C29.1977 71.8168 29.7578 71.9691 30.2379 72.2738C30.7211 72.5785 31.0966 73.0063 31.3643 73.5572C31.6352 74.1081 31.7706 74.7528 31.7706 75.4915C31.7706 76.224 31.6352 76.8641 31.3643 77.4119C31.0966 77.9598 30.7211 78.386 30.2379 78.6907C29.7578 78.9954 29.1977 79.1477 28.5575 79.1477ZM28.5575 78.169C29.0438 78.169 29.4439 78.0444 29.7578 77.7951C30.0717 77.5458 30.3041 77.218 30.4549 76.8118C30.6057 76.4055 30.6811 75.9654 30.6811 75.4915C30.6811 75.0175 30.6057 74.5759 30.4549 74.1665C30.3041 73.7572 30.0717 73.4264 29.7578 73.174C29.4439 72.9216 29.0438 72.7955 28.5575 72.7955C28.0713 72.7955 27.6712 72.9216 27.3572 73.174C27.0433 73.4264 26.811 73.7572 26.6602 74.1665C26.5094 74.5759 26.4339 75.0175 26.4339 75.4915C26.4339 75.9654 26.5094 76.4055 26.6602 76.8118C26.811 77.218 27.0433 77.5458 27.3572 77.7951C27.6712 78.0444 28.0713 78.169 28.5575 78.169ZM34.5232 74.7344V79H33.4337V69.5455H34.5232V73.017H34.6155C34.7817 72.6508 35.031 72.36 35.3634 72.1445C35.6988 71.926 36.1451 71.8168 36.7021 71.8168C37.1853 71.8168 37.6085 71.9137 37.9717 72.1076C38.3348 72.2984 38.6164 72.5923 38.8165 72.9893C39.0196 73.3833 39.1212 73.8849 39.1212 74.4943V79H38.0317V74.5682C38.0317 74.005 37.8855 73.5695 37.5931 73.2617C37.3038 72.9509 36.9022 72.7955 36.3882 72.7955C36.0312 72.7955 35.7111 72.8709 35.428 73.0217C35.1479 73.1725 34.9263 73.3925 34.7632 73.6818C34.6032 73.9711 34.5232 74.322 34.5232 74.7344ZM42.2038 74.7344V79H41.1143V71.9091H42.1669V73.017H42.2592C42.4254 72.657 42.6778 72.3677 43.0163 72.1491C43.3549 71.9276 43.7919 71.8168 44.3274 71.8168C44.8075 71.8168 45.2276 71.9152 45.5877 72.1122C45.9478 72.3061 46.2279 72.6016 46.4279 72.9986C46.628 73.3925 46.728 73.8911 46.728 74.4943V79H45.6385V74.5682C45.6385 74.0111 45.4938 73.5772 45.2045 73.2663C44.9152 72.9524 44.5182 72.7955 44.0135 72.7955C43.6657 72.7955 43.3549 72.8709 43.081 73.0217C42.8101 73.1725 42.5962 73.3925 42.4393 73.6818C42.2823 73.9711 42.2038 74.322 42.2038 74.7344ZM51.6919 79.1477C51.0086 79.1477 50.4192 78.9969 49.9237 78.6953C49.4313 78.3906 49.0512 77.9659 48.7835 77.4212C48.5188 76.8733 48.3865 76.2363 48.3865 75.5099C48.3865 74.7836 48.5188 74.1435 48.7835 73.5895C49.0512 73.0324 49.4236 72.5985 49.9007 72.2876C50.3808 71.9737 50.9409 71.8168 51.5811 71.8168C51.9504 71.8168 52.3151 71.8783 52.6752 72.0014C53.0352 72.1245 53.363 72.3246 53.6585 72.6016C53.9539 72.8755 54.1894 73.2386 54.3648 73.6911C54.5402 74.1435 54.6279 74.7005 54.6279 75.3622V75.8239H49.162V74.8821H53.52C53.52 74.482 53.44 74.125 53.2799 73.8111C53.123 73.4972 52.8983 73.2494 52.6059 73.0678C52.3166 72.8862 51.975 72.7955 51.5811 72.7955C51.1471 72.7955 50.7716 72.9032 50.4546 73.1186C50.1407 73.331 49.8991 73.608 49.7298 73.9496C49.5606 74.2912 49.4759 74.6574 49.4759 75.0483V75.6761C49.4759 76.2116 49.5683 76.6656 49.7529 77.038C49.9407 77.4073 50.2007 77.6889 50.5331 77.8828C50.8655 78.0736 51.2517 78.169 51.6919 78.169C51.9781 78.169 52.2366 78.129 52.4674 78.049C52.7013 77.9659 52.9029 77.8428 53.0722 77.6797C53.2414 77.5135 53.3722 77.3073 53.4646 77.0611L54.5171 77.3565C54.4063 77.7135 54.2201 78.0275 53.9585 78.2983C53.6969 78.5661 53.3738 78.7753 52.9891 78.9261C52.6044 79.0739 52.172 79.1477 51.6919 79.1477ZM57.3747 74.7344V79H56.2852V71.9091H57.3378V73.017H57.4301C57.5963 72.657 57.8487 72.3677 58.1872 72.1491C58.5258 71.9276 58.9628 71.8168 59.4983 71.8168C59.9784 71.8168 60.3985 71.9152 60.7586 72.1122C61.1187 72.3061 61.3988 72.6016 61.5988 72.9986C61.7989 73.3925 61.8989 73.8911 61.8989 74.4943V79H60.8094V74.5682C60.8094 74.0111 60.6647 73.5772 60.3754 73.2663C60.0861 72.9524 59.6891 72.7955 59.1844 72.7955C58.8366 72.7955 58.5258 72.8709 58.2519 73.0217C57.981 73.1725 57.7671 73.3925 57.6102 73.6818C57.4532 73.9711 57.3747 74.322 57.3747 74.7344ZM67.546 79V71.9091H68.5985V73.017H68.6909C68.8386 72.6385 69.0771 72.3446 69.4064 72.1353C69.7357 71.9229 70.1312 71.8168 70.5929 71.8168C71.0607 71.8168 71.45 71.9229 71.7608 72.1353C72.0748 72.3446 72.3194 72.6385 72.4949 73.017H72.5687C72.7503 72.6508 73.0227 72.36 73.3858 72.1445C73.749 71.926 74.1845 71.8168 74.6923 71.8168C75.3263 71.8168 75.8449 72.0153 76.248 72.4123C76.6512 72.8062 76.8528 73.4202 76.8528 74.2543V79H75.7633V74.2543C75.7633 73.7311 75.6202 73.3571 75.334 73.1325C75.0478 72.9078 74.7108 72.7955 74.323 72.7955C73.8244 72.7955 73.4382 72.9463 73.1642 73.2479C72.8903 73.5464 72.7534 73.925 72.7534 74.3835V79H71.6454V74.1435C71.6454 73.7403 71.5146 73.4156 71.253 73.1694C70.9914 72.9201 70.6544 72.7955 70.242 72.7955C69.9589 72.7955 69.6942 72.8709 69.448 73.0217C69.2048 73.1725 69.0079 73.3817 68.8571 73.6495C68.7093 73.9142 68.6355 74.2204 68.6355 74.5682V79H67.546ZM78.8448 79V71.9091H79.9343V79H78.8448ZM79.3988 70.7273C79.1864 70.7273 79.0033 70.6549 78.8494 70.5103C78.6986 70.3656 78.6232 70.1918 78.6232 69.9886C78.6232 69.7855 78.6986 69.6116 78.8494 69.467C79.0033 69.3223 79.1864 69.25 79.3988 69.25C79.6112 69.25 79.7927 69.3223 79.9435 69.467C80.0974 69.6116 80.1744 69.7855 80.1744 69.9886C80.1744 70.1918 80.0974 70.3656 79.9435 70.5103C79.7927 70.6549 79.6112 70.7273 79.3988 70.7273ZM85.0136 71.9091V72.8324H81.3389V71.9091H85.0136ZM82.4099 70.2102H83.4994V76.9688C83.4994 77.2765 83.544 77.5073 83.6333 77.6612C83.7256 77.812 83.8425 77.9136 83.9841 77.9659C84.1288 78.0152 84.2811 78.0398 84.4411 78.0398C84.5612 78.0398 84.6597 78.0336 84.7366 78.0213C84.8135 78.0059 84.8751 77.9936 84.9213 77.9844L85.1428 78.9631C85.069 78.9908 84.9659 79.0185 84.8335 79.0462C84.7012 79.0769 84.5335 79.0923 84.3303 79.0923C84.0226 79.0923 83.721 79.0262 83.4255 78.8938C83.1331 78.7615 82.89 78.5599 82.6961 78.2891C82.5053 78.0182 82.4099 77.6766 82.4099 77.2642V70.2102ZM90.4564 79V69.5455H91.6013V73.7557H96.6425V69.5455H97.7874V79H96.6425V74.7713H91.6013V79H90.4564ZM102.905 79.1477C102.222 79.1477 101.632 78.9969 101.137 78.6953C100.644 78.3906 100.264 77.9659 99.9964 77.4212C99.7317 76.8733 99.5993 76.2363 99.5993 75.5099C99.5993 74.7836 99.7317 74.1435 99.9964 73.5895C100.264 73.0324 100.637 72.5985 101.114 72.2876C101.594 71.9737 102.154 71.8168 102.794 71.8168C103.163 71.8168 103.528 71.8783 103.888 72.0014C104.248 72.1245 104.576 72.3246 104.871 72.6016C105.167 72.8755 105.402 73.2386 105.578 73.6911C105.753 74.1435 105.841 74.7005 105.841 75.3622V75.8239H100.375V74.8821H104.733C104.733 74.482 104.653 74.125 104.493 73.8111C104.336 73.4972 104.111 73.2494 103.819 73.0678C103.53 72.8862 103.188 72.7955 102.794 72.7955C102.36 72.7955 101.985 72.9032 101.668 73.1186C101.354 73.331 101.112 73.608 100.943 73.9496C100.773 74.2912 100.689 74.6574 100.689 75.0483V75.6761C100.689 76.2116 100.781 76.6656 100.966 77.038C101.154 77.4073 101.414 77.6889 101.746 77.8828C102.078 78.0736 102.465 78.169 102.905 78.169C103.191 78.169 103.449 78.129 103.68 78.049C103.914 77.9659 104.116 77.8428 104.285 77.6797C104.454 77.5135 104.585 77.3073 104.677 77.0611L105.73 77.3565C105.619 77.7135 105.433 78.0275 105.171 78.2983C104.91 78.5661 104.587 78.7753 104.202 78.9261C103.817 79.0739 103.385 79.1477 102.905 79.1477ZM107.498 79V71.9091H108.551V72.9801H108.625C108.754 72.6293 108.988 72.3446 109.326 72.1261C109.665 71.9076 110.046 71.7983 110.471 71.7983C110.551 71.7983 110.651 71.7998 110.771 71.8029C110.891 71.806 110.982 71.8106 111.044 71.8168V72.9247C111.007 72.9155 110.922 72.9016 110.79 72.8832C110.66 72.8616 110.523 72.8509 110.379 72.8509C110.034 72.8509 109.726 72.9232 109.456 73.0678C109.188 73.2094 108.975 73.4064 108.818 73.6587C108.665 73.908 108.588 74.1927 108.588 74.5128V79H107.498ZM112.132 79V78.169L116.157 72.9986V72.9247H112.261V71.9091H117.561V72.777L113.646 77.9105V77.9844H117.69V79H112.132ZM127.493 76.1009V71.9091H128.583V79H127.493V77.7997H127.419C127.253 78.1598 126.995 78.466 126.644 78.7184C126.293 78.9677 125.85 79.0923 125.314 79.0923C124.871 79.0923 124.477 78.9954 124.132 78.8015C123.788 78.6045 123.517 78.3091 123.32 77.9151C123.123 77.5181 123.025 77.018 123.025 76.4148V71.9091H124.114V76.3409C124.114 76.858 124.259 77.2704 124.548 77.5781C124.84 77.8859 125.213 78.0398 125.665 78.0398C125.936 78.0398 126.211 77.9705 126.491 77.832C126.775 77.6935 127.012 77.4812 127.202 77.195C127.396 76.9087 127.493 76.544 127.493 76.1009ZM131.668 74.7344V79H130.578V71.9091H131.631V73.017H131.723C131.889 72.657 132.142 72.3677 132.48 72.1491C132.819 71.9276 133.256 71.8168 133.791 71.8168C134.271 71.8168 134.691 71.9152 135.052 72.1122C135.412 72.3061 135.692 72.6016 135.892 72.9986C136.092 73.3925 136.192 73.8911 136.192 74.4943V79H135.102V74.5682C135.102 74.0111 134.958 73.5772 134.668 73.2663C134.379 72.9524 133.982 72.7955 133.477 72.7955C133.13 72.7955 132.819 72.8709 132.545 73.0217C132.274 73.1725 132.06 73.3925 131.903 73.6818C131.746 73.9711 131.668 74.322 131.668 74.7344ZM140.86 79.1477C140.269 79.1477 139.748 78.9985 139.295 78.6999C138.843 78.3983 138.489 77.9736 138.233 77.4258C137.978 76.8749 137.85 76.224 137.85 75.473C137.85 74.7282 137.978 74.0819 138.233 73.5341C138.489 72.9863 138.844 72.5631 139.3 72.2646C139.755 71.966 140.282 71.8168 140.879 71.8168C141.34 71.8168 141.705 71.8937 141.973 72.0476C142.244 72.1984 142.45 72.3707 142.591 72.5646C142.736 72.7554 142.848 72.9124 142.928 73.0355H143.021V69.5455H144.11V79H143.058V77.9105H142.928C142.848 78.0398 142.735 78.2029 142.587 78.3999C142.439 78.5937 142.228 78.7676 141.954 78.9215C141.68 79.0723 141.316 79.1477 140.86 79.1477ZM141.008 78.169C141.445 78.169 141.814 78.0552 142.116 77.8274C142.418 77.5966 142.647 77.2781 142.804 76.8718C142.961 76.4625 143.039 75.9901 143.039 75.4545C143.039 74.9252 142.962 74.462 142.808 74.065C142.655 73.6649 142.427 73.354 142.125 73.1325C141.824 72.9078 141.451 72.7955 141.008 72.7955C140.546 72.7955 140.162 72.9139 139.854 73.1509C139.549 73.3848 139.32 73.7034 139.166 74.1065C139.015 74.5066 138.94 74.956 138.94 75.4545C138.94 75.9593 139.017 76.4179 139.171 76.8303C139.328 77.2396 139.558 77.5658 139.863 77.8089C140.171 78.049 140.552 78.169 141.008 78.169ZM150.061 79V69.5455H151.206V73.7557H156.247V69.5455H157.392V79H156.247V74.7713H151.206V79H150.061ZM161.623 79.1662C161.174 79.1662 160.766 79.0816 160.4 78.9123C160.033 78.7399 159.742 78.4922 159.527 78.169C159.312 77.8428 159.204 77.4489 159.204 76.9872C159.204 76.581 159.284 76.2517 159.444 75.9993C159.604 75.7438 159.818 75.5438 160.086 75.3991C160.353 75.2545 160.649 75.1468 160.972 75.076C161.298 75.0021 161.626 74.9437 161.955 74.9006C162.386 74.8452 162.735 74.8036 163.003 74.7759C163.274 74.7451 163.471 74.6944 163.594 74.6236C163.72 74.5528 163.783 74.4297 163.783 74.2543V74.2173C163.783 73.7618 163.659 73.4079 163.409 73.1555C163.163 72.9032 162.789 72.777 162.288 72.777C161.768 72.777 161.36 72.8909 161.064 73.1186C160.769 73.3464 160.561 73.5895 160.441 73.848L159.407 73.4787C159.592 73.0478 159.838 72.7124 160.146 72.4723C160.456 72.2292 160.795 72.0599 161.161 71.9645C161.531 71.866 161.894 71.8168 162.251 71.8168C162.478 71.8168 162.74 71.8445 163.036 71.8999C163.334 71.9522 163.622 72.0614 163.899 72.2276C164.179 72.3938 164.411 72.6446 164.596 72.9801C164.781 73.3156 164.873 73.7649 164.873 74.3281V79H163.783V78.0398H163.728C163.654 78.1937 163.531 78.3583 163.359 78.5337C163.186 78.7092 162.957 78.8584 162.671 78.9815C162.385 79.1046 162.035 79.1662 161.623 79.1662ZM161.789 78.1875C162.22 78.1875 162.583 78.1029 162.879 77.9336C163.177 77.7643 163.402 77.5458 163.553 77.2781C163.706 77.0103 163.783 76.7287 163.783 76.4332V75.4361C163.737 75.4915 163.636 75.5423 163.479 75.5884C163.325 75.6315 163.146 75.67 162.943 75.7038C162.743 75.7346 162.548 75.7623 162.357 75.7869C162.169 75.8085 162.017 75.8269 161.9 75.8423C161.617 75.8793 161.352 75.9393 161.106 76.0224C160.863 76.1024 160.666 76.224 160.515 76.3871C160.367 76.5471 160.293 76.7656 160.293 77.0426C160.293 77.4212 160.433 77.7074 160.713 77.9013C160.997 78.0921 161.355 78.1875 161.789 78.1875ZM167.951 74.7344V79H166.861V71.9091H167.914V73.017H168.006C168.172 72.657 168.425 72.3677 168.763 72.1491C169.102 71.9276 169.539 71.8168 170.074 71.8168C170.555 71.8168 170.975 71.9152 171.335 72.1122C171.695 72.3061 171.975 72.6016 172.175 72.9986C172.375 73.3925 172.475 73.8911 172.475 74.4943V79H171.386V74.5682C171.386 74.0111 171.241 73.5772 170.952 73.2663C170.662 72.9524 170.265 72.7955 169.761 72.7955C169.413 72.7955 169.102 72.8709 168.828 73.0217C168.557 73.1725 168.343 73.3925 168.186 73.6818C168.029 73.9711 167.951 74.322 167.951 74.7344ZM177.143 79.1477C176.553 79.1477 176.031 78.9985 175.578 78.6999C175.126 78.3983 174.772 77.9736 174.517 77.4258C174.261 76.8749 174.134 76.224 174.134 75.473C174.134 74.7282 174.261 74.0819 174.517 73.5341C174.772 72.9863 175.128 72.5631 175.583 72.2646C176.039 71.966 176.565 71.8168 177.162 71.8168C177.624 71.8168 177.988 71.8937 178.256 72.0476C178.527 72.1984 178.733 72.3707 178.875 72.5646C179.019 72.7554 179.132 72.9124 179.212 73.0355H179.304V69.5455H180.393V79H179.341V77.9105H179.212C179.132 78.0398 179.018 78.2029 178.87 78.3999C178.722 78.5937 178.511 78.7676 178.238 78.9215C177.964 79.0723 177.599 79.1477 177.143 79.1477ZM177.291 78.169C177.728 78.169 178.098 78.0552 178.399 77.8274C178.701 77.5966 178.93 77.2781 179.087 76.8718C179.244 76.4625 179.322 75.9901 179.322 75.4545C179.322 74.9252 179.246 74.462 179.092 74.065C178.938 73.6649 178.71 73.354 178.408 73.1325C178.107 72.9078 177.734 72.7955 177.291 72.7955C176.83 72.7955 176.445 72.9139 176.137 73.1509C175.832 73.3848 175.603 73.7034 175.449 74.1065C175.298 74.5066 175.223 74.956 175.223 75.4545C175.223 75.9593 175.3 76.4179 175.454 76.8303C175.611 77.2396 175.842 77.5658 176.146 77.8089C176.454 78.049 176.836 78.169 177.291 78.169Z" fill="#210124"/>
</svg>
