<svg width="1337" height="993" viewBox="0 0 1337 993" fill="none" xmlns="http://www.w3.org/2000/svg">
<path fill-rule="evenodd" clip-rule="evenodd" d="M863.765 800.113C776.364 905.718 644.289 973 496.5 973C233.336 973 20 759.664 20 496.5C20 233.336 233.336 20 496.5 20C687.701 20 852.6 132.614 928.486 295.133C935.035 293.423 941.673 291.884 948.391 290.522C870.136 119.118 697.229 0 496.5 0C222.291 0 0 222.291 0 496.5C0 770.709 222.291 993 496.5 993C652.485 993 791.669 921.068 882.691 808.566C876.261 805.921 869.95 803.101 863.765 800.113Z" fill="url(#paint0_linear_150_6)"/>
<path d="M825.68 773.599V729.399C825.68 725.933 825.16 723.766 824.12 722.899C823.08 721.859 820.914 721.339 817.62 721.339H799.94C786.247 721.339 779.4 714.493 779.4 700.799V655.819C779.4 642.126 786.247 635.279 799.94 635.279H822.82C836.514 635.279 843.36 642.126 843.36 655.819V680.779H825.42V658.679C825.42 655.213 824.9 653.046 823.86 652.179C822.994 651.139 820.827 650.619 817.36 650.619H805.4C801.934 650.619 799.68 651.139 798.64 652.179C797.774 653.046 797.34 655.213 797.34 658.679V697.939C797.34 701.233 797.774 703.399 798.64 704.439C799.68 705.479 801.934 705.999 805.4 705.999H823.08C836.774 705.999 843.62 712.846 843.62 726.539V776.459C843.62 790.153 836.774 796.999 823.08 796.999H800.46C786.767 796.999 779.92 790.153 779.92 776.459V751.499H797.86V773.599C797.86 777.066 798.294 779.319 799.16 780.359C800.2 781.226 802.454 781.659 805.92 781.659H817.62C820.914 781.659 823.08 781.226 824.12 780.359C825.16 779.319 825.68 777.066 825.68 773.599Z" fill="black"/>
<path d="M917.499 635.279H935.179V776.459C935.179 790.153 928.332 796.999 914.639 796.999H888.119C874.425 796.999 867.579 790.153 867.579 776.459V635.279H885.259V773.599C885.259 777.066 885.779 779.319 886.819 780.359C887.859 781.226 890.026 781.659 893.319 781.659H909.439C912.732 781.659 914.899 781.226 915.939 780.359C916.979 779.319 917.499 777.066 917.499 773.599V635.279Z" fill="black"/>
<path d="M1016.11 635.279H1032.49V796.999H1012.99L979.446 671.679V796.999H963.066V635.279H983.866L1016.11 756.179V635.279Z" fill="black"/>
<path d="M467.816 361.475V271.671C467.816 264.135 466.56 259.321 464.048 257.227C461.536 254.715 456.512 253.459 448.976 253.459H386.176V379.687H448.976C456.512 379.687 461.536 378.641 464.048 376.547C466.56 374.035 467.816 369.011 467.816 361.475ZM467.816 539.199V442.487C467.816 434.951 466.56 430.137 464.048 428.043C461.536 425.531 456.512 424.275 448.976 424.275H386.176V557.411H448.976C456.512 557.411 461.536 556.365 464.048 554.271C466.56 551.759 467.816 546.735 467.816 539.199ZM329.656 208.871H465.932C505.287 208.871 524.964 227.293 524.964 264.135V363.987C524.964 386.177 516.591 399.155 499.844 402.923C516.591 407.11 524.964 419.251 524.964 439.347V546.735C524.964 583.578 505.287 601.999 465.932 601.999H329.656V208.871Z" fill="black"/>
<path d="M638.117 601.999H581.597V181.867H638.117V601.999Z" fill="black"/>
<path d="M807.51 295.535H864.03V601.999H807.51V577.507C802.068 593.835 789.089 601.999 768.574 601.999H745.966C708.286 601.999 689.446 583.578 689.446 546.735V351.427C689.446 314.166 708.286 295.535 745.966 295.535H768.574C789.089 295.535 802.068 303.699 807.51 320.027V295.535ZM764.806 556.155H786.786C794.322 556.155 799.556 554.481 802.486 551.131C805.836 547.782 807.51 542.13 807.51 534.175V363.359C807.51 355.405 805.836 349.753 802.486 346.403C799.556 343.054 794.322 341.379 786.786 341.379H764.806C757.27 341.379 752.246 342.635 749.734 345.147C747.222 347.241 745.966 352.055 745.966 359.591V537.943C745.966 545.479 747.222 550.503 749.734 553.015C752.246 555.109 757.27 556.155 764.806 556.155Z" fill="black"/>
<path d="M1092.84 392.247H1036.95V359.591C1036.95 352.055 1035.7 347.241 1033.18 345.147C1030.67 342.635 1025.65 341.379 1018.11 341.379H991.107C983.571 341.379 978.547 342.635 976.035 345.147C973.523 347.241 972.267 352.055 972.267 359.591V537.943C972.267 545.479 973.523 550.503 976.035 553.015C978.547 555.109 983.571 556.155 991.107 556.155H1018.11C1025.65 556.155 1030.67 555.109 1033.18 553.015C1035.7 550.503 1036.95 545.479 1036.95 537.943V505.287H1092.84V546.735C1092.84 583.578 1073.17 601.999 1033.81 601.999H974.151C935.215 601.999 915.747 583.578 915.747 546.735V351.427C915.747 314.166 935.215 295.535 974.151 295.535H1033.81C1073.17 295.535 1092.84 314.166 1092.84 351.427V392.247Z" fill="black"/>
<path d="M1334.36 295.535L1264.03 441.859L1334.36 601.999H1274.08L1206.25 441.859L1274.08 295.535H1334.36ZM1139.68 601.999V181.867H1196.2V601.999H1139.68Z" fill="black"/>
<defs>
<linearGradient id="paint0_linear_150_6" x1="474.195" y1="-1.05947e-05" x2="655.909" y2="707.132" gradientUnits="userSpaceOnUse">
<stop stop-color="#00FFFF"/>
<stop offset="1" stop-color="#006CA9"/>
</linearGradient>
</defs>
</svg>
