<svg width="92" height="92" viewBox="0 0 92 92" fill="none" xmlns="http://www.w3.org/2000/svg">
<path fill-rule="evenodd" clip-rule="evenodd" d="M87.9 72.6602L61.38 46.1402L87.9 19.6202C88.9336 18.6316 89.7593 17.4466 90.3288 16.1346C90.8982 14.8226 91.1998 13.4101 91.216 11.98C91.2321 10.5498 90.9625 9.13089 90.4228 7.80639C89.8832 6.48188 89.0844 5.27849 88.0735 4.26684C87.0625 3.25519 85.8596 2.45565 84.5355 1.91515C83.2113 1.37464 81.7925 1.10406 80.3624 1.11927C78.9323 1.13448 77.5196 1.43519 76.2072 2.00374C74.8949 2.57229 73.7093 3.39723 72.72 4.43016L46.19 31.0002L19.34 4.10016C17.3204 2.07921 14.5807 0.943321 11.7236 0.942383C8.86646 0.941446 6.12599 2.07553 4.10504 4.09516C2.08409 6.11478 0.948204 8.8545 0.947266 11.7116C0.946328 14.5687 2.08041 17.3092 4.10004 19.3302L31 46.1902L4.42004 72.7302C2.40704 74.7431 1.27616 77.4734 1.27616 80.3202C1.27616 83.167 2.40704 85.8972 4.42004 87.9102C6.43303 89.9231 9.16324 91.054 12.01 91.054C14.8568 91.054 17.587 89.9231 19.6 87.9102L46.14 61.3702L72.66 87.9002C74.6985 89.8346 77.4117 90.8965 80.2216 90.8597C83.0316 90.823 85.716 89.6904 87.7031 87.7033C89.6902 85.7162 90.8228 83.0317 90.8596 80.2217C90.8964 77.4118 89.8344 74.6986 87.9 72.6602Z" fill="white"/>
</svg>
