<svg width="965" height="964" viewBox="0 0 965 964" fill="none" xmlns="http://www.w3.org/2000/svg">
<path fill-rule="evenodd" clip-rule="evenodd" d="M502.198 15.4972L670.594 36.9569L739.13 151.262L489.001 119.387L470.073 267.917L356.841 222.266L385.092 0.57373L385.134 0.578989L502.198 15.4972ZM348.593 286.984L296.996 691.876C293.475 719.506 287.32 743.821 278.532 764.821L346.25 877.761C351.05 872.028 355.655 866.011 360.065 859.71C388.226 819.471 406.239 768.501 414.102 706.8L426.356 610.636L426.397 610.641L434.121 550.034L853.436 603.47L866.674 499.586L447.36 446.15L461.825 332.636L348.593 286.984ZM203.396 846.463C216.817 840.571 228.894 832.634 239.625 822.652L298.656 921.105C284.159 930.99 268.504 939.193 251.691 945.712C207.604 962.808 157.543 967.785 101.509 960.644C64.2815 955.9 30.5461 946.766 0.302654 933.243L30.7911 826.417C32.2433 827.411 33.7206 828.389 35.2229 829.35C57.7035 843.732 84.2117 852.869 114.747 856.76C148.431 861.053 177.98 857.62 203.396 846.463ZM951.758 178.359L818.799 161.415L750.263 47.1097L964.997 74.4744L951.758 178.359Z" fill="white"/>
</svg>
