<svg width="30" height="39" viewBox="0 0 30 39" fill="none" xmlns="http://www.w3.org/2000/svg">
<path d="M25.8223 6.52176C25.9125 6.53263 25.9886 6.51633 26.0603 6.49024C25.9831 6.45002 25.9027 6.45546 25.8223 6.52176Z" fill="white"/>
<path d="M29.4763 24.7819C29.3948 20.9048 29.5524 17.6745 29.2154 13.8257C28.8535 9.68993 30.2676 1.66625 28.172 1.04345C25.9068 0.368467 27.2894 6.03895 26.0623 6.49002C26.6079 6.77806 26.9731 9.39537 25.5634 9.13016C27.0351 11.0964 24.8156 14.3202 26.6079 17.7386C22.7874 16.8734 21.6493 12.5257 17.7386 11.9996C17.8516 11.679 18.0723 11.4638 18.5212 11.4779C17.531 11.0464 17.6984 9.70079 16.1734 10.4345C17.343 9.71384 15.4832 9.4258 15.13 9.39102C14.0822 7.78129 10.7877 4.98355 8.60844 5.21723C7.74433 4.96289 8.89973 4.70203 8.8693 4.43465C6.63893 2.926 4.77486 1.04997 2.08689 0C1.91299 0 1.73908 0 1.56517 0C0.246732 0.257601 0.60759 1.35213 0 1.82603C0 3.91293 0 5.99982 0 8.08671C0.264122 9.32581 0.815193 11.2127 0 11.4779C0 11.7388 0 11.9996 0 12.2605C0.7065 12.5561 0.304339 14.3485 0 15.13C0 15.2169 0 15.3039 0 15.3908C0.663023 17.1038 0.420639 18.8505 0 20.8689C0 20.9559 0 21.0428 0 21.1298C0.386945 22.195 0.623894 23.7515 0 24.5199C0 24.6069 0 24.6938 0 24.7808C1.09345 29.0796 -0.120648 35.1033 1.56517 38.0847C10.5138 33.1218 17.5843 26.2786 26.0862 20.8679C26.3938 27.9155 26.0633 31.4914 26.6079 38.0847C31.6654 40.3586 29.6067 31.0262 29.4763 24.7819ZM3.12817 34.4337C2.84448 30.8328 3.93466 29.0317 3.38903 26.0862C5.25093 26.0123 2.45428 25.2536 4.17161 24.521C3.91727 24.2547 3.65641 23.9938 3.38903 23.7384C4.25748 23.4678 3.96727 23.6699 4.43248 22.4341C4.28683 21.845 4.02488 22.7504 3.64989 22.1743C3.6575 21.3841 4.7542 20.6679 3.38903 20.6092C5.43679 19.832 3.33034 17.7082 4.43248 16.1745C4.02379 15.8006 4.22705 14.8148 3.38903 14.8702C5.03789 13.0507 3.53685 8.77908 3.91075 6.00091C6.44981 6.33025 6.69654 8.95408 9.38885 9.13125C13.5637 13.5876 19.1342 15.7528 23.7362 19.3049C16.9593 24.4384 10.2986 29.6915 3.12817 34.4337Z" fill="white"/>
</svg>
