<svg width="30" height="39" viewBox="0 0 30 39" fill="none" xmlns="http://www.w3.org/2000/svg">
<path d="M4.17773 6.52176C4.08752 6.53263 4.01144 6.51633 3.9397 6.49024C4.01687 6.45002 4.0973 6.45546 4.17773 6.52176Z" fill="white"/>
<path d="M0.523714 24.7819C0.605233 20.9048 0.447631 17.6745 0.784578 13.8257C1.14652 9.68993 -0.267565 1.66625 1.82802 1.04345C4.09317 0.368467 2.7106 6.03895 3.93774 6.49002C3.3921 6.77806 3.0269 9.39537 4.43664 9.13016C2.96495 11.0964 5.18444 14.3202 3.39211 17.7386C7.21264 16.8734 8.35065 12.5257 12.2614 11.9996C12.1484 11.679 11.9277 11.4638 11.4788 11.4779C12.469 11.0464 12.3016 9.70079 13.8266 10.4345C12.657 9.71384 14.5168 9.4258 14.87 9.39102C15.9178 7.78129 19.2123 4.98355 21.3916 5.21723C22.2557 4.96289 21.1003 4.70203 21.1307 4.43465C23.3611 2.926 25.2251 1.04997 27.9131 0C28.087 0 28.2609 0 28.4348 0C29.7533 0.257601 29.3924 1.35213 30 1.82603C30 3.91293 30 5.99982 30 8.08671C29.7359 9.32581 29.1848 11.2127 30 11.4779C30 11.7388 30 11.9996 30 12.2605C29.2935 12.5561 29.6957 14.3485 30 15.13C30 15.2169 30 15.3039 30 15.3908C29.337 17.1038 29.5794 18.8505 30 20.8689C30 20.9559 30 21.0428 30 21.1298C29.6131 22.195 29.3761 23.7515 30 24.5199C30 24.6069 30 24.6938 30 24.7808C28.9066 29.0796 30.1206 35.1033 28.4348 38.0847C19.4862 33.1218 12.4157 26.2786 3.91383 20.8679C3.60623 27.9155 3.93665 31.4914 3.39211 38.0847C-1.66535 40.3586 0.393283 31.0262 0.523714 24.7819ZM26.8718 34.4337C27.1555 30.8328 26.0653 29.0317 26.611 26.0862C24.7491 26.0123 27.5457 25.2536 25.8284 24.521C26.0827 24.2547 26.3436 23.9938 26.611 23.7384C25.7425 23.4678 26.0327 23.6699 25.5675 22.4341C25.7132 21.845 25.9751 22.7504 26.3501 22.1743C26.3425 21.3841 25.2458 20.6679 26.611 20.6092C24.5632 19.832 26.6697 17.7082 25.5675 16.1745C25.9762 15.8006 25.773 14.8148 26.611 14.8702C24.9621 13.0507 26.4631 8.77908 26.0892 6.00091C23.5502 6.33025 23.3035 8.95408 20.6112 9.13125C16.4363 13.5876 10.8658 15.7528 6.26376 19.3049C13.0407 24.4384 19.7014 29.6915 26.8718 34.4337Z" fill="white"/>
</svg>
