<svg width="161" height="161" viewBox="0 0 161 161" fill="none" xmlns="http://www.w3.org/2000/svg">
<path d="M21.7676 135.558C31.2206 145.583 43.1205 153.023 56.2832 157.128C51.4683 148.603 47.8764 139.446 45.6466 129.914C37.5553 131.197 29.5628 133.091 21.7676 135.558Z" fill="white"/>
<path d="M103.725 157.128H103.744C116.907 153.023 128.788 145.583 138.26 135.538C130.446 133.072 122.473 131.197 114.381 129.914C112.132 139.446 108.54 148.603 103.725 157.128Z" fill="white"/>
<path d="M58.9473 128.334C64.5124 148.996 73.0969 160.699 80.0237 160.699C86.9307 160.699 95.5153 148.996 101.08 128.334C87.0689 127.032 72.9585 127.032 58.9473 128.334Z" fill="white"/>
<path d="M56.2832 3.59375C43.1205 7.69859 31.2403 15.1385 21.7676 25.1636C29.5826 27.6502 37.5553 29.5251 45.6466 30.8079C47.8962 21.276 51.4683 12.1191 56.2832 3.59375Z" fill="white"/>
<path d="M42.9227 43.9088C32.7002 42.2905 22.6552 39.7251 12.9063 36.2715C5.54537 47.461 1.10515 60.3082 0 73.6686H39.9625C40.2584 63.6829 41.2452 53.7563 42.9227 43.9088Z" fill="white"/>
<path d="M39.9625 87.0488H0C1.10515 100.409 5.54537 113.256 12.9063 124.446C22.6552 120.992 32.7002 118.427 42.9227 116.789C41.2452 106.961 40.2584 97.0345 39.9625 87.0488Z" fill="white"/>
<path d="M56.0847 115.171C71.9906 113.592 88.0351 113.592 103.941 115.171C105.52 105.876 106.428 96.4819 106.664 87.0488H53.3613C53.598 96.4819 54.5061 105.876 56.0847 115.171Z" fill="white"/>
<path d="M103.941 45.5469C95.9882 46.3954 88.0154 46.8297 80.0228 46.8691C72.0103 46.8297 64.0377 46.3954 56.0847 45.5469C54.5061 54.8419 53.598 64.2355 53.3613 73.6686H106.664C106.428 64.2355 105.52 54.8419 103.941 45.5469Z" fill="white"/>
<path d="M101.08 32.3845C95.5153 11.7223 86.9307 0 80.0237 0C73.0969 0 64.5124 11.7223 58.9473 32.3845C72.9585 33.687 87.0689 33.687 101.08 32.3845Z" fill="white"/>
<path d="M138.26 25.1636C128.807 15.1385 116.927 7.69859 103.744 3.59375C108.56 12.1191 112.151 21.276 114.381 30.8079C122.472 29.5251 130.465 27.6305 138.26 25.1636Z" fill="white"/>
<path d="M120.066 73.6686H160.028C158.923 60.3082 154.483 47.461 147.122 36.2715C137.373 39.7251 127.328 42.2905 117.105 43.9285C118.783 53.7563 119.77 63.6829 120.066 73.6686Z" fill="white"/>
<path d="M117.105 116.809C127.328 118.427 137.373 120.992 147.122 124.446C154.483 113.256 158.923 100.409 160.028 87.0488H120.066C119.77 97.0345 118.783 106.961 117.105 116.809Z" fill="white"/>
</svg>
