<svg width="23" height="20" viewBox="0 0 23 20" fill="none" xmlns="http://www.w3.org/2000/svg">
<path d="M21.4004 4.84766C21.1551 3.92187 20.4349 3.19531 19.52 2.94922C17.8615 2.5 11.2121 2.5 11.2121 2.5C11.2121 2.5 4.56272 2.5 2.90426 2.94922C1.98938 3.19531 1.26916 3.92187 1.02389 4.84766C0.580078 6.52344 0.580078 10.0156 0.580078 10.0156C0.580078 10.0156 0.580078 13.5078 1.02389 15.1836C1.26916 16.1094 1.98938 16.8047 2.90426 17.0508C4.56272 17.5 11.2121 17.5 11.2121 17.5C11.2121 17.5 17.8615 17.5 19.52 17.0508C20.4349 16.8047 21.1551 16.1055 21.4004 15.1836C21.8442 13.5078 21.8442 10.0156 21.8442 10.0156C21.8442 10.0156 21.8442 6.52344 21.4004 4.84766ZM9.03978 13.1875V6.84375L14.5952 10.0156L9.03978 13.1875Z" fill="white"/>
</svg>
