<?xml version="1.0" encoding="UTF-8"?>
<svg id="Ebene_1" data-name="Ebene 1" xmlns="http://www.w3.org/2000/svg" viewBox="0 0 1023 460">
  <defs>
    <style>
      .cls-1 {
        letter-spacing: -.01em;
      }

      .cls-2 {
        fill: #b3dec1;
      }

      .cls-3 {
        font-family: MyriadPro-Regular, 'Myriad Pro';
        font-size: 12px;
      }

      .cls-4 {
        letter-spacing: .01em;
      }

      .cls-5 {
        letter-spacing: -.01em;
      }
    </style>
  </defs>
  <path class="cls-2" d="M863.39,300.47c-6.98,6.98-10.9,16.44-10.9,26.32v95.99c0,9.87-3.91,19.34-10.89,26.32-6.97,6.98-16.43,10.9-26.29,10.9H37.18c-9.86,0-19.32-3.92-26.29-10.9C3.92,442.12,0,432.65,0,422.78V37.22C0,27.35,3.92,17.88,10.89,10.9,17.86,3.92,27.32,0,37.18,0H815.31c9.86,0,19.32,3.92,26.29,10.9,6.97,6.98,10.89,16.45,10.89,26.32V103.44c0,9.87,3.92,19.34,10.89,26.32,6.97,6.98,16.43,10.9,26.29,10.9h133.33l-159.61,159.81Z"/>
  <text class="cls-3" transform="translate(85 88.52)"><tspan x="0" y="0">v</tspan><tspan class="cls-5" x="5.77" y="0">h</tspan><tspan x="12.28" y="0">vkgz</tspan><tspan class="cls-5" x="35.52" y="0">h</tspan><tspan class="cls-1" x="42.02" y="0">v</tspan><tspan x="47.68" y="0">gz</tspan><tspan class="cls-5" x="59.52" y="0">h</tspan><tspan x="66.02" y="0">vhz</tspan><tspan class="cls-4" x="83.59" y="0">k</tspan><tspan x="89.37" y="0">v</tspan></text>
</svg>