<svg width="609" height="292" viewBox="0 0 609 292" fill="none" xmlns="http://www.w3.org/2000/svg">
<path d="M0 166.136C7.52468 156.605 9.40585 142.221 9.40585 136.221V126.119H14.8926V95.1674H12.2799V89.5986H27.9563V95.1674H25.3435V126.119H50.1645V95.1674H47.5518V89.5986H63.2282V95.1674H60.6155V126.119H65.8409V136.221C65.8409 142.221 67.7221 156.605 75.2468 166.136V170.799H45.4616V147.876L45.3811 146.041C45.3481 145.289 45.1422 144.554 44.7792 143.895C44.6249 143.614 44.4434 143.35 44.2373 143.104L44.081 142.918C43.5252 142.257 42.8575 141.699 42.1083 141.269L41.6784 141.022C41.0682 140.672 40.4123 140.408 39.7294 140.239L39.4461 140.169C38.2491 139.872 36.9977 139.872 35.8007 140.169L35.5174 140.239C34.8345 140.408 34.1786 140.672 33.5684 141.022L33.2749 141.191C32.4367 141.672 31.6983 142.309 31.0995 143.067L30.8303 143.408C30.2305 144.385 29.8895 145.498 29.8393 146.643L29.7852 147.876V170.799H0V166.136Z" fill="#AE6E55"/>
<path fill-rule="evenodd" clip-rule="evenodd" d="M439.646 117.662V109.708H425.964V103.503C425.964 100.48 426.641 98.1869 427.993 96.6225C429.372 95.0581 431.612 94.2759 434.714 94.2759C436.067 94.2759 437.154 94.3952 437.976 94.6338C438.824 94.8725 439.487 95.0713 439.964 95.2304L442.669 87.1168C441.953 86.7986 440.866 86.4539 439.408 86.0827C437.949 85.7115 436.067 85.5259 433.76 85.5259C430.843 85.5259 428.072 86.1092 425.447 87.2759C422.822 88.4425 420.688 90.1925 419.044 92.5259C417.4 94.8592 416.578 97.7759 416.578 101.276V109.708H406.714V117.662H416.578V170.799H425.964V117.662H439.646ZM99.3011 170.043C102.456 171.501 105.97 172.23 109.841 172.23C113.394 172.23 116.403 171.7 118.869 170.64C121.335 169.579 123.311 168.293 124.795 166.782C126.28 165.27 127.341 163.852 127.977 162.526H128.455V170.799H137.841V130.549C137.841 125.696 137.045 121.825 135.455 118.935C133.864 116.045 131.862 113.884 129.449 112.452C127.063 111.02 124.583 110.079 122.011 109.628C119.466 109.151 117.212 108.912 115.25 108.912C112.174 108.912 109.045 109.336 105.864 110.185C102.708 111.007 99.7917 112.465 97.1136 114.56C94.4621 116.628 92.3409 119.518 90.75 123.23L99.6591 126.412C100.693 124.185 102.483 122.09 105.028 120.128C107.574 118.166 111.087 117.185 115.568 117.185C119.89 117.185 123.112 118.272 125.233 120.446C127.381 122.621 128.455 125.67 128.455 129.594V129.912C128.455 131.424 127.911 132.484 126.824 133.094C125.763 133.704 124.066 134.141 121.733 134.407C119.426 134.645 116.417 135.003 112.705 135.48C109.867 135.852 107.044 136.355 104.233 136.992C101.449 137.602 98.9034 138.53 96.5966 139.776C94.2898 141.022 92.447 142.746 91.0682 144.946C89.6894 147.121 89 149.958 89 153.458C89 157.435 89.928 160.829 91.7841 163.64C93.6402 166.424 96.1458 168.558 99.3011 170.043ZM120.659 161.611C118.114 163.069 114.985 163.799 111.273 163.799C107.534 163.799 104.445 162.977 102.006 161.333C99.5928 159.662 98.3864 157.196 98.3864 153.935C98.3864 151.549 99.0227 149.666 100.295 148.287C101.595 146.882 103.292 145.835 105.386 145.145C107.508 144.429 109.788 143.912 112.227 143.594C113.235 143.461 114.547 143.302 116.165 143.117C117.809 142.905 119.492 142.666 121.216 142.401C122.966 142.109 124.504 141.778 125.83 141.407C127.182 141.009 128.057 140.571 128.455 140.094V148.685C128.455 151.23 127.792 153.657 126.466 155.963C125.167 158.27 123.231 160.153 120.659 161.611ZM164.359 170.799V134.049C164.359 130.496 165.036 127.473 166.388 124.98C167.74 122.488 169.583 120.592 171.916 119.293C174.276 117.994 176.954 117.344 179.95 117.344C184.299 117.344 187.719 118.696 190.212 121.401C192.704 124.079 193.95 127.818 193.95 132.617V170.799H203.337V131.98C203.337 126.783 202.475 122.488 200.751 119.094C199.028 115.674 196.615 113.128 193.513 111.458C190.411 109.761 186.791 108.912 182.655 108.912C178.041 108.912 174.276 109.867 171.359 111.776C168.443 113.658 166.268 116.151 164.837 119.253H164.041V109.708H154.973V170.799H164.359ZM263.761 123.39L255.33 125.776C254.799 124.371 254.017 123.005 252.983 121.679C251.975 120.327 250.597 119.213 248.847 118.338C247.097 117.463 244.856 117.026 242.125 117.026C238.386 117.026 235.271 117.888 232.778 119.611C230.312 121.308 229.08 123.469 229.08 126.094C229.08 128.427 229.928 130.27 231.625 131.622C233.322 132.975 235.973 134.102 239.58 135.003L248.648 137.23C254.11 138.556 258.18 140.585 260.858 143.316C263.536 146.02 264.875 149.507 264.875 153.776C264.875 157.276 263.867 160.405 261.852 163.162C259.864 165.92 257.08 168.094 253.5 169.685C249.92 171.276 245.758 172.071 241.011 172.071C234.78 172.071 229.623 170.719 225.54 168.015C221.456 165.31 218.871 161.359 217.784 156.162L226.693 153.935C227.542 157.223 229.146 159.689 231.506 161.333C233.892 162.977 237.008 163.799 240.852 163.799C245.227 163.799 248.701 162.871 251.273 161.015C253.871 159.132 255.17 156.878 255.17 154.253C255.17 152.132 254.428 150.355 252.943 148.924C251.458 147.465 249.178 146.378 246.102 145.662L235.92 143.276C230.326 141.95 226.216 139.895 223.591 137.111C220.992 134.301 219.693 130.787 219.693 126.571C219.693 123.124 220.661 120.075 222.597 117.424C224.559 114.772 227.223 112.691 230.591 111.179C233.985 109.668 237.83 108.912 242.125 108.912C248.17 108.912 252.917 110.238 256.364 112.89C259.837 115.541 262.303 119.041 263.761 123.39ZM289.385 168.174C293.654 170.772 298.732 172.071 304.618 172.071C308.754 172.071 312.48 171.435 315.794 170.162C319.108 168.863 321.893 167.06 324.146 164.753C326.4 162.42 328.004 159.715 328.959 156.64L319.891 154.094C319.095 156.215 317.968 157.992 316.51 159.424C315.052 160.829 313.315 161.89 311.3 162.605C309.311 163.295 307.084 163.64 304.618 163.64C300.826 163.64 297.499 162.818 294.635 161.174C291.771 159.503 289.531 157.077 287.913 153.895C286.471 150.986 285.682 147.499 285.548 143.435H329.913V139.458C329.913 133.757 329.158 128.958 327.646 125.06C326.135 121.162 324.107 118.033 321.561 115.674C319.016 113.287 316.192 111.564 313.089 110.503C309.987 109.443 306.845 108.912 303.663 108.912C298.148 108.912 293.322 110.265 289.186 112.969C285.076 115.647 281.868 119.386 279.561 124.185C277.281 128.958 276.141 134.473 276.141 140.73C276.141 146.988 277.281 152.477 279.561 157.196C281.868 161.89 285.143 165.549 289.385 168.174ZM285.572 135.321C285.75 132.488 286.465 129.809 287.714 127.287C289.173 124.344 291.254 121.958 293.959 120.128C296.69 118.272 299.925 117.344 303.663 117.344C307.057 117.344 310 118.126 312.493 119.691C315.012 121.255 316.947 123.39 318.3 126.094C319.678 128.799 320.368 131.874 320.368 135.321H285.572ZM344.192 193.708V109.708H353.26V119.412H354.374C355.063 118.352 356.018 116.999 357.237 115.355C358.483 113.685 360.26 112.2 362.567 110.901C364.9 109.575 368.055 108.912 372.033 108.912C377.177 108.912 381.711 110.198 385.635 112.77C389.559 115.342 392.622 118.988 394.822 123.708C397.023 128.427 398.124 133.996 398.124 140.412C398.124 146.882 397.023 152.49 394.822 157.236C392.622 161.956 389.572 165.615 385.675 168.213C381.777 170.785 377.283 172.071 372.192 172.071C368.268 172.071 365.125 171.422 362.766 170.122C360.406 168.797 358.589 167.299 357.317 165.628C356.044 163.931 355.063 162.526 354.374 161.412H353.578V193.708H344.192ZM353.419 140.253C353.419 144.867 354.095 148.937 355.447 152.463C356.8 155.963 358.775 158.708 361.374 160.696C363.972 162.658 367.154 163.64 370.919 163.64C374.843 163.64 378.118 162.605 380.743 160.537C383.394 158.443 385.383 155.632 386.709 152.105C388.061 148.552 388.737 144.602 388.737 140.253C388.737 135.958 388.074 132.086 386.749 128.64C385.449 125.166 383.474 122.422 380.822 120.407C378.197 118.365 374.896 117.344 370.919 117.344C367.101 117.344 363.892 118.312 361.294 120.247C358.696 122.157 356.733 124.835 355.408 128.282C354.082 131.702 353.419 135.693 353.419 140.253ZM475.104 172.071C469.589 172.071 464.75 170.759 460.587 168.134C456.45 165.509 453.215 161.836 450.882 157.117C448.575 152.397 447.422 146.882 447.422 140.571C447.422 134.208 448.575 128.653 450.882 123.907C453.215 119.16 456.45 115.475 460.587 112.85C464.75 110.225 469.589 108.912 475.104 108.912C480.619 108.912 485.445 110.225 489.581 112.85C493.744 115.475 496.979 119.16 499.286 123.907C501.619 128.653 502.786 134.208 502.786 140.571C502.786 141.685 502.749 142.773 502.677 143.837C498.573 145.988 495.321 149.881 493.425 154.913C492.009 158.697 491.579 162.649 492.128 166.303C491.322 166.961 490.473 167.572 489.581 168.134C485.445 170.759 480.619 172.071 475.104 172.071ZM475.104 163.64C479.293 163.64 482.74 162.566 485.445 160.418C488.149 158.27 490.151 155.446 491.45 151.946C492.75 148.446 493.399 144.655 493.399 140.571C493.399 136.488 492.75 132.683 491.45 129.157C490.151 125.63 488.149 122.78 485.445 120.605C482.74 118.431 479.293 117.344 475.104 117.344C470.914 117.344 467.467 118.431 464.763 120.605C462.058 122.78 460.056 125.63 458.757 129.157C457.458 132.683 456.808 136.488 456.808 140.571C456.808 144.655 457.458 148.446 458.757 151.946C460.056 155.446 462.058 158.27 464.763 160.418C467.467 162.566 470.914 163.64 475.104 163.64ZM543.682 117.662V109.708H530.636V95.0713H521.25V109.708H512.023V117.662H521.25V138.76C523.83 134.84 527.105 132.031 530.636 130.511V117.662H543.682ZM579.583 168.559C578.225 168.043 576.835 167.745 575.439 167.65C576.134 166.168 576.7 164.569 577.103 162.942C578.857 163.407 580.742 163.64 582.759 163.64C585.224 163.64 587.452 163.295 589.44 162.605C591.456 161.89 593.192 160.829 594.651 159.424C596.109 157.992 597.236 156.215 598.031 154.094L607.099 156.64C606.145 159.715 604.541 162.42 602.287 164.753C600.033 167.06 597.249 168.863 593.935 170.162C591.178 171.221 588.136 171.839 584.81 172.017C583.38 170.494 581.618 169.308 579.583 168.559ZM572.502 143.435C571.044 142.131 569.313 141.124 567.343 140.481L567.343 140.482C563.09 139.098 558.404 139.851 554.304 142.236C554.289 141.739 554.281 141.237 554.281 140.73C554.281 134.473 555.421 128.958 557.702 124.185C560.009 119.386 563.217 115.647 567.327 112.969C571.463 110.265 576.289 108.912 581.804 108.912C584.986 108.912 588.128 109.443 591.23 110.503C594.332 111.564 597.156 113.287 599.702 115.674C602.247 118.033 604.276 121.162 605.787 125.06C607.298 128.958 608.054 133.757 608.054 139.458V143.435H572.502ZM565.855 127.287C564.605 129.809 563.891 132.488 563.712 135.321H598.509C598.509 131.874 597.819 128.799 596.44 126.094C595.088 123.39 593.152 121.255 590.634 119.691C588.141 118.126 585.198 117.344 581.804 117.344C578.065 117.344 574.831 118.272 572.099 120.128C569.395 121.958 567.313 124.344 565.855 127.287Z" fill="#AE6E55"/>
<path d="M434.287 208.648C436.253 201.338 433.349 193.868 427.55 191.268C421.686 188.643 414.967 191.359 410.836 198.036C409.598 200.043 408.683 202.35 408.255 204.532C406.695 212.614 409.711 219.173 415.971 221.587C416.309 221.717 416.663 221.841 417.025 221.943C424.02 224.013 430.133 220.134 433.369 211.583L433.567 210.969C433.815 210.199 434.072 209.433 434.286 208.649L434.287 208.648Z" fill="#476600"/>
<path d="M400.063 203.191C397.267 202.113 394.183 202.203 391.394 203.449C387.878 205.017 385.089 208.183 383.513 212.368C381.879 216.732 381.942 221.386 383.684 225.132C385.069 228.114 387.441 230.358 390.39 231.495L390.685 231.609C397.47 234.026 403.769 230.544 406.718 222.735C409.844 214.466 406.944 205.881 400.107 203.207L400.052 203.186L400.063 203.191Z" fill="#476600"/>
<path d="M452.435 200.866C446.392 198.9 439.225 202.485 435.773 209.222C435.406 209.947 435.072 210.683 434.748 211.425L434.484 212.013C431.134 220.534 433.065 227.502 439.638 230.664C439.975 230.832 440.321 230.977 440.659 231.108C446.919 233.522 453.562 230.676 457.828 223.65C458.987 221.75 459.859 219.426 460.278 217.103C461.699 209.382 458.555 202.861 452.435 200.865L452.435 200.866Z" fill="#476600"/>
<path d="M446.732 238.168C443.689 245.929 446.009 252.733 452.656 255.51L452.95 255.624C455.9 256.761 459.164 256.69 462.192 255.411C465.999 253.805 469.17 250.398 470.89 246.066C472.543 241.911 472.595 237.677 471.038 234.165C469.801 231.355 467.611 229.192 464.731 228.132C457.87 225.524 449.956 229.938 446.721 238.165L446.732 238.168Z" fill="#476600"/>
<path d="M408.622 231.665C405.68 234.672 403.49 235.081 401.569 235.081C396.473 235.086 391.595 237.258 388.194 241.066C384.797 244.863 383.174 249.984 383.753 255.088C384.5 261.676 389.296 267.265 395.534 269.67C397.773 270.534 400.198 270.98 402.692 270.925C403.248 270.914 403.798 270.888 404.348 270.861C408.726 270.605 413.012 272.245 416.121 275.376C416.546 275.803 416.986 276.224 417.437 276.649C424.336 283.098 435.408 283.478 442.115 277.507C445.969 274.087 448.171 269.189 448.182 264.086C448.185 258.968 446.002 254.086 442.195 250.685C439.756 248.515 439.313 246.9 439.367 244.839C439.538 238.505 436.767 232.806 431.964 229.611C430.637 228.723 429.269 228.008 427.893 227.477C421.208 224.899 413.649 226.539 408.638 231.659L408.622 231.665Z" fill="#476600"/>
<path d="M547.622 152.648C549.588 145.338 546.684 137.868 540.886 135.268C535.022 132.643 528.302 135.359 524.171 142.036C522.933 144.043 522.018 146.35 521.591 148.532C520.03 156.614 523.047 163.173 529.306 165.587C529.645 165.717 529.998 165.841 530.361 165.943C537.355 168.013 543.468 164.134 546.704 155.583L546.903 154.969C547.15 154.199 547.408 153.433 547.622 152.649L547.622 152.648Z" fill="#476600"/>
<path d="M513.399 147.191C510.602 146.113 507.518 146.203 504.73 147.449C501.214 149.017 498.424 152.183 496.848 156.368C495.215 160.732 495.277 165.386 497.019 169.132C498.404 172.114 500.777 174.358 503.725 175.495L504.02 175.609C510.806 178.026 517.105 174.544 520.054 166.735C523.18 158.466 520.279 149.881 513.443 147.207L513.388 147.186L513.399 147.191Z" fill="#476600"/>
<path d="M565.771 144.866C559.728 142.9 552.561 146.485 549.109 153.222C548.742 153.947 548.408 154.683 548.084 155.425L547.82 156.013C544.47 164.534 546.401 171.502 552.974 174.664C553.311 174.832 553.657 174.977 553.995 175.108C560.255 177.522 566.898 174.676 571.164 167.65C572.323 165.75 573.195 163.426 573.614 161.103C575.035 153.382 571.891 146.861 565.771 144.865L565.771 144.866Z" fill="#476600"/>
<path d="M560.068 182.168C557.025 189.929 559.344 196.733 565.991 199.51L566.286 199.624C569.235 200.761 572.5 200.69 575.528 199.411C579.334 197.805 582.506 194.398 584.226 190.066C585.878 185.911 585.93 181.677 584.373 178.165C583.136 175.355 580.946 173.192 578.067 172.132C571.205 169.524 563.292 173.938 560.056 182.165L560.068 182.168Z" fill="#476600"/>
<path d="M521.958 175.665C519.016 178.672 516.826 179.081 514.905 179.081C509.809 179.086 504.931 181.258 501.53 185.066C498.133 188.863 496.51 193.984 497.089 199.088C497.836 205.676 502.632 211.265 508.87 213.67C511.109 214.534 513.534 214.98 516.028 214.925C516.584 214.914 517.134 214.888 517.684 214.861C522.062 214.605 526.348 216.245 529.457 219.376C529.882 219.803 530.322 220.224 530.773 220.649C537.672 227.098 548.743 227.478 555.451 221.507C559.305 218.087 561.507 213.189 561.518 208.086C561.521 202.968 559.338 198.086 555.53 194.685C553.092 192.515 552.649 190.9 552.703 188.839C552.874 182.505 550.103 176.806 545.3 173.611C543.973 172.723 542.605 172.008 541.229 171.477C534.544 168.899 526.985 170.539 521.974 175.659L521.958 175.665Z" fill="#476600"/>
<path d="M491.622 29.4479C493.588 22.1375 490.684 14.6681 484.886 12.0678C479.022 9.44232 472.302 12.1587 468.171 18.8354C466.933 20.8429 466.018 23.15 465.591 25.3319C464.03 33.4139 467.047 39.9725 473.306 42.3865C473.645 42.517 473.998 42.6412 474.361 42.7433C481.355 44.8131 487.468 40.9342 490.704 32.3823L490.903 31.7693C491.15 30.9989 491.408 30.2327 491.622 29.4486L491.622 29.4479Z" fill="#476600"/>
<path d="M457.399 23.9912C454.603 22.9127 451.519 23.003 448.73 24.2487C445.214 25.8164 442.425 28.9824 440.848 33.1674C439.215 37.5319 439.278 42.1863 441.02 45.9323C442.405 48.9137 444.777 51.1581 447.726 52.2953L448.021 52.409C454.806 54.8254 461.105 51.3437 464.054 43.5347C467.18 35.2661 464.28 26.6812 457.443 24.007L457.388 23.9858L457.399 23.9912Z" fill="#476600"/>
<path d="M509.771 21.6663C503.728 19.7 496.561 23.2853 493.109 30.0226C492.742 30.7468 492.408 31.4834 492.084 32.2251L491.82 32.8129C488.47 41.3342 490.401 48.3021 496.974 51.4646C497.311 51.6322 497.657 51.7778 497.995 51.9083C504.255 54.3223 510.898 51.4759 515.164 44.4503C516.323 42.5505 517.195 40.2267 517.614 37.9033C519.035 30.1826 515.891 23.6614 509.771 21.6655L509.771 21.6663Z" fill="#476600"/>
<path d="M504.068 58.9677C501.025 66.7284 503.344 73.5329 509.991 76.3096L510.286 76.4234C513.235 77.5609 516.5 77.4893 519.528 76.2107C523.334 74.6046 526.506 71.1974 528.226 66.8663C529.878 62.7104 529.93 58.4766 528.373 54.965C527.136 52.1544 524.946 49.9916 522.067 48.9321C515.205 46.3234 507.292 50.7378 504.056 58.9643L504.068 58.9677Z" fill="#476600"/>
<path d="M465.957 52.4651C463.016 55.4716 460.825 55.8813 458.905 55.8812C453.809 55.8862 448.93 58.0573 445.53 61.8656C442.133 65.6629 440.51 70.784 441.088 75.888C441.835 82.4755 446.632 88.0645 452.869 90.47C455.108 91.3336 457.533 91.7795 460.027 91.725C460.584 91.7139 461.133 91.6876 461.683 91.6609C466.062 91.4045 470.347 93.045 473.457 96.1759C473.882 96.6033 474.322 97.0241 474.773 97.4483C481.671 103.898 492.743 104.278 499.45 98.3069C503.304 94.8869 505.506 89.9892 505.517 84.886C505.521 79.7678 503.338 74.8856 499.53 71.4845C497.092 69.3143 496.648 67.6998 496.702 65.6385C496.873 59.3051 494.102 53.6062 489.299 50.4112C487.973 49.5232 486.605 48.8075 485.229 48.2768C478.543 45.6985 470.984 47.3385 465.974 52.4584L465.957 52.4651Z" fill="#476600"/>
</svg>
