<?xml version="1.0" encoding="UTF-8" standalone="no"?>
<!-- Created with Inkscape (http://www.inkscape.org/) -->

<svg
   xmlns:dc="http://purl.org/dc/elements/1.1/"
   xmlns:cc="http://creativecommons.org/ns#"
   xmlns:rdf="http://www.w3.org/1999/02/22-rdf-syntax-ns#"
   xmlns:svg="http://www.w3.org/2000/svg"
   xmlns="http://www.w3.org/2000/svg"
   version="1.1"
   width="835"
   height="700"
   id="svg3862">
  <defs
     id="defs3864">
    <clipPath
       id="clipPath3442">
      <path
         d="m 0,0 595.276,0 0,841.89 L 0,841.89 0,0 z"
         id="path3444" />
    </clipPath>
    <clipPath
       id="clipPath3460">
      <path
         d="m 0,0 595.276,0 0,841.89 L 0,841.89 0,0 z"
         id="path3462" />
    </clipPath>
    <clipPath
       id="clipPath3480">
      <path
         d="m 0,0 595.276,0 0,841.89 L 0,841.89 0,0 z"
         id="path3482" />
    </clipPath>
    <clipPath
       id="clipPath3508">
      <path
         d="m 0,0 595.276,0 0,841.89 L 0,841.89 0,0 z"
         id="path3510" />
    </clipPath>
    <clipPath
       id="clipPath3536">
      <path
         d="m 0,0 595.276,0 0,841.89 L 0,841.89 0,0 z"
         id="path3538" />
    </clipPath>
    <clipPath
       id="clipPath3568">
      <path
         d="m 0,0 595.276,0 0,841.89 L 0,841.89 0,0 z"
         id="path3570" />
    </clipPath>
  </defs>
  <metadata
     id="metadata3867">
    <rdf:RDF>
      <cc:Work
         rdf:about="">
        <dc:format>image/svg+xml</dc:format>
        <dc:type
           rdf:resource="http://purl.org/dc/dcmitype/StillImage" />
        <dc:title></dc:title>
      </cc:Work>
    </rdf:RDF>
  </metadata>
  <g
     transform="translate(0,-68)"
     id="layer1">
    <g
       transform="matrix(7.5,0,0,-7.5,-389.96648,1701.0403)"
       id="g3709">
      <g
         id="g3701">
        <g
           transform="matrix(1.0307486,0,0,1.0307486,112.3904,132.3188)"
           id="g3520">
          <path
             d="m 0,0 0,-7.251 1.196,0 0,3.228 2.141,0 0,-3.228 1.196,0 0,7.251 -1.196,0 0,-3.011 -2.141,0 L 1.196,0 0,0 z"
             id="path3522"
             style="fill:#f47216;fill-opacity:1;fill-rule:nonzero;stroke:none" />
        </g>
        <g
           transform="matrix(1.0307486,0,0,1.0307486,120.5128,132.3188)"
           id="g3524">
          <path
             d="m 0,0 -2.098,-7.251 1.141,0 0.457,1.815 2.109,0 0.457,-1.815 1.217,0 L 1.348,0 0,0 z m 1.37,-4.49 -1.642,0 0.827,3.316 0.815,-3.316 z"
             id="path3526"
             style="fill:#f47216;fill-opacity:1;fill-rule:nonzero;stroke:none" />
        </g>
        <g
           transform="matrix(1.0307486,0,0,1.0307486,125.23322,132.3188)"
           id="g3528">
          <path
             d="m 0,0 0,-7.251 1,0 0,6.186 1.685,-6.186 0.87,0 1.729,6.186 0,-6.186 1.119,0 L 6.403,0 4.696,0 3.218,-5.229 1.772,0 0,0 z"
             id="path3530"
             style="fill:#f47216;fill-opacity:1;fill-rule:nonzero;stroke:none" />
        </g>
      </g>
      <g
         id="g3664">
        <g
           id="g3438">
          <g
             clip-path="url(#clipPath3442)"
             id="g3440">
            <g
               transform="translate(73.8126,144.6476)"
               id="g3446">
              <path
                 d="m 0,0 0,-8.46 2.004,0 c 1.268,0 2.093,0.318 2.714,1.04 0.71,0.812 1.065,1.916 1.065,3.26 0,1.991 -0.799,3.412 -2.181,3.906 C 3.107,-0.089 2.575,0 1.903,0 L 0,0 z m 1.408,-1.129 0.583,0 c 1.522,0 2.321,-1.052 2.321,-3.094 0,-2.055 -0.786,-3.12 -2.321,-3.12 l -0.583,0 0,6.214 z"
                 id="path3448"
                 style="fill:#7b7979;fill-opacity:1;fill-rule:nonzero;stroke:none" />
            </g>
          </g>
        </g>
        <path
           d="m 81.124,136.188 1.395,0 0,8.46 -1.395,0 0,-8.46 z"
           id="path3450"
           style="fill:#7b7979;fill-opacity:1;fill-rule:nonzero;stroke:none" />
        <g
           transform="translate(84.2988,144.6476)"
           id="g3452">
          <path
             d="m 0,0 0,-8.46 4.896,0 0,1.142 -3.501,0 0,2.651 2.702,0 0,1.116 -2.702,0 0,2.422 3.45,0 L 4.845,0 0,0 z"
             id="path3454"
             style="fill:#7b7979;fill-opacity:1;fill-rule:nonzero;stroke:none" />
        </g>
        <g
           id="g3456">
          <g
             clip-path="url(#clipPath3460)"
             id="g3458">
            <g
               transform="translate(90.3063,144.6476)"
               id="g3464">
              <path
                 d="m 0,0 0,-8.46 1.395,0 0,3.526 1.319,0 1.319,-3.526 1.522,0 -1.611,3.818 c 0.888,0.482 1.294,1.18 1.294,2.232 0,1.053 -0.494,1.89 -1.294,2.194 C 3.564,-0.063 3.145,0 2.549,0 L 0,0 z m 1.395,-1.091 1.091,0 c 0.913,0 1.382,-0.443 1.382,-1.306 0,-0.938 -0.494,-1.446 -1.395,-1.446 l -1.078,0 0,2.752 z"
                 id="path3466"
                 style="fill:#7b7979;fill-opacity:1;fill-rule:nonzero;stroke:none" />
            </g>
          </g>
        </g>
        <g
           transform="translate(97.183,144.6476)"
           id="g3468">
          <path
             d="m 0,0 0,-8.46 4.896,0 0,1.142 -3.501,0 0,2.651 2.702,0 0,1.116 -2.702,0 0,2.422 3.45,0 L 4.845,0 0,0 z"
             id="path3470"
             style="fill:#7b7979;fill-opacity:1;fill-rule:nonzero;stroke:none" />
        </g>
        <g
           transform="translate(103.1396,144.6476)"
           id="g3472">
          <path
             d="m 0,0 0,-8.46 1.18,0 0,6.773 3.12,-6.773 1.306,0 0,8.46 -1.167,0 0,-6.1 L 1.649,0 0,0 z"
             id="path3474"
             style="fill:#7b7979;fill-opacity:1;fill-rule:nonzero;stroke:none" />
        </g>
        <g
           id="g3476">
          <g
             clip-path="url(#clipPath3480)"
             id="g3478">
            <g
               transform="translate(110.5016,144.6476)"
               id="g3484">
              <path
                 d="m 0,0 0,-8.46 2.004,0 c 1.268,0 2.093,0.318 2.714,1.04 0.71,0.812 1.066,1.916 1.066,3.26 0,1.991 -0.799,3.412 -2.182,3.906 C 3.108,-0.089 2.575,0 1.902,0 L 0,0 z m 1.408,-1.129 0.583,0 c 1.522,0 2.321,-1.052 2.321,-3.094 0,-2.055 -0.786,-3.12 -2.321,-3.12 l -0.583,0 0,6.214 z"
                 id="path3486"
                 style="fill:#7b7979;fill-opacity:1;fill-rule:nonzero;stroke:none" />
            </g>
          </g>
        </g>
        <g
           transform="translate(117.813,144.6476)"
           id="g3488">
          <path
             d="m 0,0 0,-8.46 4.896,0 0,1.142 -3.501,0 0,2.651 2.702,0 0,1.116 -2.702,0 0,2.422 3.45,0 L 4.845,0 0,0 z"
             id="path3490"
             style="fill:#7b7979;fill-opacity:1;fill-rule:nonzero;stroke:none" />
        </g>
        <g
           transform="translate(123.7698,144.6476)"
           id="g3492">
          <path
             d="m 0,0 0,-8.46 1.18,0 0,6.773 3.12,-6.773 1.306,0 0,8.46 -1.167,0 0,-6.1 L 1.649,0 0,0 z"
             id="path3494"
             style="fill:#7b7979;fill-opacity:1;fill-rule:nonzero;stroke:none" />
        </g>
        <g
           transform="translate(130.3455,144.6476)"
           id="g3496">
          <path
             d="m 0,0 1.826,-8.472 1.281,0 1.319,6.202 1.332,-6.202 1.268,0 L 8.802,0 7.623,0 6.418,-6.341 5.111,0 3.894,0 2.575,-6.341 1.421,0 0,0 z"
             id="path3498"
             style="fill:#7b7979;fill-opacity:1;fill-rule:nonzero;stroke:none" />
        </g>
        <g
           transform="translate(140.1915,144.6476)"
           id="g3500">
          <path
             d="m 0,0 0,-8.46 4.896,0 0,1.142 -3.501,0 0,2.651 2.702,0 0,1.116 -2.702,0 0,2.422 3.45,0 L 4.845,0 0,0 z"
             id="path3502"
             style="fill:#7b7979;fill-opacity:1;fill-rule:nonzero;stroke:none" />
        </g>
        <g
           id="g3504">
          <g
             clip-path="url(#clipPath3508)"
             id="g3506">
            <g
               transform="translate(146.1989,144.6476)"
               id="g3512">
              <path
                 d="m 0,0 0,-8.46 1.395,0 0,3.526 1.319,0 1.319,-3.526 1.522,0 -1.61,3.818 c 0.887,0.482 1.293,1.18 1.293,2.232 0,1.053 -0.494,1.89 -1.293,2.194 C 3.564,-0.063 3.146,0 2.549,0 L 0,0 z m 1.395,-1.091 1.091,0 c 0.913,0 1.382,-0.443 1.382,-1.306 0,-0.938 -0.494,-1.446 -1.395,-1.446 l -1.078,0 0,2.752 z"
                 id="path3514"
                 style="fill:#7b7979;fill-opacity:1;fill-rule:nonzero;stroke:none" />
            </g>
          </g>
        </g>
        <g
           transform="translate(153.0756,144.6476)"
           id="g3516">
          <path
             d="m 0,0 0,-8.46 1.395,0 0,2.778 1.002,1.408 1.89,-4.186 1.509,0 L 3.26,-3.107 5.428,0 3.957,0 1.395,-4.033 1.395,0 0,0 z"
             id="path3518"
             style="fill:#7b7979;fill-opacity:1;fill-rule:nonzero;stroke:none" />
        </g>
        <g
           transform="translate(60.9816,144.6476)"
           id="g3560">
          <path
             d="m 0,0 0,-1.192 1.864,0 0,-7.268 1.408,0 0,7.268 1.89,0 L 5.162,0 0,0 z"
             id="path3562"
             style="fill:#7b7979;fill-opacity:1;fill-rule:nonzero;stroke:none" />
        </g>
      </g>
      <g
         id="g3642">
        <g
           id="g3532">
          <g
             clip-path="url(#clipPath3536)"
             id="g3534">
            <g
               transform="translate(133.8399,132.3188)"
               id="g3540">
              <path
                 d="m 0,0 0,-7.251 2.229,0 c 0.837,0 1.239,0.087 1.641,0.348 0.533,0.348 0.826,0.945 0.826,1.652 0,0.555 -0.173,1.033 -0.499,1.37 -0.229,0.228 -0.381,0.315 -0.805,0.446 0.761,0.293 1.087,0.772 1.087,1.587 0,0.685 -0.293,1.304 -0.739,1.565 C 3.359,-0.054 3.099,0 2.196,0 L 0,0 z m 1.174,-3.011 0,2.076 0.881,0 c 0.826,0 1.185,-0.304 1.185,-1.022 0,-0.75 -0.381,-1.054 -1.305,-1.054 l -0.761,0 z m 0,-3.283 0,2.358 0.87,0 c 0.511,0 0.761,-0.065 0.989,-0.228 0.283,-0.206 0.435,-0.543 0.435,-0.967 0,-0.761 -0.457,-1.163 -1.326,-1.163 l -0.968,0 z"
                 id="path3542"
                 style="fill:#f47216;fill-opacity:1;fill-rule:nonzero;stroke:none" />
            </g>
            <g
               transform="translate(140.307,132.3188)"
               id="g3544">
              <path
                 d="m 0,0 0,-4.501 c 0,-1.478 0.207,-2.12 0.826,-2.511 0.392,-0.25 0.881,-0.37 1.489,-0.37 1.109,0 1.881,0.446 2.142,1.24 0.152,0.435 0.185,0.793 0.185,1.717 l 0,4.425 -1.076,0 0,-4.479 C 3.566,-5.153 3.555,-5.338 3.49,-5.61 3.446,-5.805 3.348,-5.99 3.218,-6.121 3.022,-6.305 2.772,-6.392 2.413,-6.392 c -0.652,0 -1.032,0.261 -1.152,0.772 -0.065,0.26 -0.087,0.521 -0.087,1.119 L 1.174,0 0,0 z"
                 id="path3546"
                 style="fill:#f47216;fill-opacity:1;fill-rule:nonzero;stroke:none" />
            </g>
            <g
               transform="translate(146.8824,132.3188)"
               id="g3548">
              <path
                 d="m 0,0 0,-7.251 1.196,0 0,3.022 1.131,0 1.13,-3.022 1.305,0 -1.381,3.272 c 0.761,0.413 1.109,1.011 1.109,1.913 0,0.903 -0.424,1.62 -1.109,1.881 C 3.055,-0.054 2.696,0 2.185,0 L 0,0 z m 1.196,-0.935 0.935,0 c 0.783,0 1.185,-0.381 1.185,-1.12 0,-0.804 -0.424,-1.239 -1.196,-1.239 l -0.924,0 0,2.359 z"
                 id="path3550"
                 style="fill:#f47216;fill-opacity:1;fill-rule:nonzero;stroke:none" />
            </g>
            <g
               transform="translate(155.5735,128.7855)"
               id="g3552">
              <path
                 d="m 0,0 0,-0.968 1.294,0 c 0,-1.282 -0.403,-1.891 -1.25,-1.891 -0.99,0 -1.479,0.913 -1.479,2.761 0,1.87 0.468,2.772 1.457,2.772 0.521,0 0.902,-0.282 1.087,-0.804 C 1.185,1.652 1.207,1.566 1.294,1.185 L 2.381,1.446 C 2.087,3.001 1.37,3.664 0.011,3.664 c -1.739,0 -2.718,-1.381 -2.718,-3.805 0,-2.316 0.968,-3.707 2.587,-3.707 0.794,0 1.327,0.304 1.74,1 l 0.163,-0.924 0.63,0 L 2.413,0 0,0 z"
                 id="path3554"
                 style="fill:#f47216;fill-opacity:1;fill-rule:nonzero;stroke:none" />
            </g>
            <g
               transform="translate(59.9655,142.758)"
               id="g3556">
              <path
                 d="m 0,0 c -0.228,0.736 -0.38,1.015 -0.774,1.382 -0.469,0.432 -1.078,0.66 -1.839,0.66 -1.534,0 -2.587,-0.977 -2.587,-2.385 0,-0.684 0.279,-1.318 0.761,-1.724 0.444,-0.381 0.558,-0.432 1.788,-0.901 0.837,-0.317 1.167,-0.545 1.332,-0.926 0.063,-0.139 0.102,-0.292 0.102,-0.456 0,-0.736 -0.546,-1.218 -1.37,-1.218 -0.939,0 -1.484,0.507 -1.713,1.56 l -1.255,-0.355 c 0.38,-1.573 1.344,-2.359 2.93,-2.359 1.674,0 2.841,1.053 2.841,2.562 0,0.685 -0.279,1.319 -0.761,1.725 -0.381,0.329 -0.749,0.52 -1.611,0.85 -0.862,0.329 -1.091,0.443 -1.344,0.659 -0.216,0.19 -0.343,0.457 -0.343,0.748 0,0.622 0.482,1.066 1.154,1.066 0.761,0 1.18,-0.368 1.497,-1.307 L 0,0 z"
                 id="path3558"
                 style="fill:#7b7979;fill-opacity:1;fill-rule:nonzero;stroke:none" />
            </g>
          </g>
        </g>
        <g
           id="g3564">
          <g
             clip-path="url(#clipPath3568)"
             id="g3566">
            <g
               transform="translate(66.8512,144.6476)"
               id="g3572">
              <path
                 d="m 0,0 0,-5.251 c 0,-1.725 0.241,-2.473 0.964,-2.929 0.457,-0.292 1.027,-0.432 1.738,-0.432 1.293,0 2.194,0.52 2.498,1.446 0.178,0.507 0.216,0.926 0.216,2.004 l 0,5.162 -1.256,0 0,-5.225 C 4.16,-6.012 4.147,-6.227 4.071,-6.544 4.021,-6.773 3.907,-6.988 3.754,-7.14 3.526,-7.356 3.234,-7.458 2.816,-7.458 2.055,-7.458 1.611,-7.153 1.471,-6.557 1.395,-6.253 1.37,-5.948 1.37,-5.251 L 1.37,0 0,0 z"
                 id="path3574"
                 style="fill:#7b7979;fill-opacity:1;fill-rule:nonzero;stroke:none" />
            </g>
            <g
               transform="translate(83.2762,216.1519)"
               id="g3576">
              <path
                 d="M 0,0 C 0.173,-0.135 0.339,-0.263 0.444,-0.348 L -0.546,0.502 0,0 z m 3.114,-45.452 c -0.379,0.235 -0.744,0.487 -0.744,0.749 l 0,20.805 c 0,0.149 0.086,2.571 0,2.59 2.352,-0.517 4.585,-1.396 6.47,-2.931 2.881,-2.346 5.041,-5.057 5.606,-8.675 l 3.854,-0.007 c 0.997,-10e-4 0.613,0.721 0.613,1.64 l 0,12.331 0,5.771 c 0,1.326 -0.379,1.64 1.02,1.64 0.93,0 1.134,-0.174 0.575,0.611 l -1.794,2.522 -1.325,1.863 -3.659,-5.235 c 0.476,-0.36 1.145,-1.018 1.145,-1.203 l 0,-4.35 c 0,-0.718 -1.731,-0.348 -2.313,-0.348 l -8.633,0 c -0.26,0 -1.569,1.184 -1.569,1.442 l 0.009,5.921 c 10e-4,0.99 -0.599,4.122 0.585,4.122 0.903,0 1.964,-0.411 1.214,0.555 L 1.986,-2.831 C 1.766,-2.548 1.217,-2 0.674,-1.404 0.115,-2.342 -1.366,-3.735 -1.752,-4.233 l -1.652,-2.126 c 0.476,-0.336 1.245,-1.077 1.245,-1.275 10e-4,-0.991 0.057,-10.045 -0.029,-10.045 l -10.902,0 c -0.261,0 -1.57,1.183 -1.57,1.442 l 0,4.352 c 0,0.986 2.387,-0.238 1.739,0.688 l -3.245,4.644 -3.702,-5.204 c 0.478,-0.355 1.172,-1.034 1.172,-1.222 l 0,-19.94 2.253,0.004 2.001,0.003 c 0.041,0 0.269,2.118 0.336,2.376 1.324,5.062 5.391,8.184 10.382,9.255 0.213,0.046 1.57,-1.216 1.57,-1.442 l 0,-20.418 0,-2.92 c 0,-0.601 -5.313,1.578 -5.736,1.872 -2.445,1.704 -4.236,3.802 -5.576,6.366 l -6.2,0 c -0.533,0 0.033,-1.829 0.125,-2.196 1.822,-7.269 8.021,-10.882 15.242,-11.512 9.651,-0.842 22.825,2.639 24.29,13.784 -2.143,0.109 -5.476,0.261 -5.623,-0.078 -2.069,-4.782 -5.181,-7.523 -10.429,-8.321 -0.248,-0.037 -0.545,0.324 -0.825,0.694 m 0.408,41.256 2.642,-3.401 c -0.395,-0.039 -2.22,0.19 -2.22,-0.221 l -0.005,-3.353 -0.007,-5.066 7.548,0 c 1.09,0 1.826,-0.433 1.826,0.734 l 0,2.522 -0.417,0 c -0.22,0 -1.627,1.36 -1.569,1.442 l 4.774,6.831 c 0.04,0.058 1.434,-1.236 1.553,-1.404 l 4.86,-6.831 c -0.584,-0.038 -2.024,0.364 -2.024,-0.385 l 0,-2.881 0,-10.16 0,-7.797 c 0,-0.425 -5.133,-0.189 -5.901,-0.188 -0.268,10e-4 -1.559,1.176 -1.569,1.442 -0.115,3.158 -1.307,6.702 -4.254,8.351 -0.754,0.422 -4.82,2.509 -4.82,1.492 l 0,-7.226 0,-14.117 c 2.109,0.472 4.16,1.301 5.673,2.904 0.431,0.456 3.174,5.126 3.187,5.126 l 7.31,0 c 0.253,0 1.579,-1.194 1.569,-1.443 -0.646,-14.911 -21.32,-18.399 -32.191,-13.128 -4.479,2.171 -8.581,6.11 -10.171,10.913 -0.062,0.189 -0.908,3.659 -0.777,3.659 l 7.309,0 c 0.36,0 1.429,-1.117 1.569,-1.442 1.387,-3.204 3.328,-5.775 6.961,-6.537 1.522,-0.319 1.898,-0.824 1.898,0.6 l 0,7.77 0,12.849 c -4.146,-1.325 -7.98,-4.34 -8.813,-8.836 -0.101,-0.545 -0.002,-2.376 -0.547,-2.377 l -1.79,-0.003 -3.822,-0.007 c -0.261,0 -1.57,1.184 -1.57,1.442 l 0,19.943 -0.471,0 c -0.22,0 -1.626,1.363 -1.569,1.442 l 4.859,6.831 c 0.042,0.059 1.435,-1.235 1.553,-1.403 l 4.773,-6.831 c -1.607,-0.039 -1.969,0.384 -1.969,-1.257 l 0,-2.04 9.333,0 c 0.068,0 0.047,5.771 0.035,8.603 l -0.673,0 c -0.224,0 -1.62,1.376 -1.569,1.442 l 3.002,3.864 c 0.41,0.529 2.285,2.255 2.285,2.942 0.001,0.001 1.573,-1.176 1.573,-1.437 0,-0.773 2.157,-2.769 2.626,-3.373"
                 id="path3578"
                 style="fill:#7b7979;fill-opacity:1;fill-rule:nonzero;stroke:none" />
            </g>
            <g
               transform="translate(56.9121,165.6017)"
               id="g3580">
              <path
                 d="m 0,0 c -0.068,-0.141 -1.355,-2.164 -1.535,-2.494 -0.179,-0.331 -1.44,-2.151 -1.642,-2.34 -0.202,-0.189 -1.124,-1.323 -1.057,-1.465 0.068,-0.141 0.113,-0.142 0.383,-0.071 0.27,0.071 0.382,0.095 0.382,0.095 0,0 5.893,-4.064 12.258,-5.931 6.365,-1.867 10.953,-2.22 14.754,-2.315 3.801,-0.095 11.617,-0.167 27.465,4.438 0,0 9.863,2.923 10.791,3.144 0.926,0.222 8.599,2.126 14.458,1.993 5.858,-0.133 8.935,-1.018 8.935,-1.018 l 0.295,0.044 c 0,0 8.539,-1.451 9.305,-1.803 0.765,-0.352 1.116,-0.453 1.243,-0.704 0,0 0.685,-0.067 0.351,0.168 -0.334,0.234 -1.626,0.536 -1.882,0.703 0,0 -5.038,1.86 -5.563,1.993 0,0 1.561,-0.452 1.721,-0.452 l 5.054,-1.206 c 0,0 -2.949,1.105 -3.013,1.139 0,0 2.408,-0.469 4.385,-1.172 0,0 3.842,-1.274 4.114,-1.458 0,0 -1.658,0.922 -3.285,1.542 -1.626,0.619 -5.199,1.976 -10.938,3.249 -5.739,1.273 -12.1,1.374 -14.076,1.223 -1.977,-0.151 -5.214,-0.318 -7.142,-0.687 -1.929,-0.369 -5.772,-1.072 -5.772,-1.072 0,0 3.315,1.842 10.888,2.696 7.572,0.855 12.643,0.084 13.966,-0.15 1.323,-0.235 6.616,-0.989 12.021,-2.58 5.405,-1.592 7.254,-2.362 7.254,-2.362 0,0 -4.655,2.296 -9.837,3.685 -5.182,1.39 -8.402,1.993 -11.942,2.446 -3.714,0.535 -11.08,0.553 -15.719,-0.268 -4.64,-0.822 -5.931,-0.923 -7.94,-1.509 0,0 3.889,1.206 6.744,1.675 2.854,0.469 9.676,1.508 17.027,0.721 7.35,-0.788 11.733,-2.244 13.455,-2.664 1.723,-0.418 8.578,-2.713 9.965,-3.299 0,0 -8.005,3.668 -18.176,5.459 C 78.577,0.851 72.693,0.248 72.231,0.181 71.769,0.114 65.584,-0.253 57.276,-2.532 48.97,-4.81 47.36,-5.195 44.172,-5.799 40.983,-6.402 31.761,-9.494 19.735,-8.018 8.788,-6.72 0.067,0.142 0,0"
                 id="path3582"
                 style="fill:#f47216;fill-opacity:1;fill-rule:nonzero;stroke:none" />
            </g>
          </g>
        </g>
      </g>
    </g>
  </g>
</svg>
