<?xml version="1.0" encoding="utf-8"?>
<!-- Generator: Adobe Illustrator 26.5.0, SVG Export Plug-In . SVG Version: 6.00 Build 0)  -->
<svg version="1.1" id="Ebene_1" xmlns="http://www.w3.org/2000/svg" xmlns:xlink="http://www.w3.org/1999/xlink" x="0px" y="0px"
	 viewBox="0 0 1023 460" style="enable-background:new 0 0 1023 460;" xml:space="preserve">
<style type="text/css">
	.st0{fill:#B3DEC1;}
	.st1{fill:none;}
	.st2{font-family:'MyriadPro-Regular';}
	.st3{font-size:12px;}
</style>
<path class="st0" d="M863.4,300.5c-7,7-10.9,16.4-10.9,26.3l0,96c0,9.9-3.9,19.3-10.9,26.3c-7,7-16.4,10.9-26.3,10.9H37.2
	c-9.9,0-19.3-3.9-26.3-10.9c-7-7-10.9-16.5-10.9-26.3L0,37.2c0-9.9,3.9-19.3,10.9-26.3C17.9,3.9,27.3,0,37.2,0l778.1,0
	c9.9,0,19.3,3.9,26.3,10.9c7,7,10.9,16.5,10.9,26.3v66.2c0,9.9,3.9,19.3,10.9,26.3c7,7,16.4,10.9,26.3,10.9H1023L863.4,300.5z"/>
<rect x="85" y="80" class="st1" width="450" height="230"/>
<text transform="matrix(1 0 0 1 85 88.52)" class="st2 st3">vhvkgzhvgzhvhzkv</text>
</svg>
